{"glyphs":{"0":{"ha":893,"x_min":60,"x_max":833,"o":"m 446 -17 q 246 48 333 -17 q 109 226 158 113 q 60 486 60 339 q 109 747 60 633 q 245 924 158 860 q 446 989 332 989 q 647 924 560 989 q 783 747 733 860 q 833 486 833 633 q 784 226 833 339 q 647 48 735 113 q 446 -17 560 -17 m 446 108 q 577 157 519 108 q 667 290 635 206 q 699 486 699 375 q 667 683 699 597 q 577 817 635 768 q 446 865 519 865 q 315 817 372 865 q 226 683 258 768 q 194 486 194 597 q 226 290 194 375 q 315 156 258 204 q 446 108 372 108 z "},"1":{"ha":578,"x_min":78,"x_max":426,"o":"m 293 0 l 293 899 l 306 972 l 426 972 l 426 0 l 293 0 m 78 707 l 78 831 q 149 850 108 829 q 232 904 190 871 q 306 974 274 938 l 390 882 q 292 792 343 832 q 187 728 240 751 q 78 707 133 704 z "},"2":{"ha":783,"x_min":38,"x_max":707,"o":"m 78 0 l 78 110 q 98 199 78 153 q 156 292 118 246 q 247 376 194 338 l 435 515 q 495 570 468 539 q 538 635 522 601 q 554 703 554 669 q 532 784 554 747 q 469 842 510 821 q 374 864 429 864 q 281 844 321 864 q 215 790 242 824 q 178 719 189 757 l 38 746 q 97 865 53 810 q 211 955 142 921 q 368 989 281 989 q 541 952 468 989 q 654 851 614 915 q 694 703 694 786 q 651 554 694 622 q 525 422 607 486 l 351 292 q 270 211 300 253 q 233 122 240 169 l 707 122 l 707 0 l 78 0 z "},"3":{"ha":760,"x_min":75,"x_max":699,"o":"m 378 -17 q 242 6 303 -17 q 139 67 181 28 q 75 151 97 106 l 193 206 q 228 162 207 186 q 283 121 249 138 q 369 104 318 104 q 509 154 457 104 q 561 281 561 204 q 531 377 561 338 q 441 438 500 417 q 297 458 382 458 l 263 458 l 263 561 l 294 561 q 453 542 381 561 q 582 484 526 522 q 668 392 638 446 q 699 268 699 338 q 655 117 699 182 q 538 18 611 53 q 378 -17 465 -17 m 263 475 l 263 574 l 297 574 q 475 613 411 574 q 539 722 539 651 q 517 795 539 763 q 458 848 496 828 q 367 868 419 868 q 302 858 333 868 q 244 827 271 847 q 199 775 218 807 l 85 826 q 151 914 108 878 q 251 969 194 950 q 372 989 308 989 q 528 956 460 989 q 635 864 596 922 q 675 732 675 806 q 645 622 675 669 q 563 541 615 574 q 441 492 510 508 q 293 475 372 475 l 263 475 z "},"4":{"ha":867,"x_min":54,"x_max":825,"o":"m 503 0 l 503 224 l 54 224 l 54 331 l 493 972 l 635 972 l 635 344 l 825 344 l 825 224 l 635 224 l 635 0 l 503 0 m 204 344 l 503 344 l 503 782 l 204 344 z "},"5":{"ha":800,"x_min":76,"x_max":739,"o":"m 404 -17 q 280 2 343 -17 q 163 59 217 21 q 76 157 108 97 l 192 210 q 289 128 236 154 q 399 103 342 103 q 544 157 489 103 q 600 301 600 211 q 546 444 600 389 q 404 500 492 500 q 308 478 354 500 q 238 425 263 457 l 114 453 l 164 972 l 690 972 l 690 847 l 283 847 l 254 560 q 340 596 293 582 q 436 610 388 610 q 592 571 524 610 q 699 463 660 532 q 739 306 739 394 q 696 138 739 210 q 578 24 653 65 q 404 -17 503 -17 z "},"6":{"ha":790,"x_min":60,"x_max":749,"o":"m 414 -17 q 246 21 314 -17 q 137 123 178 58 q 78 272 96 188 q 60 453 60 357 q 85 672 60 574 q 158 842 110 771 q 278 951 207 913 q 440 989 349 989 q 586 966 514 989 q 715 903 658 943 l 642 804 q 546 851 597 835 q 450 867 494 867 q 247 755 318 867 q 183 411 176 643 l 156 435 q 260 566 189 517 q 429 615 332 615 q 596 574 524 615 q 708 460 668 532 q 749 296 749 389 q 707 135 749 206 q 590 24 665 64 q 414 -17 514 -17 m 415 103 q 517 128 472 103 q 587 198 561 153 q 613 300 613 243 q 587 403 613 358 q 517 474 561 449 q 415 499 472 499 q 312 474 357 499 q 241 403 267 449 q 215 300 215 358 q 241 198 215 243 q 312 128 267 153 q 415 103 357 103 z "},"7":{"ha":753,"x_min":54,"x_max":711,"o":"m 118 0 l 576 876 l 711 863 l 269 0 l 118 0 m 54 847 l 54 972 l 711 972 l 711 863 l 593 847 l 54 847 z "},"8":{"ha":853,"x_min":71,"x_max":781,"o":"m 425 -17 q 238 17 317 -17 q 115 112 158 51 q 71 253 71 172 q 115 402 71 338 q 238 503 158 467 q 425 538 317 539 q 614 503 535 539 q 737 402 693 467 q 781 253 781 338 q 737 112 781 172 q 614 17 693 51 q 425 -17 535 -17 m 425 101 q 581 148 521 101 q 642 268 642 194 q 581 392 642 344 q 425 439 521 439 q 314 418 363 439 q 238 358 265 397 q 211 268 211 318 q 238 181 211 219 q 314 122 265 143 q 425 101 363 101 m 425 468 q 257 501 329 468 q 145 591 185 533 q 106 725 106 649 q 145 863 106 803 q 257 956 185 922 q 425 989 329 989 q 594 956 522 989 q 706 863 667 922 q 746 725 746 803 q 706 591 746 649 q 594 501 667 533 q 425 468 522 468 m 425 560 q 559 602 507 560 q 611 711 611 644 q 559 828 611 783 q 425 874 507 874 q 293 828 344 874 q 242 711 242 783 q 293 602 242 644 q 425 560 344 560 z "},"9":{"ha":790,"x_min":42,"x_max":732,"o":"m 376 989 q 545 951 478 989 q 654 849 613 914 q 714 700 696 785 q 732 519 732 615 q 706 299 732 399 q 633 130 681 200 q 514 22 585 60 q 350 -17 443 -17 q 205 6 276 -17 q 76 69 133 28 l 150 168 q 244 121 193 138 q 342 104 296 104 q 544 217 474 104 q 607 561 615 329 l 636 538 q 531 406 603 456 q 361 357 460 357 q 196 399 268 357 q 83 512 124 440 q 42 675 42 583 q 83 838 42 768 q 201 949 125 908 q 376 989 276 989 m 376 869 q 274 844 319 869 q 203 775 229 819 q 178 672 178 731 q 203 569 178 614 q 274 498 229 524 q 376 472 319 472 q 480 498 435 472 q 551 569 525 524 q 576 672 576 614 q 551 775 576 731 q 480 844 525 819 q 376 869 435 869 z "},"A":{"ha":954,"x_min":13,"x_max":942,"o":"m 796 0 l 411 972 l 550 972 l 942 0 l 796 0 m 13 0 l 404 972 l 543 972 l 158 0 l 13 0 m 197 260 l 197 382 l 757 382 l 757 260 l 197 260 z "},"Á":{"ha":954,"x_min":13,"x_max":942,"o":"m 796 0 l 411 972 l 550 972 l 942 0 l 796 0 m 13 0 l 404 972 l 543 972 l 158 0 l 13 0 m 197 260 l 197 382 l 757 382 l 757 260 l 197 260 m 376 1032 l 538 1207 l 699 1207 l 519 1032 l 376 1032 z "},"Ă":{"ha":954,"x_min":13,"x_max":942,"o":"m 796 0 l 411 972 l 550 972 l 942 0 l 796 0 m 13 0 l 404 972 l 543 972 l 158 0 l 13 0 m 197 260 l 197 382 l 757 382 l 757 260 l 197 260 m 476 1028 q 352 1052 407 1028 q 266 1121 297 1076 q 235 1221 235 1165 l 360 1221 q 392 1155 360 1181 q 476 1129 425 1129 q 560 1155 528 1129 q 593 1221 593 1181 l 718 1221 q 688 1121 718 1165 q 603 1052 657 1076 q 476 1028 549 1028 z "},"Ǎ":{"ha":954,"x_min":13,"x_max":942,"o":"m 796 0 l 411 972 l 550 972 l 942 0 l 796 0 m 13 0 l 404 972 l 543 972 l 158 0 l 13 0 m 197 260 l 197 382 l 757 382 l 757 260 l 197 260 m 408 1038 l 408 1040 l 583 1221 l 721 1221 l 551 1038 l 408 1038 m 399 1038 l 229 1221 l 367 1221 l 542 1040 l 542 1038 l 399 1038 z "},"Â":{"ha":954,"x_min":13,"x_max":942,"o":"m 796 0 l 411 972 l 550 972 l 942 0 l 796 0 m 13 0 l 404 972 l 543 972 l 158 0 l 13 0 m 197 260 l 197 382 l 757 382 l 757 260 l 197 260 m 585 1054 l 400 1232 l 400 1238 l 551 1238 l 721 1054 l 585 1054 m 229 1054 l 399 1238 l 550 1238 l 550 1232 l 364 1054 l 229 1054 z "},"Ä":{"ha":954,"x_min":13,"x_max":942,"o":"m 796 0 l 411 972 l 550 972 l 942 0 l 796 0 m 13 0 l 404 972 l 543 972 l 158 0 l 13 0 m 197 260 l 197 382 l 757 382 l 757 260 l 197 260 m 651 1100 q 599 1122 621 1100 q 576 1174 576 1144 q 599 1226 576 1204 q 651 1249 621 1249 q 703 1226 682 1249 q 725 1174 725 1204 q 703 1122 725 1144 q 651 1100 682 1100 m 304 1100 q 251 1122 274 1100 q 229 1174 229 1144 q 251 1227 229 1206 q 304 1249 274 1249 q 356 1227 335 1249 q 378 1174 378 1206 q 356 1122 378 1144 q 304 1100 335 1100 z "},"À":{"ha":954,"x_min":13,"x_max":942,"o":"m 796 0 l 411 972 l 550 972 l 942 0 l 796 0 m 13 0 l 404 972 l 543 972 l 158 0 l 13 0 m 197 260 l 197 382 l 757 382 l 757 260 l 197 260 m 482 1038 l 300 1222 l 460 1222 l 625 1038 l 482 1038 z "},"Ā":{"ha":954,"x_min":13,"x_max":942,"o":"m 796 0 l 411 972 l 550 972 l 942 0 l 796 0 m 13 0 l 404 972 l 543 972 l 158 0 l 13 0 m 197 260 l 197 382 l 757 382 l 757 260 l 197 260 m 261 1042 l 261 1158 l 694 1158 l 694 1042 l 261 1042 z "},"Ą":{"ha":954,"x_min":13,"x_max":974,"o":"m 796 0 l 411 972 l 550 972 l 942 0 l 796 0 m 13 0 l 404 972 l 543 972 l 158 0 l 13 0 m 197 260 l 197 382 l 757 382 l 757 260 l 197 260 m 876 -294 q 788 -279 826 -294 q 729 -233 750 -264 q 708 -158 708 -203 q 747 -65 708 -108 q 836 13 786 -22 l 940 0 q 860 -71 896 -32 q 824 -153 824 -110 q 836 -183 824 -172 q 871 -193 849 -193 q 909 -188 892 -193 q 933 -179 926 -183 l 974 -268 q 930 -287 954 -281 q 876 -294 906 -294 z "},"Å":{"ha":954,"x_min":13,"x_max":942,"o":"m 796 0 l 411 972 l 550 972 l 942 0 l 796 0 m 13 0 l 404 972 l 543 972 l 158 0 l 13 0 m 197 260 l 197 382 l 757 382 l 757 260 l 197 260 m 476 1014 q 406 1033 439 1014 q 354 1082 374 1051 q 335 1150 335 1113 q 354 1219 335 1189 q 406 1269 374 1250 q 476 1288 439 1288 q 548 1269 515 1288 q 599 1219 581 1250 q 618 1150 618 1189 q 599 1082 618 1113 q 548 1033 581 1051 q 476 1014 515 1014 m 476 1099 q 526 1150 526 1099 q 476 1203 526 1203 q 426 1150 426 1203 q 476 1099 426 1099 z "},"Ã":{"ha":954,"x_min":13,"x_max":942,"o":"m 796 0 l 411 972 l 550 972 l 942 0 l 796 0 m 13 0 l 404 972 l 543 972 l 158 0 l 13 0 m 197 260 l 197 382 l 757 382 l 757 260 l 197 260 m 590 1028 q 523 1043 549 1028 q 482 1078 497 1058 q 453 1113 467 1097 q 419 1128 439 1128 q 387 1117 399 1128 q 368 1076 375 1106 l 269 1076 q 292 1152 274 1118 q 343 1206 311 1186 q 418 1225 375 1225 q 483 1210 458 1225 q 525 1175 508 1194 q 556 1140 542 1156 q 590 1125 571 1125 q 624 1140 614 1125 q 639 1179 635 1154 l 738 1179 q 693 1072 729 1117 q 590 1028 657 1028 z "},"Æ":{"ha":1397,"x_min":13,"x_max":1288,"o":"m 13 0 l 593 972 l 1285 972 l 1285 847 l 839 847 l 839 558 l 1240 558 l 1240 436 l 839 436 l 839 125 l 1288 125 l 1288 0 l 699 0 l 699 260 l 324 260 l 168 0 l 13 0 m 392 382 l 699 382 l 699 847 l 669 847 l 392 382 z "},"B":{"ha":849,"x_min":124,"x_max":789,"o":"m 124 0 l 124 972 l 436 972 q 608 942 536 972 q 719 851 679 911 q 758 704 758 792 q 727 585 758 638 q 640 500 696 533 q 751 407 713 465 q 789 268 789 349 q 751 123 789 183 q 643 31 713 63 q 476 0 574 0 l 124 0 m 258 124 l 468 124 q 602 165 554 124 q 650 275 650 206 q 595 395 650 353 q 442 438 540 438 l 258 438 l 258 124 m 258 554 l 458 554 q 577 594 533 554 q 621 706 621 635 q 571 819 621 779 q 431 858 521 858 l 258 858 l 258 554 z "},"C":{"ha":1003,"x_min":60,"x_max":957,"o":"m 538 -17 q 290 48 399 -17 q 121 226 182 113 q 60 486 60 339 q 121 747 60 633 q 289 924 182 860 q 535 989 396 989 q 707 956 625 989 q 853 866 789 924 q 953 732 918 808 l 831 676 q 758 775 804 733 q 655 840 713 817 q 535 864 597 864 q 361 815 438 864 q 242 682 285 767 q 199 486 199 597 q 242 289 199 375 q 363 155 286 203 q 539 107 440 107 q 660 133 603 107 q 762 203 717 158 q 835 307 807 249 l 957 253 q 858 113 922 174 q 712 17 794 51 q 538 -17 629 -17 z "},"Ć":{"ha":1003,"x_min":60,"x_max":957,"o":"m 538 -17 q 290 48 399 -17 q 121 226 182 113 q 60 486 60 339 q 121 747 60 633 q 289 924 182 860 q 535 989 396 989 q 707 956 625 989 q 853 866 789 924 q 953 732 918 808 l 831 676 q 758 775 804 733 q 655 840 713 817 q 535 864 597 864 q 361 815 438 864 q 242 682 285 767 q 199 486 199 597 q 242 289 199 375 q 363 155 286 203 q 539 107 440 107 q 660 133 603 107 q 762 203 717 158 q 835 307 807 249 l 957 253 q 858 113 922 174 q 712 17 794 51 q 538 -17 629 -17 m 433 1038 l 596 1221 l 756 1221 l 576 1038 l 433 1038 z "},"Č":{"ha":1003,"x_min":60,"x_max":957,"o":"m 538 -17 q 290 48 399 -17 q 121 226 182 113 q 60 486 60 339 q 121 747 60 633 q 289 924 182 860 q 535 989 396 989 q 707 956 625 989 q 853 866 789 924 q 953 732 918 808 l 831 676 q 758 775 804 733 q 655 840 713 817 q 535 864 597 864 q 361 815 438 864 q 242 682 285 767 q 199 486 199 597 q 242 289 199 375 q 363 155 286 203 q 539 107 440 107 q 660 133 603 107 q 762 203 717 158 q 835 307 807 249 l 957 253 q 858 113 922 174 q 712 17 794 51 q 538 -17 629 -17 m 465 1038 l 465 1040 l 640 1221 l 778 1221 l 608 1038 l 465 1038 m 456 1038 l 286 1221 l 424 1221 l 599 1040 l 599 1038 l 456 1038 z "},"Ç":{"ha":1003,"x_min":60,"x_max":957,"o":"m 538 -17 q 290 48 399 -17 q 121 226 182 113 q 60 486 60 339 q 121 747 60 633 q 289 924 182 860 q 535 989 396 989 q 707 956 625 989 q 853 866 789 924 q 953 732 918 808 l 831 676 q 758 775 804 733 q 655 840 713 817 q 535 864 597 864 q 361 815 438 864 q 242 682 285 767 q 199 486 199 597 q 242 289 199 375 q 363 155 286 203 q 539 107 440 107 q 660 133 603 107 q 762 203 717 158 q 835 307 807 249 l 957 253 q 858 113 922 174 q 712 17 794 51 q 538 -17 629 -17 m 490 -292 q 431 -284 463 -292 q 358 -254 399 -276 l 385 -181 q 430 -201 407 -192 q 471 -210 453 -210 q 515 -200 496 -210 q 535 -162 535 -190 q 510 -113 535 -129 q 433 -90 485 -97 l 474 8 l 557 -6 l 540 -43 q 613 -93 592 -61 q 635 -162 635 -125 q 600 -255 635 -218 q 490 -292 565 -292 z "},"Ĉ":{"ha":1003,"x_min":60,"x_max":957,"o":"m 538 -17 q 290 48 399 -17 q 121 226 182 113 q 60 486 60 339 q 121 747 60 633 q 289 924 182 860 q 535 989 396 989 q 707 956 625 989 q 853 866 789 924 q 953 732 918 808 l 831 676 q 758 775 804 733 q 655 840 713 817 q 535 864 597 864 q 361 815 438 864 q 242 682 285 767 q 199 486 199 597 q 242 289 199 375 q 363 155 286 203 q 539 107 440 107 q 660 133 603 107 q 762 203 717 158 q 835 307 807 249 l 957 253 q 858 113 922 174 q 712 17 794 51 q 538 -17 629 -17 m 643 1054 l 458 1232 l 458 1238 l 610 1238 l 779 1054 l 643 1054 m 288 1054 l 457 1238 l 608 1238 l 608 1232 l 422 1054 l 288 1054 z "},"Ċ":{"ha":1003,"x_min":60,"x_max":957,"o":"m 538 -17 q 290 48 399 -17 q 121 226 182 113 q 60 486 60 339 q 121 747 60 633 q 289 924 182 860 q 535 989 396 989 q 707 956 625 989 q 853 866 789 924 q 953 732 918 808 l 831 676 q 758 775 804 733 q 655 840 713 817 q 535 864 597 864 q 361 815 438 864 q 242 682 285 767 q 199 486 199 597 q 242 289 199 375 q 363 155 286 203 q 539 107 440 107 q 660 133 603 107 q 762 203 717 158 q 835 307 807 249 l 957 253 q 858 113 922 174 q 712 17 794 51 q 538 -17 629 -17 m 535 1090 q 479 1115 503 1090 q 456 1171 456 1139 q 479 1227 456 1204 q 535 1250 503 1250 q 591 1227 568 1250 q 614 1171 614 1204 q 591 1115 614 1139 q 535 1090 568 1090 z "},"D":{"ha":960,"x_min":124,"x_max":900,"o":"m 124 0 l 124 972 l 424 972 q 670 910 563 972 q 839 739 778 849 q 900 486 900 629 q 839 235 900 344 q 670 63 778 125 q 424 0 563 0 l 124 0 m 260 128 l 424 128 q 556 155 494 128 q 663 231 617 182 q 735 346 710 281 q 761 486 761 411 q 735 626 761 561 q 663 741 710 692 q 556 817 617 790 q 424 844 494 844 l 260 844 l 260 128 z "},"Ď":{"ha":960,"x_min":124,"x_max":900,"o":"m 124 0 l 124 972 l 424 972 q 670 910 563 972 q 839 739 778 849 q 900 486 900 629 q 839 235 900 344 q 670 63 778 125 q 424 0 563 0 l 124 0 m 260 128 l 424 128 q 556 155 494 128 q 663 231 617 182 q 735 346 710 281 q 761 486 761 411 q 735 626 761 561 q 663 741 710 692 q 556 817 617 790 q 424 844 494 844 l 260 844 l 260 128 m 357 1038 l 357 1040 l 532 1221 l 669 1221 l 500 1038 l 357 1038 m 347 1038 l 178 1221 l 315 1221 l 490 1040 l 490 1038 l 347 1038 z "},"Đ":{"ha":1042,"x_min":96,"x_max":982,"o":"m 96 432 l 96 539 l 542 539 l 542 432 l 96 432 m 204 0 l 204 972 l 504 972 q 752 910 644 972 q 921 739 860 849 q 982 486 982 629 q 921 235 982 344 q 752 63 860 125 q 504 0 644 0 l 204 0 m 342 128 l 504 128 q 637 155 575 128 q 744 231 699 182 q 817 346 790 281 q 843 486 843 411 q 817 626 843 561 q 744 741 790 692 q 637 817 699 790 q 504 844 575 844 l 342 844 l 342 128 z "},"Ð":{"ha":1042,"x_min":96,"x_max":982,"o":"m 96 432 l 96 539 l 542 539 l 542 432 l 96 432 m 204 0 l 204 972 l 504 972 q 752 910 644 972 q 921 739 860 849 q 982 486 982 629 q 921 235 982 344 q 752 63 860 125 q 504 0 644 0 l 204 0 m 342 128 l 504 128 q 637 155 575 128 q 744 231 699 182 q 817 346 790 281 q 843 486 843 411 q 817 626 843 561 q 744 741 790 692 q 637 817 699 790 q 504 844 575 844 l 342 844 l 342 128 z "},"E":{"ha":821,"x_min":124,"x_max":711,"o":"m 124 0 l 124 972 l 708 972 l 708 847 l 260 847 l 260 558 l 664 558 l 664 436 l 260 436 l 260 125 l 711 125 l 711 0 l 124 0 z "},"É":{"ha":821,"x_min":124,"x_max":711,"o":"m 124 0 l 124 972 l 708 972 l 708 847 l 260 847 l 260 558 l 664 558 l 664 436 l 260 436 l 260 125 l 711 125 l 711 0 l 124 0 m 319 1032 l 481 1207 l 640 1207 l 463 1032 l 319 1032 z "},"Ě":{"ha":821,"x_min":124,"x_max":711,"o":"m 124 0 l 124 972 l 708 972 l 708 847 l 260 847 l 260 558 l 664 558 l 664 436 l 260 436 l 260 125 l 711 125 l 711 0 l 124 0 m 350 1038 l 350 1040 l 525 1221 l 663 1221 l 493 1038 l 350 1038 m 340 1038 l 171 1221 l 308 1221 l 483 1040 l 483 1038 l 340 1038 z "},"Ê":{"ha":821,"x_min":124,"x_max":711,"o":"m 124 0 l 124 972 l 708 972 l 708 847 l 260 847 l 260 558 l 664 558 l 664 436 l 260 436 l 260 125 l 711 125 l 711 0 l 124 0 m 528 1054 l 343 1232 l 343 1238 l 494 1238 l 664 1054 l 528 1054 m 172 1054 l 342 1238 l 493 1238 l 493 1232 l 307 1054 l 172 1054 z "},"Ë":{"ha":821,"x_min":124,"x_max":711,"o":"m 124 0 l 124 972 l 708 972 l 708 847 l 260 847 l 260 558 l 664 558 l 664 436 l 260 436 l 260 125 l 711 125 l 711 0 l 124 0 m 594 1100 q 542 1122 564 1100 q 519 1174 519 1144 q 542 1226 519 1204 q 594 1249 564 1249 q 647 1226 625 1249 q 668 1174 668 1204 q 647 1122 668 1144 q 594 1100 625 1100 m 247 1100 q 194 1122 217 1100 q 172 1174 172 1144 q 194 1227 172 1206 q 247 1249 217 1249 q 299 1227 278 1249 q 321 1174 321 1206 q 299 1122 321 1144 q 247 1100 278 1100 z "},"Ė":{"ha":821,"x_min":124,"x_max":711,"o":"m 124 0 l 124 972 l 708 972 l 708 847 l 260 847 l 260 558 l 664 558 l 664 436 l 260 436 l 260 125 l 711 125 l 711 0 l 124 0 m 419 1090 q 364 1115 388 1090 q 340 1171 340 1139 q 364 1227 340 1204 q 419 1250 388 1250 q 476 1227 453 1250 q 499 1171 499 1204 q 476 1115 499 1139 q 419 1090 453 1090 z "},"È":{"ha":821,"x_min":124,"x_max":711,"o":"m 124 0 l 124 972 l 708 972 l 708 847 l 260 847 l 260 558 l 664 558 l 664 436 l 260 436 l 260 125 l 711 125 l 711 0 l 124 0 m 424 1038 l 242 1222 l 401 1222 l 567 1038 l 424 1038 z "},"Ē":{"ha":821,"x_min":124,"x_max":711,"o":"m 124 0 l 124 972 l 708 972 l 708 847 l 260 847 l 260 558 l 664 558 l 664 436 l 260 436 l 260 125 l 711 125 l 711 0 l 124 0 m 203 1042 l 203 1158 l 636 1158 l 636 1042 l 203 1042 z "},"Ę":{"ha":821,"x_min":124,"x_max":744,"o":"m 124 0 l 124 972 l 708 972 l 708 847 l 260 847 l 260 558 l 664 558 l 664 436 l 260 436 l 260 125 l 711 125 l 711 0 l 124 0 m 647 -294 q 559 -279 597 -294 q 500 -233 521 -264 q 479 -158 479 -203 q 518 -65 479 -108 q 607 13 557 -22 l 711 0 q 631 -71 667 -32 q 594 -153 594 -110 q 607 -183 594 -172 q 642 -193 619 -193 q 680 -188 663 -193 q 704 -179 697 -183 l 744 -268 q 701 -287 725 -281 q 647 -294 676 -294 z "},"F":{"ha":758,"x_min":124,"x_max":713,"o":"m 124 0 l 124 972 l 713 972 l 713 847 l 260 847 l 260 542 l 654 542 l 654 417 l 260 417 l 260 0 l 124 0 z "},"G":{"ha":1050,"x_min":60,"x_max":1004,"o":"m 565 -17 q 303 48 418 -17 q 124 226 189 113 q 60 485 60 339 q 124 747 60 633 q 303 924 189 860 q 565 989 418 989 q 720 963 646 989 q 855 892 794 938 q 953 789 915 847 l 843 717 q 771 793 815 760 q 673 845 726 826 q 565 864 619 864 q 376 815 458 864 q 246 682 293 767 q 199 485 199 597 q 245 290 199 375 q 376 157 292 206 q 568 108 460 108 q 724 144 656 108 q 833 246 793 181 q 872 397 872 311 l 1004 410 q 948 185 1004 281 q 793 36 892 89 q 565 -17 694 -17 m 636 389 l 636 503 l 1004 503 l 1004 403 l 935 389 l 636 389 z "},"Ğ":{"ha":1050,"x_min":60,"x_max":1004,"o":"m 565 -17 q 303 48 418 -17 q 124 226 189 113 q 60 485 60 339 q 124 747 60 633 q 303 924 189 860 q 565 989 418 989 q 720 963 646 989 q 855 892 794 938 q 953 789 915 847 l 843 717 q 771 793 815 760 q 673 845 726 826 q 565 864 619 864 q 376 815 458 864 q 246 682 293 767 q 199 485 199 597 q 245 290 199 375 q 376 157 292 206 q 568 108 460 108 q 724 144 656 108 q 833 246 793 181 q 872 397 872 311 l 1004 410 q 948 185 1004 281 q 793 36 892 89 q 565 -17 694 -17 m 636 389 l 636 503 l 1004 503 l 1004 403 l 935 389 l 636 389 m 536 1057 q 412 1081 467 1057 q 326 1150 357 1106 q 294 1250 294 1194 l 419 1250 q 452 1184 419 1210 q 536 1158 485 1158 q 620 1184 588 1158 q 653 1250 653 1210 l 778 1250 q 747 1150 778 1194 q 663 1081 717 1106 q 536 1057 608 1057 z "},"Ĝ":{"ha":1050,"x_min":60,"x_max":1004,"o":"m 565 -17 q 303 48 418 -17 q 124 226 189 113 q 60 485 60 339 q 124 747 60 633 q 303 924 189 860 q 565 989 418 989 q 720 963 646 989 q 855 892 794 938 q 953 789 915 847 l 843 717 q 771 793 815 760 q 673 845 726 826 q 565 864 619 864 q 376 815 458 864 q 246 682 293 767 q 199 485 199 597 q 245 290 199 375 q 376 157 292 206 q 568 108 460 108 q 724 144 656 108 q 833 246 793 181 q 872 397 872 311 l 1004 410 q 948 185 1004 281 q 793 36 892 89 q 565 -17 694 -17 m 636 389 l 636 503 l 1004 503 l 1004 403 l 935 389 l 636 389 m 650 1054 l 465 1232 l 465 1238 l 617 1238 l 786 1054 l 650 1054 m 294 1054 l 464 1238 l 615 1238 l 615 1232 l 429 1054 l 294 1054 z "},"Ģ":{"ha":1050,"x_min":60,"x_max":1004,"o":"m 565 -17 q 303 48 418 -17 q 124 226 189 113 q 60 485 60 339 q 124 747 60 633 q 303 924 189 860 q 565 989 418 989 q 720 963 646 989 q 855 892 794 938 q 953 789 915 847 l 843 717 q 771 793 815 760 q 673 845 726 826 q 565 864 619 864 q 376 815 458 864 q 246 682 293 767 q 199 485 199 597 q 245 290 199 375 q 376 157 292 206 q 568 108 460 108 q 724 144 656 108 q 833 246 793 181 q 872 397 872 311 l 1004 410 q 948 185 1004 281 q 793 36 892 89 q 565 -17 694 -17 m 636 389 l 636 503 l 1004 503 l 1004 403 l 935 389 l 636 389 m 442 -278 l 506 -79 l 643 -79 l 549 -278 l 442 -278 z "},"Ġ":{"ha":1050,"x_min":60,"x_max":1004,"o":"m 565 -17 q 303 48 418 -17 q 124 226 189 113 q 60 485 60 339 q 124 747 60 633 q 303 924 189 860 q 565 989 418 989 q 720 963 646 989 q 855 892 794 938 q 953 789 915 847 l 843 717 q 771 793 815 760 q 673 845 726 826 q 565 864 619 864 q 376 815 458 864 q 246 682 293 767 q 199 485 199 597 q 245 290 199 375 q 376 157 292 206 q 568 108 460 108 q 724 144 656 108 q 833 246 793 181 q 872 397 872 311 l 1004 410 q 948 185 1004 281 q 793 36 892 89 q 565 -17 694 -17 m 636 389 l 636 503 l 1004 503 l 1004 403 l 935 389 l 636 389 m 536 1119 q 481 1144 504 1119 q 457 1200 457 1168 q 481 1256 457 1233 q 536 1279 504 1279 q 592 1256 569 1279 q 615 1200 615 1233 q 592 1144 615 1168 q 536 1119 569 1119 z "},"H":{"ha":1043,"x_min":124,"x_max":919,"o":"m 783 0 l 783 972 l 919 972 l 919 0 l 783 0 m 124 0 l 124 972 l 260 972 l 260 0 l 124 0 m 238 438 l 238 563 l 826 563 l 826 438 l 238 438 z "},"Ħ":{"ha":1043,"x_min":7,"x_max":1036,"o":"m 7 696 l 7 804 l 1036 804 l 1036 696 l 7 696 m 783 0 l 783 972 l 919 972 l 919 0 l 783 0 m 124 0 l 124 972 l 260 972 l 260 0 l 124 0 m 238 438 l 238 563 l 826 563 l 826 438 l 238 438 z "},"Ĥ":{"ha":1043,"x_min":124,"x_max":919,"o":"m 783 0 l 783 972 l 919 972 l 919 0 l 783 0 m 124 0 l 124 972 l 260 972 l 260 0 l 124 0 m 238 438 l 238 563 l 826 563 l 826 438 l 238 438 m 632 1054 l 447 1232 l 447 1238 l 599 1238 l 768 1054 l 632 1054 m 276 1054 l 446 1238 l 597 1238 l 597 1232 l 411 1054 l 276 1054 z "},"I":{"ha":383,"x_min":124,"x_max":260,"o":"m 124 0 l 124 972 l 260 972 l 260 0 l 124 0 z "},"Ĳ":{"ha":1113,"x_min":124,"x_max":1003,"o":"m 124 0 l 124 972 l 260 972 l 260 0 l 124 0 m 671 -17 q 569 0 614 -17 q 489 44 524 17 q 431 105 454 71 q 393 174 407 139 l 503 229 q 570 142 529 175 q 671 108 611 108 q 764 131 719 108 q 838 205 808 153 q 867 342 867 257 l 867 972 l 1003 972 l 1003 293 q 976 159 1003 217 q 902 62 949 101 q 796 3 856 22 q 671 -17 736 -17 z "},"Í":{"ha":383,"x_min":92,"x_max":414,"o":"m 124 0 l 124 972 l 260 972 l 260 0 l 124 0 m 92 1032 l 253 1207 l 414 1207 l 235 1032 l 92 1032 z "},"Î":{"ha":383,"x_min":-56,"x_max":435,"o":"m 124 0 l 124 972 l 260 972 l 260 0 l 124 0 m 300 1054 l 115 1232 l 115 1238 l 267 1238 l 436 1054 l 300 1054 m -56 1054 l 114 1238 l 265 1238 l 265 1232 l 79 1054 l -56 1054 z "},"Ï":{"ha":393,"x_min":22,"x_max":371,"o":"m 297 1099 q 244 1121 267 1099 q 222 1174 222 1143 q 244 1226 222 1204 q 297 1249 267 1249 q 349 1226 328 1249 q 371 1174 371 1204 q 349 1121 371 1143 q 297 1099 328 1099 m 97 1099 q 44 1121 67 1099 q 22 1174 22 1143 q 44 1226 22 1204 q 97 1249 67 1249 q 150 1226 128 1249 q 172 1174 172 1204 q 150 1121 172 1143 q 97 1099 128 1099 m 124 0 l 124 972 l 260 972 l 260 0 l 124 0 z "},"İ":{"ha":383,"x_min":113,"x_max":272,"o":"m 124 0 l 124 972 l 260 972 l 260 0 l 124 0 m 192 1090 q 136 1115 160 1090 q 113 1171 113 1139 q 136 1227 113 1204 q 192 1250 160 1250 q 248 1227 225 1250 q 271 1171 271 1204 q 248 1115 271 1139 q 192 1090 225 1090 z "},"Ì":{"ha":383,"x_min":15,"x_max":339,"o":"m 124 0 l 124 972 l 260 972 l 260 0 l 124 0 m 197 1038 l 15 1222 l 175 1222 l 340 1038 l 197 1038 z "},"Ī":{"ha":383,"x_min":-24,"x_max":408,"o":"m 124 0 l 124 972 l 260 972 l 260 0 l 124 0 m -24 1042 l -24 1158 l 410 1158 l 410 1042 l -24 1042 z "},"Į":{"ha":383,"x_min":28,"x_max":293,"o":"m 124 0 l 124 972 l 260 972 l 260 0 l 124 0 m 196 -294 q 108 -279 146 -294 q 49 -233 69 -264 q 28 -158 28 -203 q 67 -65 28 -108 q 156 13 106 -22 l 260 0 q 179 -71 215 -32 q 143 -153 143 -110 q 156 -183 143 -172 q 190 -193 168 -193 q 228 -188 211 -193 q 253 -179 246 -183 l 293 -268 q 249 -287 274 -281 q 196 -294 225 -294 z "},"J":{"ha":729,"x_min":10,"x_max":619,"o":"m 288 -17 q 185 0 231 -17 q 106 44 140 17 q 47 105 71 71 q 10 174 24 139 l 119 229 q 187 142 146 175 q 288 108 228 108 q 381 131 336 108 q 454 205 425 153 q 483 342 483 257 l 483 972 l 619 972 l 619 293 q 592 159 619 217 q 519 62 565 101 q 413 3 472 22 q 288 -17 353 -17 z "},"Ĵ":{"ha":729,"x_min":10,"x_max":789,"o":"m 288 -17 q 185 0 231 -17 q 106 44 140 17 q 47 105 71 71 q 10 174 24 139 l 119 229 q 187 142 146 175 q 288 108 228 108 q 381 131 336 108 q 454 205 425 153 q 483 342 483 257 l 483 972 l 619 972 l 619 293 q 592 159 619 217 q 519 62 565 101 q 413 3 472 22 q 288 -17 353 -17 m 653 1054 l 468 1232 l 468 1238 l 619 1238 l 789 1054 l 653 1054 m 297 1054 l 467 1238 l 618 1238 l 618 1232 l 432 1054 l 297 1054 z "},"K":{"ha":868,"x_min":124,"x_max":860,"o":"m 213 308 l 172 453 l 668 972 l 842 972 l 213 308 m 124 0 l 124 972 l 256 972 l 256 0 l 124 0 m 692 0 l 296 494 l 389 581 l 860 0 l 692 0 z "},"Ķ":{"ha":868,"x_min":124,"x_max":860,"o":"m 213 308 l 172 453 l 668 972 l 842 972 l 213 308 m 124 0 l 124 972 l 256 972 l 256 0 l 124 0 m 692 0 l 296 494 l 389 581 l 860 0 l 692 0 m 311 -278 l 375 -79 l 513 -79 l 418 -278 l 311 -278 z "},"L":{"ha":728,"x_min":124,"x_max":711,"o":"m 124 0 l 124 972 l 260 972 l 260 125 l 711 125 l 711 0 l 124 0 z "},"Ĺ":{"ha":728,"x_min":90,"x_max":711,"o":"m 124 0 l 124 972 l 260 972 l 260 125 l 711 125 l 711 0 l 124 0 m 90 1038 l 253 1221 l 413 1221 l 233 1038 l 90 1038 z "},"Ľ":{"ha":728,"x_min":124,"x_max":711,"o":"m 124 0 l 124 972 l 260 972 l 260 125 l 711 125 l 711 0 l 124 0 m 333 824 l 397 1053 l 526 1053 l 440 824 l 333 824 z "},"Ļ":{"ha":728,"x_min":124,"x_max":711,"o":"m 124 0 l 124 972 l 260 972 l 260 125 l 711 125 l 711 0 l 124 0 m 272 -278 l 336 -79 l 474 -79 l 379 -278 l 272 -278 z "},"Ł":{"ha":728,"x_min":4,"x_max":711,"o":"m 4 351 l 4 468 l 413 663 l 413 546 l 4 351 m 124 0 l 124 972 l 260 972 l 260 125 l 711 125 l 711 0 l 124 0 z "},"M":{"ha":1179,"x_min":124,"x_max":1056,"o":"m 124 0 l 124 972 l 268 972 l 590 496 l 911 972 l 1056 972 l 1056 0 l 919 0 l 919 753 l 589 265 l 260 751 l 260 0 l 124 0 z "},"N":{"ha":1075,"x_min":124,"x_max":951,"o":"m 124 0 l 124 972 l 264 972 l 814 228 l 814 972 l 951 972 l 951 0 l 814 0 l 260 751 l 260 0 l 124 0 z "},"Ń":{"ha":1075,"x_min":124,"x_max":951,"o":"m 124 0 l 124 972 l 264 972 l 814 228 l 814 972 l 951 972 l 951 0 l 814 0 l 260 751 l 260 0 l 124 0 m 431 1029 l 593 1213 l 753 1213 l 574 1029 l 431 1029 z "},"Ň":{"ha":1075,"x_min":124,"x_max":951,"o":"m 124 0 l 124 972 l 264 972 l 814 228 l 814 972 l 951 972 l 951 0 l 814 0 l 260 751 l 260 0 l 124 0 m 463 1029 l 463 1032 l 638 1213 l 775 1213 l 606 1029 l 463 1029 m 453 1029 l 283 1213 l 421 1213 l 596 1032 l 596 1029 l 453 1029 z "},"Ņ":{"ha":1075,"x_min":124,"x_max":951,"o":"m 124 0 l 124 972 l 264 972 l 814 228 l 814 972 l 951 972 l 951 0 l 814 0 l 260 751 l 260 0 l 124 0 m 415 -278 l 479 -79 l 617 -79 l 522 -278 l 415 -278 z "},"Ñ":{"ha":1075,"x_min":124,"x_max":951,"o":"m 124 0 l 124 972 l 264 972 l 814 228 l 814 972 l 951 972 l 951 0 l 814 0 l 260 751 l 260 0 l 124 0 m 644 1019 q 577 1035 603 1019 q 536 1069 551 1050 q 507 1104 521 1089 q 474 1119 493 1119 q 441 1108 453 1119 q 422 1068 429 1097 l 324 1068 q 347 1144 328 1110 q 397 1197 365 1178 q 472 1217 429 1217 q 538 1201 513 1217 q 579 1167 563 1186 q 610 1132 596 1147 q 644 1117 625 1117 q 678 1131 668 1117 q 693 1171 689 1146 l 792 1171 q 747 1064 783 1108 q 644 1019 711 1019 z "},"Ŋ":{"ha":1075,"x_min":124,"x_max":951,"o":"m 731 -296 q 593 -258 671 -296 l 644 -149 q 696 -167 674 -161 q 732 -174 718 -174 q 818 -62 818 -174 l 818 499 l 951 499 l 951 -68 q 895 -237 951 -179 q 731 -296 839 -296 m 124 0 l 124 972 l 264 972 l 814 228 l 814 972 l 951 972 l 951 0 l 814 0 l 260 751 l 260 0 l 124 0 z "},"O":{"ha":1082,"x_min":60,"x_max":1022,"o":"m 544 -17 q 293 47 403 -17 q 122 225 183 111 q 60 486 60 339 q 122 747 60 633 q 292 924 183 860 q 542 989 400 989 q 792 924 683 989 q 961 747 900 860 q 1022 486 1022 633 q 961 225 1022 339 q 792 47 900 111 q 544 -17 685 -17 m 544 108 q 721 157 644 108 q 840 290 797 206 q 883 486 883 375 q 840 681 883 596 q 719 815 796 767 q 542 864 642 864 q 364 815 442 864 q 242 681 286 767 q 199 486 199 596 q 243 290 199 375 q 366 157 288 206 q 544 108 444 108 z "},"Ó":{"ha":1082,"x_min":60,"x_max":1022,"o":"m 544 -17 q 293 47 403 -17 q 122 225 183 111 q 60 486 60 339 q 122 747 60 633 q 292 924 183 860 q 542 989 400 989 q 792 924 683 989 q 961 747 900 860 q 1022 486 1022 633 q 961 225 1022 339 q 792 47 900 111 q 544 -17 685 -17 m 544 108 q 721 157 644 108 q 840 290 797 206 q 883 486 883 375 q 840 681 883 596 q 719 815 796 767 q 542 864 642 864 q 364 815 442 864 q 242 681 286 767 q 199 486 199 596 q 243 290 199 375 q 366 157 288 206 q 544 108 444 108 m 438 1032 l 606 1207 l 769 1207 l 585 1032 l 438 1032 z "},"Ô":{"ha":1082,"x_min":60,"x_max":1022,"o":"m 544 -17 q 293 47 403 -17 q 122 225 183 111 q 60 486 60 339 q 122 747 60 633 q 292 924 183 860 q 542 989 400 989 q 792 924 683 989 q 961 747 900 860 q 1022 486 1022 633 q 961 225 1022 339 q 792 47 900 111 q 544 -17 685 -17 m 544 108 q 721 157 644 108 q 840 290 797 206 q 883 486 883 375 q 840 681 883 596 q 719 815 796 767 q 542 864 642 864 q 364 815 442 864 q 242 681 286 767 q 199 486 199 596 q 243 290 199 375 q 366 157 288 206 q 544 108 444 108 m 649 1054 l 464 1232 l 464 1238 l 615 1238 l 785 1054 l 649 1054 m 293 1054 l 463 1238 l 614 1238 l 614 1232 l 428 1054 l 293 1054 z "},"Ö":{"ha":1082,"x_min":60,"x_max":1022,"o":"m 544 -17 q 293 47 403 -17 q 122 225 183 111 q 60 486 60 339 q 122 747 60 633 q 292 924 183 860 q 542 989 400 989 q 792 924 683 989 q 961 747 900 860 q 1022 486 1022 633 q 961 225 1022 339 q 792 47 900 111 q 544 -17 685 -17 m 544 108 q 721 157 644 108 q 840 290 797 206 q 883 486 883 375 q 840 681 883 596 q 719 815 796 767 q 542 864 642 864 q 364 815 442 864 q 242 681 286 767 q 199 486 199 596 q 243 290 199 375 q 366 157 288 206 q 544 108 444 108 m 715 1100 q 663 1122 685 1100 q 640 1174 640 1144 q 663 1226 640 1204 q 715 1249 685 1249 q 767 1226 746 1249 q 789 1174 789 1204 q 767 1122 789 1144 q 715 1100 746 1100 m 368 1100 q 315 1122 338 1100 q 293 1174 293 1144 q 315 1227 293 1206 q 368 1249 338 1249 q 420 1227 399 1249 q 442 1174 442 1206 q 420 1122 442 1144 q 368 1100 399 1100 z "},"Ò":{"ha":1082,"x_min":60,"x_max":1022,"o":"m 544 -17 q 293 47 403 -17 q 122 225 183 111 q 60 486 60 339 q 122 747 60 633 q 292 924 183 860 q 542 989 400 989 q 792 924 683 989 q 961 747 900 860 q 1022 486 1022 633 q 961 225 1022 339 q 792 47 900 111 q 544 -17 685 -17 m 544 108 q 721 157 644 108 q 840 290 797 206 q 883 486 883 375 q 840 681 883 596 q 719 815 796 767 q 542 864 642 864 q 364 815 442 864 q 242 681 286 767 q 199 486 199 596 q 243 290 199 375 q 366 157 288 206 q 544 108 444 108 m 546 1038 l 364 1222 l 524 1222 l 689 1038 l 546 1038 z "},"Ő":{"ha":1082,"x_min":60,"x_max":1022,"o":"m 544 -17 q 293 47 403 -17 q 122 225 183 111 q 60 486 60 339 q 122 747 60 633 q 292 924 183 860 q 542 989 400 989 q 792 924 683 989 q 961 747 900 860 q 1022 486 1022 633 q 961 225 1022 339 q 792 47 900 111 q 544 -17 685 -17 m 544 108 q 721 157 644 108 q 840 290 797 206 q 883 486 883 375 q 840 681 883 596 q 719 815 796 767 q 542 864 642 864 q 364 815 442 864 q 242 681 286 767 q 199 486 199 596 q 243 290 199 375 q 366 157 288 206 q 544 108 444 108 m 586 1038 l 725 1221 l 881 1221 l 725 1038 l 586 1038 m 326 1038 l 463 1221 l 619 1221 l 464 1038 l 326 1038 z "},"Ō":{"ha":1082,"x_min":60,"x_max":1022,"o":"m 544 -17 q 293 47 403 -17 q 122 225 183 111 q 60 486 60 339 q 122 747 60 633 q 292 924 183 860 q 542 989 400 989 q 792 924 683 989 q 961 747 900 860 q 1022 486 1022 633 q 961 225 1022 339 q 792 47 900 111 q 544 -17 685 -17 m 544 108 q 721 157 644 108 q 840 290 797 206 q 883 486 883 375 q 840 681 883 596 q 719 815 796 767 q 542 864 642 864 q 364 815 442 864 q 242 681 286 767 q 199 486 199 596 q 243 290 199 375 q 366 157 288 206 q 544 108 444 108 m 278 1042 l 278 1158 l 803 1158 l 803 1042 l 278 1042 z "},"Ø":{"ha":1090,"x_min":53,"x_max":1038,"o":"m 53 0 l 900 972 l 1038 972 l 190 0 l 53 0 m 547 -17 q 297 47 406 -17 q 125 225 188 111 q 63 486 63 339 q 124 747 63 633 q 294 924 186 860 q 544 989 403 989 q 794 924 686 989 q 964 747 903 860 q 1025 486 1025 633 q 965 225 1025 339 q 797 47 904 111 q 547 -17 689 -17 m 547 108 q 724 157 647 108 q 843 290 800 206 q 886 486 886 375 q 842 681 886 596 q 722 815 799 767 q 544 864 644 864 q 367 815 444 864 q 246 681 290 767 q 201 486 201 596 q 246 290 201 375 q 369 157 290 206 q 547 108 447 108 z "},"Õ":{"ha":1082,"x_min":60,"x_max":1022,"o":"m 544 -17 q 293 47 403 -17 q 122 225 183 111 q 60 486 60 339 q 122 747 60 633 q 292 924 183 860 q 542 989 400 989 q 792 924 683 989 q 961 747 900 860 q 1022 486 1022 633 q 961 225 1022 339 q 792 47 900 111 q 544 -17 685 -17 m 544 108 q 721 157 644 108 q 840 290 797 206 q 883 486 883 375 q 840 681 883 596 q 719 815 796 767 q 542 864 642 864 q 364 815 442 864 q 242 681 286 767 q 199 486 199 596 q 243 290 199 375 q 366 157 288 206 q 544 108 444 108 m 654 1028 q 587 1043 613 1028 q 546 1078 561 1058 q 517 1113 531 1097 q 483 1128 503 1128 q 451 1117 463 1128 q 432 1076 439 1106 l 333 1076 q 356 1152 338 1118 q 407 1206 375 1186 q 482 1225 439 1225 q 547 1210 522 1225 q 589 1175 572 1194 q 620 1140 606 1156 q 654 1125 635 1125 q 688 1140 678 1125 q 703 1179 699 1154 l 801 1179 q 757 1072 793 1117 q 654 1028 721 1028 z "},"Œ":{"ha":1565,"x_min":60,"x_max":1457,"o":"m 544 -21 q 293 44 403 -21 q 122 223 183 108 q 60 486 60 338 q 122 749 60 635 q 292 928 183 864 q 540 993 400 993 q 771 933 671 993 q 927 759 871 872 q 983 488 983 646 q 927 215 983 329 q 772 40 871 101 q 544 -21 674 -21 m 544 107 q 713 151 640 107 q 827 281 786 196 q 868 486 868 365 q 826 692 868 607 q 710 821 785 776 q 542 865 636 865 q 365 817 442 865 q 244 683 288 768 q 200 486 200 597 q 244 290 200 375 q 366 156 288 204 q 544 107 444 107 m 868 0 l 868 972 l 1454 972 l 1454 847 l 1006 847 l 1006 558 l 1408 558 l 1408 436 l 1006 436 l 1006 125 l 1457 125 l 1457 0 l 868 0 z "},"P":{"ha":814,"x_min":124,"x_max":782,"o":"m 124 0 l 124 972 l 451 972 q 623 933 549 972 q 740 823 697 893 q 782 660 782 753 q 743 499 782 569 q 635 388 704 428 q 478 347 567 347 l 260 347 l 260 0 l 124 0 m 260 474 l 476 474 q 597 526 550 474 q 644 660 644 578 q 590 796 644 744 q 450 847 535 847 l 260 847 l 260 474 z "},"Þ":{"ha":822,"x_min":126,"x_max":788,"o":"m 256 188 l 256 314 l 481 314 q 601 366 554 314 q 647 501 647 418 q 593 636 647 585 q 453 688 539 688 l 256 688 l 256 813 l 457 813 q 629 773 554 813 q 746 663 704 733 q 788 501 788 593 q 749 339 788 410 q 642 228 710 268 q 485 188 574 188 l 256 188 m 126 1 l 126 974 l 267 974 l 267 1 l 126 1 z "},"Q":{"ha":1086,"x_min":60,"x_max":1022,"o":"m 544 -17 q 293 47 403 -17 q 122 225 183 111 q 60 486 60 339 q 95 689 60 597 q 194 848 131 781 q 347 952 258 915 q 540 989 435 989 q 791 924 682 989 q 961 747 900 860 q 1022 486 1022 633 q 961 225 1022 339 q 792 47 900 111 q 544 -17 685 -17 m 933 -56 l 583 299 l 672 385 l 1021 32 l 933 -56 m 544 108 q 721 157 644 108 q 840 290 797 206 q 883 486 883 375 q 840 681 883 596 q 719 815 796 767 q 542 864 642 864 q 364 815 442 864 q 242 681 286 767 q 199 486 199 596 q 243 290 199 375 q 366 157 288 206 q 544 108 444 108 z "},"R":{"ha":876,"x_min":124,"x_max":821,"o":"m 124 0 l 124 972 l 451 972 q 623 934 549 972 q 740 828 697 896 q 782 672 782 761 q 737 517 782 585 q 614 410 692 449 q 439 372 536 372 l 260 372 l 260 0 l 124 0 m 667 0 l 436 397 l 544 469 l 821 0 l 667 0 m 260 497 l 464 497 q 553 520 514 497 q 617 583 593 543 q 642 672 642 622 q 588 799 642 750 q 447 847 533 847 l 260 847 l 260 497 z "},"Ŕ":{"ha":876,"x_min":124,"x_max":821,"o":"m 124 0 l 124 972 l 451 972 q 623 934 549 972 q 740 828 697 896 q 782 672 782 761 q 737 517 782 585 q 614 410 692 449 q 439 372 536 372 l 260 372 l 260 0 l 124 0 m 667 0 l 436 397 l 544 469 l 821 0 l 667 0 m 260 497 l 464 497 q 553 520 514 497 q 617 583 593 543 q 642 672 642 622 q 588 799 642 750 q 447 847 533 847 l 260 847 l 260 497 m 304 1038 l 467 1221 l 626 1221 l 447 1038 l 304 1038 z "},"Ř":{"ha":876,"x_min":124,"x_max":821,"o":"m 124 0 l 124 972 l 451 972 q 623 934 549 972 q 740 828 697 896 q 782 672 782 761 q 737 517 782 585 q 614 410 692 449 q 439 372 536 372 l 260 372 l 260 0 l 124 0 m 667 0 l 436 397 l 544 469 l 821 0 l 667 0 m 260 497 l 464 497 q 553 520 514 497 q 617 583 593 543 q 642 672 642 622 q 588 799 642 750 q 447 847 533 847 l 260 847 l 260 497 m 336 1038 l 336 1040 l 511 1221 l 649 1221 l 479 1038 l 336 1038 m 326 1038 l 157 1221 l 294 1221 l 469 1040 l 469 1038 l 326 1038 z "},"Ŗ":{"ha":876,"x_min":124,"x_max":821,"o":"m 124 0 l 124 972 l 451 972 q 623 934 549 972 q 740 828 697 896 q 782 672 782 761 q 737 517 782 585 q 614 410 692 449 q 439 372 536 372 l 260 372 l 260 0 l 124 0 m 667 0 l 436 397 l 544 469 l 821 0 l 667 0 m 260 497 l 464 497 q 553 520 514 497 q 617 583 593 543 q 642 672 642 622 q 588 799 642 750 q 447 847 533 847 l 260 847 l 260 497 m 315 -278 l 379 -79 l 517 -79 l 422 -278 l 315 -278 z "},"S":{"ha":850,"x_min":67,"x_max":783,"o":"m 438 -17 q 297 1 360 -17 q 187 51 233 19 q 110 121 140 82 q 67 203 79 160 l 199 246 q 278 147 219 189 q 421 104 336 106 q 583 145 524 104 q 642 254 642 186 q 590 356 642 317 q 454 417 539 396 l 342 446 q 220 497 275 464 q 133 582 165 531 q 101 706 101 633 q 188 914 101 839 q 439 989 275 989 q 603 959 533 989 q 717 881 672 929 q 782 774 763 832 l 650 729 q 569 830 626 792 q 429 868 513 868 q 291 826 342 868 q 240 713 240 785 q 280 619 240 651 q 386 569 319 586 l 499 542 q 709 431 635 508 q 783 263 783 354 q 744 120 783 183 q 627 20 704 57 q 438 -17 550 -17 z "},"Ś":{"ha":850,"x_min":67,"x_max":783,"o":"m 438 -17 q 297 1 360 -17 q 187 51 233 19 q 110 121 140 82 q 67 203 79 160 l 199 246 q 278 147 219 189 q 421 104 336 106 q 583 145 524 104 q 642 254 642 186 q 590 356 642 317 q 454 417 539 396 l 342 446 q 220 497 275 464 q 133 582 165 531 q 101 706 101 633 q 188 914 101 839 q 439 989 275 989 q 603 959 533 989 q 717 881 672 929 q 782 774 763 832 l 650 729 q 569 830 626 792 q 429 868 513 868 q 291 826 342 868 q 240 713 240 785 q 280 619 240 651 q 386 569 319 586 l 499 542 q 709 431 635 508 q 783 263 783 354 q 744 120 783 183 q 627 20 704 57 q 438 -17 550 -17 m 338 1038 l 500 1221 l 660 1221 l 481 1038 l 338 1038 z "},"Š":{"ha":850,"x_min":67,"x_max":783,"o":"m 438 -17 q 297 1 360 -17 q 187 51 233 19 q 110 121 140 82 q 67 203 79 160 l 199 246 q 278 147 219 189 q 421 104 336 106 q 583 145 524 104 q 642 254 642 186 q 590 356 642 317 q 454 417 539 396 l 342 446 q 220 497 275 464 q 133 582 165 531 q 101 706 101 633 q 188 914 101 839 q 439 989 275 989 q 603 959 533 989 q 717 881 672 929 q 782 774 763 832 l 650 729 q 569 830 626 792 q 429 868 513 868 q 291 826 342 868 q 240 713 240 785 q 280 619 240 651 q 386 569 319 586 l 499 542 q 709 431 635 508 q 783 263 783 354 q 744 120 783 183 q 627 20 704 57 q 438 -17 550 -17 m 369 1038 l 369 1040 l 544 1221 l 682 1221 l 513 1038 l 369 1038 m 360 1038 l 190 1221 l 328 1221 l 503 1040 l 503 1038 l 360 1038 z "},"Ş":{"ha":850,"x_min":67,"x_max":783,"o":"m 438 -17 q 297 1 360 -17 q 187 51 233 19 q 110 121 140 82 q 67 203 79 160 l 199 246 q 278 147 219 189 q 421 104 336 106 q 583 145 524 104 q 642 254 642 186 q 590 356 642 317 q 454 417 539 396 l 342 446 q 220 497 275 464 q 133 582 165 531 q 101 706 101 633 q 188 914 101 839 q 439 989 275 989 q 603 959 533 989 q 717 881 672 929 q 782 774 763 832 l 650 729 q 569 830 626 792 q 429 868 513 868 q 291 826 342 868 q 240 713 240 785 q 280 619 240 651 q 386 569 319 586 l 499 542 q 709 431 635 508 q 783 263 783 354 q 744 120 783 183 q 627 20 704 57 q 438 -17 550 -17 m 389 -292 q 329 -284 361 -292 q 257 -254 297 -276 l 283 -181 q 328 -201 306 -192 q 369 -210 351 -210 q 414 -200 394 -210 q 433 -162 433 -190 q 408 -113 433 -129 q 332 -90 383 -97 l 372 8 l 456 -6 l 439 -43 q 512 -93 490 -61 q 533 -162 533 -125 q 499 -255 533 -218 q 389 -292 464 -292 z "},"Ŝ":{"ha":850,"x_min":67,"x_max":783,"o":"m 438 -17 q 297 1 360 -17 q 187 51 233 19 q 110 121 140 82 q 67 203 79 160 l 199 246 q 278 147 219 189 q 421 104 336 106 q 583 145 524 104 q 642 254 642 186 q 590 356 642 317 q 454 417 539 396 l 342 446 q 220 497 275 464 q 133 582 165 531 q 101 706 101 633 q 188 914 101 839 q 439 989 275 989 q 603 959 533 989 q 717 881 672 929 q 782 774 763 832 l 650 729 q 569 830 626 792 q 429 868 513 868 q 291 826 342 868 q 240 713 240 785 q 280 619 240 651 q 386 569 319 586 l 499 542 q 709 431 635 508 q 783 263 783 354 q 744 120 783 183 q 627 20 704 57 q 438 -17 550 -17 m 546 1054 l 361 1232 l 361 1238 l 513 1238 l 682 1054 l 546 1054 m 190 1054 l 360 1238 l 511 1238 l 511 1232 l 325 1054 l 190 1054 z "},"Ș":{"ha":850,"x_min":67,"x_max":783,"o":"m 438 -17 q 297 1 360 -17 q 187 51 233 19 q 110 121 140 82 q 67 203 79 160 l 199 246 q 278 147 219 189 q 421 104 336 106 q 583 145 524 104 q 642 254 642 186 q 590 356 642 317 q 454 417 539 396 l 342 446 q 220 497 275 464 q 133 582 165 531 q 101 706 101 633 q 188 914 101 839 q 439 989 275 989 q 603 959 533 989 q 717 881 672 929 q 782 774 763 832 l 650 729 q 569 830 626 792 q 429 868 513 868 q 291 826 342 868 q 240 713 240 785 q 280 619 240 651 q 386 569 319 586 l 499 542 q 709 431 635 508 q 783 263 783 354 q 744 120 783 183 q 627 20 704 57 q 438 -17 550 -17 m 314 -278 l 378 -79 l 515 -79 l 421 -278 l 314 -278 z "},"ẞ":{"ha":826,"x_min":124,"x_max":767,"o":"m 472 -17 q 400 -5 446 -17 q 315 42 354 7 l 372 150 q 408 126 383 142 q 474 111 432 111 q 590 155 550 111 q 631 275 631 199 q 587 390 631 349 q 457 431 543 431 l 372 431 l 372 542 l 590 800 q 520 846 563 826 q 413 865 478 865 q 300 826 338 865 q 263 718 263 788 l 263 0 l 124 0 l 124 751 q 199 926 124 864 q 424 989 275 989 q 581 961 515 989 q 692 894 647 933 q 765 821 738 854 l 525 529 q 704 447 642 517 q 767 261 767 378 q 692 57 767 131 q 472 -17 617 -17 z "},"T":{"ha":779,"x_min":17,"x_max":763,"o":"m 321 0 l 321 847 l 17 847 l 17 972 l 763 972 l 763 847 l 458 847 l 458 0 l 321 0 z "},"Ť":{"ha":779,"x_min":17,"x_max":763,"o":"m 321 0 l 321 847 l 17 847 l 17 972 l 763 972 l 763 847 l 458 847 l 458 0 l 321 0 m 321 1038 l 321 1040 l 496 1221 l 633 1221 l 464 1038 l 321 1038 m 311 1038 l 142 1221 l 279 1221 l 454 1040 l 454 1038 l 311 1038 z "},"Ț":{"ha":779,"x_min":17,"x_max":763,"o":"m 321 0 l 321 847 l 17 847 l 17 972 l 763 972 l 763 847 l 458 847 l 458 0 l 321 0 m 267 -278 l 331 -79 l 468 -79 l 374 -278 l 267 -278 z "},"U":{"ha":981,"x_min":110,"x_max":872,"o":"m 488 -21 q 290 26 375 -21 q 157 156 204 72 q 110 350 110 240 l 110 972 l 246 972 l 246 350 q 277 222 246 278 q 363 136 308 167 q 490 106 418 106 q 618 136 563 106 q 704 222 674 167 q 735 350 735 278 l 735 972 l 872 972 l 872 350 q 824 156 872 240 q 690 26 776 72 q 488 -21 603 -21 z "},"Ú":{"ha":985,"x_min":110,"x_max":872,"o":"m 488 -21 q 290 26 375 -21 q 157 156 204 72 q 110 350 110 240 l 110 972 l 246 972 l 246 350 q 277 222 246 278 q 363 136 308 167 q 490 106 418 106 q 618 136 563 106 q 704 222 674 167 q 735 350 735 278 l 735 972 l 872 972 l 872 350 q 824 156 872 240 q 690 26 776 72 q 488 -21 603 -21 m 415 1025 l 578 1208 l 738 1208 l 558 1025 l 415 1025 z "},"Ŭ":{"ha":981,"x_min":110,"x_max":872,"o":"m 488 -21 q 290 26 375 -21 q 157 156 204 72 q 110 350 110 240 l 110 972 l 246 972 l 246 350 q 277 222 246 278 q 363 136 308 167 q 490 106 418 106 q 618 136 563 106 q 704 222 674 167 q 735 350 735 278 l 735 972 l 872 972 l 872 350 q 824 156 872 240 q 690 26 776 72 q 488 -21 603 -21 m 490 1028 q 366 1052 421 1028 q 280 1121 311 1076 q 249 1221 249 1165 l 374 1221 q 406 1155 374 1181 q 490 1129 439 1129 q 574 1155 542 1129 q 607 1221 607 1181 l 732 1221 q 701 1121 732 1165 q 617 1052 671 1076 q 490 1028 563 1028 z "},"Û":{"ha":981,"x_min":110,"x_max":872,"o":"m 488 -21 q 290 26 375 -21 q 157 156 204 72 q 110 350 110 240 l 110 972 l 246 972 l 246 350 q 277 222 246 278 q 363 136 308 167 q 490 106 418 106 q 618 136 563 106 q 704 222 674 167 q 735 350 735 278 l 735 972 l 872 972 l 872 350 q 824 156 872 240 q 690 26 776 72 q 488 -21 603 -21 m 599 1054 l 414 1232 l 414 1238 l 565 1238 l 735 1054 l 599 1054 m 243 1054 l 413 1238 l 564 1238 l 564 1232 l 378 1054 l 243 1054 z "},"Ü":{"ha":981,"x_min":110,"x_max":872,"o":"m 488 -21 q 290 26 375 -21 q 157 156 204 72 q 110 350 110 240 l 110 972 l 246 972 l 246 350 q 277 222 246 278 q 363 136 308 167 q 490 106 418 106 q 618 136 563 106 q 704 222 674 167 q 735 350 735 278 l 735 972 l 872 972 l 872 350 q 824 156 872 240 q 690 26 776 72 q 488 -21 603 -21 m 665 1100 q 613 1122 635 1100 q 590 1174 590 1144 q 613 1226 590 1204 q 665 1249 635 1249 q 717 1226 696 1249 q 739 1174 739 1204 q 717 1122 739 1144 q 665 1100 696 1100 m 318 1100 q 265 1122 288 1100 q 243 1174 243 1144 q 265 1227 243 1206 q 318 1249 288 1249 q 370 1227 349 1249 q 392 1174 392 1206 q 370 1122 392 1144 q 318 1100 349 1100 z "},"Ù":{"ha":981,"x_min":110,"x_max":872,"o":"m 488 -21 q 290 26 375 -21 q 157 156 204 72 q 110 350 110 240 l 110 972 l 246 972 l 246 350 q 277 222 246 278 q 363 136 308 167 q 490 106 418 106 q 618 136 563 106 q 704 222 674 167 q 735 350 735 278 l 735 972 l 872 972 l 872 350 q 824 156 872 240 q 690 26 776 72 q 488 -21 603 -21 m 496 1038 l 314 1222 l 474 1222 l 639 1038 l 496 1038 z "},"Ű":{"ha":981,"x_min":110,"x_max":872,"o":"m 488 -21 q 290 26 375 -21 q 157 156 204 72 q 110 350 110 240 l 110 972 l 246 972 l 246 350 q 277 222 246 278 q 363 136 308 167 q 490 106 418 106 q 618 136 563 106 q 704 222 674 167 q 735 350 735 278 l 735 972 l 872 972 l 872 350 q 824 156 872 240 q 690 26 776 72 q 488 -21 603 -21 m 536 1038 l 675 1221 l 831 1221 l 675 1038 l 536 1038 m 276 1038 l 413 1221 l 569 1221 l 414 1038 l 276 1038 z "},"Ū":{"ha":981,"x_min":110,"x_max":872,"o":"m 488 -21 q 290 26 375 -21 q 157 156 204 72 q 110 350 110 240 l 110 972 l 246 972 l 246 350 q 277 222 246 278 q 363 136 308 167 q 490 106 418 106 q 618 136 563 106 q 704 222 674 167 q 735 350 735 278 l 735 972 l 872 972 l 872 350 q 824 156 872 240 q 690 26 776 72 q 488 -21 603 -21 m 275 1042 l 275 1158 l 708 1158 l 708 1042 l 275 1042 z "},"Ų":{"ha":981,"x_min":110,"x_max":872,"o":"m 488 -21 q 290 26 375 -21 q 157 156 204 72 q 110 350 110 240 l 110 972 l 246 972 l 246 350 q 277 222 246 278 q 363 136 308 167 q 490 106 418 106 q 618 136 563 106 q 704 222 674 167 q 735 350 735 278 l 735 972 l 872 972 l 872 350 q 824 156 872 240 q 690 26 776 72 q 488 -21 603 -21 m 739 -278 q 641 -262 683 -278 q 575 -219 599 -247 q 551 -149 551 -190 q 574 -63 551 -103 q 636 11 596 -24 q 729 74 676 46 l 757 74 q 700 10 721 42 q 671 -53 679 -22 q 663 -114 663 -85 q 680 -160 663 -143 q 726 -178 697 -178 q 771 -174 750 -178 q 808 -164 792 -169 l 847 -251 q 796 -272 824 -265 q 739 -278 768 -278 z "},"Ů":{"ha":981,"x_min":110,"x_max":872,"o":"m 488 -21 q 290 26 375 -21 q 157 156 204 72 q 110 350 110 240 l 110 972 l 246 972 l 246 350 q 277 222 246 278 q 363 136 308 167 q 490 106 418 106 q 618 136 563 106 q 704 222 674 167 q 735 350 735 278 l 735 972 l 872 972 l 872 350 q 824 156 872 240 q 690 26 776 72 q 488 -21 603 -21 m 490 1014 q 420 1033 453 1014 q 368 1082 388 1051 q 349 1150 349 1113 q 368 1219 349 1189 q 420 1269 388 1250 q 490 1288 453 1288 q 562 1269 529 1288 q 613 1219 594 1250 q 632 1150 632 1189 q 613 1082 632 1113 q 562 1033 594 1051 q 490 1014 529 1014 m 490 1099 q 540 1150 540 1099 q 490 1203 540 1203 q 440 1150 440 1203 q 490 1099 440 1099 z "},"V":{"ha":974,"x_min":13,"x_max":961,"o":"m 425 0 l 815 972 l 961 972 l 563 0 l 425 0 m 411 0 l 13 972 l 158 972 l 547 0 l 411 0 z "},"W":{"ha":1343,"x_min":13,"x_max":1329,"o":"m 897 0 l 1192 972 l 1329 972 l 1031 0 l 897 0 m 307 0 l 13 972 l 151 972 l 440 0 l 307 0 m 322 0 l 603 972 l 732 972 l 453 0 l 322 0 m 885 0 l 611 972 l 740 972 l 1019 0 l 885 0 z "},"Ẃ":{"ha":1343,"x_min":13,"x_max":1329,"o":"m 897 0 l 1192 972 l 1329 972 l 1031 0 l 897 0 m 307 0 l 13 972 l 151 972 l 440 0 l 307 0 m 322 0 l 603 972 l 732 972 l 453 0 l 322 0 m 885 0 l 611 972 l 740 972 l 1019 0 l 885 0 m 569 1025 l 732 1208 l 892 1208 l 713 1025 l 569 1025 z "},"Ŵ":{"ha":1343,"x_min":13,"x_max":1329,"o":"m 897 0 l 1192 972 l 1329 972 l 1031 0 l 897 0 m 307 0 l 13 972 l 151 972 l 440 0 l 307 0 m 322 0 l 603 972 l 732 972 l 453 0 l 322 0 m 885 0 l 611 972 l 740 972 l 1019 0 l 885 0 m 778 1042 l 593 1219 l 593 1225 l 744 1225 l 914 1042 l 778 1042 m 422 1042 l 592 1225 l 743 1225 l 743 1219 l 557 1042 l 422 1042 z "},"Ẅ":{"ha":1343,"x_min":13,"x_max":1329,"o":"m 897 0 l 1192 972 l 1329 972 l 1031 0 l 897 0 m 307 0 l 13 972 l 151 972 l 440 0 l 307 0 m 322 0 l 603 972 l 732 972 l 453 0 l 322 0 m 885 0 l 611 972 l 740 972 l 1019 0 l 885 0 m 844 1088 q 792 1110 814 1088 q 769 1161 769 1132 q 792 1214 769 1192 q 844 1236 814 1236 q 897 1214 875 1236 q 918 1161 918 1192 q 897 1110 918 1132 q 844 1088 875 1088 m 497 1088 q 444 1110 467 1088 q 422 1161 422 1132 q 444 1215 422 1193 q 497 1236 467 1236 q 549 1215 528 1236 q 571 1161 571 1193 q 549 1110 571 1132 q 497 1088 528 1088 z "},"Ẁ":{"ha":1343,"x_min":13,"x_max":1329,"o":"m 897 0 l 1192 972 l 1329 972 l 1031 0 l 897 0 m 307 0 l 13 972 l 151 972 l 440 0 l 307 0 m 322 0 l 603 972 l 732 972 l 453 0 l 322 0 m 885 0 l 611 972 l 740 972 l 1019 0 l 885 0 m 675 1025 l 493 1210 l 653 1210 l 818 1025 l 675 1025 z "},"X":{"ha":878,"x_min":14,"x_max":864,"o":"m 14 0 l 390 533 l 697 972 l 861 972 l 492 463 l 181 0 l 14 0 m 697 0 l 386 463 l 17 972 l 181 972 l 489 533 l 864 0 l 697 0 z "},"Y":{"ha":856,"x_min":13,"x_max":844,"o":"m 494 404 l 371 451 l 686 972 l 844 972 l 494 404 m 360 0 l 360 467 l 497 467 l 497 0 l 360 0 m 363 404 l 13 972 l 169 972 l 485 451 l 363 404 z "},"Ý":{"ha":856,"x_min":13,"x_max":844,"o":"m 494 404 l 371 451 l 686 972 l 844 972 l 494 404 m 360 0 l 360 467 l 497 467 l 497 0 l 360 0 m 363 404 l 13 972 l 169 972 l 485 451 l 363 404 m 326 1025 l 489 1208 l 649 1208 l 469 1025 l 326 1025 z "},"Ŷ":{"ha":856,"x_min":13,"x_max":844,"o":"m 494 404 l 371 451 l 686 972 l 844 972 l 494 404 m 360 0 l 360 467 l 497 467 l 497 0 l 360 0 m 363 404 l 13 972 l 169 972 l 485 451 l 363 404 m 535 1042 l 350 1219 l 350 1225 l 501 1225 l 671 1042 l 535 1042 m 179 1042 l 349 1225 l 500 1225 l 500 1219 l 314 1042 l 179 1042 z "},"Ÿ":{"ha":856,"x_min":13,"x_max":844,"o":"m 494 404 l 371 451 l 686 972 l 844 972 l 494 404 m 360 0 l 360 467 l 497 467 l 497 0 l 360 0 m 363 404 l 13 972 l 169 972 l 485 451 l 363 404 m 601 1088 q 549 1110 571 1088 q 526 1161 526 1132 q 549 1214 526 1192 q 601 1236 571 1236 q 653 1214 632 1236 q 675 1161 675 1192 q 653 1110 675 1132 q 601 1088 632 1088 m 254 1088 q 201 1110 224 1088 q 179 1161 179 1132 q 201 1215 179 1193 q 254 1236 224 1236 q 306 1215 285 1236 q 328 1161 328 1193 q 306 1110 328 1132 q 254 1088 285 1088 z "},"Ỳ":{"ha":856,"x_min":13,"x_max":844,"o":"m 494 404 l 371 451 l 686 972 l 844 972 l 494 404 m 360 0 l 360 467 l 497 467 l 497 0 l 360 0 m 363 404 l 13 972 l 169 972 l 485 451 l 363 404 m 432 1025 l 250 1210 l 410 1210 l 575 1025 l 432 1025 z "},"Z":{"ha":886,"x_min":61,"x_max":825,"o":"m 61 0 l 61 128 l 650 844 l 65 844 l 65 972 l 825 972 l 825 844 l 236 128 l 821 128 l 821 0 l 61 0 z "},"Ź":{"ha":886,"x_min":61,"x_max":825,"o":"m 61 0 l 61 128 l 650 844 l 65 844 l 65 972 l 825 972 l 825 844 l 236 128 l 821 128 l 821 0 l 61 0 m 343 1038 l 506 1221 l 665 1221 l 486 1038 l 343 1038 z "},"Ž":{"ha":886,"x_min":61,"x_max":825,"o":"m 61 0 l 61 128 l 650 844 l 65 844 l 65 972 l 825 972 l 825 844 l 236 128 l 821 128 l 821 0 l 61 0 m 375 1038 l 375 1040 l 550 1221 l 688 1221 l 518 1038 l 375 1038 m 365 1038 l 196 1221 l 333 1221 l 508 1040 l 508 1038 l 365 1038 z "},"Ż":{"ha":886,"x_min":61,"x_max":825,"o":"m 61 0 l 61 128 l 650 844 l 65 844 l 65 972 l 825 972 l 825 844 l 236 128 l 821 128 l 821 0 l 61 0 m 444 1090 q 389 1115 413 1090 q 365 1171 365 1139 q 389 1227 365 1204 q 444 1250 413 1250 q 501 1227 478 1250 q 524 1171 524 1204 q 501 1115 524 1139 q 444 1090 478 1090 z "},"a":{"ha":717,"x_min":53,"x_max":643,"o":"m 518 0 l 513 121 l 513 363 q 495 490 513 439 q 442 568 478 542 q 349 594 407 594 q 255 572 294 594 q 189 503 215 550 l 72 547 q 135 631 97 594 q 225 690 172 668 q 349 711 278 711 q 513 672 447 711 q 610 560 578 633 q 642 378 643 486 l 640 0 l 518 0 m 314 -17 q 122 40 190 -17 q 53 196 53 96 q 124 359 53 303 q 324 415 196 415 l 517 415 l 517 311 l 360 311 q 225 281 264 311 q 186 199 186 251 q 223 123 186 150 q 325 96 260 96 q 424 120 382 96 q 489 189 465 144 q 513 290 513 233 l 558 290 q 498 66 558 149 q 314 -17 438 -17 z "},"á":{"ha":714,"x_min":53,"x_max":643,"o":"m 518 0 l 513 121 l 513 363 q 495 490 513 439 q 442 568 478 542 q 349 594 407 594 q 255 572 294 594 q 189 503 215 550 l 72 547 q 135 631 97 594 q 225 690 172 668 q 349 711 278 711 q 513 672 447 711 q 610 560 578 633 q 642 378 643 486 l 640 0 l 518 0 m 314 -17 q 122 40 190 -17 q 53 196 53 96 q 124 359 53 303 q 324 415 196 415 l 517 415 l 517 311 l 360 311 q 225 281 264 311 q 186 199 186 251 q 223 123 186 150 q 325 96 260 96 q 424 120 382 96 q 489 189 465 144 q 513 290 513 233 l 558 290 q 498 66 558 149 q 314 -17 438 -17 m 249 789 l 411 972 l 571 972 l 392 789 l 249 789 z "},"ă":{"ha":714,"x_min":53,"x_max":643,"o":"m 518 0 l 513 121 l 513 363 q 495 490 513 439 q 442 568 478 542 q 349 594 407 594 q 255 572 294 594 q 189 503 215 550 l 72 547 q 135 631 97 594 q 225 690 172 668 q 349 711 278 711 q 513 672 447 711 q 610 560 578 633 q 642 378 643 486 l 640 0 l 518 0 m 314 -17 q 122 40 190 -17 q 53 196 53 96 q 124 359 53 303 q 324 415 196 415 l 517 415 l 517 311 l 360 311 q 225 281 264 311 q 186 199 186 251 q 223 123 186 150 q 325 96 260 96 q 424 120 382 96 q 489 189 465 144 q 513 290 513 233 l 558 290 q 498 66 558 149 q 314 -17 438 -17 m 350 779 q 226 803 281 779 q 140 872 171 828 q 108 972 108 917 l 233 972 q 266 906 233 932 q 350 881 299 881 q 434 906 401 881 q 467 972 467 932 l 592 972 q 561 872 592 917 q 476 803 531 828 q 350 779 422 779 z "},"ǎ":{"ha":714,"x_min":53,"x_max":643,"o":"m 518 0 l 513 121 l 513 363 q 495 490 513 439 q 442 568 478 542 q 349 594 407 594 q 255 572 294 594 q 189 503 215 550 l 72 547 q 135 631 97 594 q 225 690 172 668 q 349 711 278 711 q 513 672 447 711 q 610 560 578 633 q 642 378 643 486 l 640 0 l 518 0 m 314 -17 q 122 40 190 -17 q 53 196 53 96 q 124 359 53 303 q 324 415 196 415 l 517 415 l 517 311 l 360 311 q 225 281 264 311 q 186 199 186 251 q 223 123 186 150 q 325 96 260 96 q 424 120 382 96 q 489 189 465 144 q 513 290 513 233 l 558 290 q 498 66 558 149 q 314 -17 438 -17 m 281 789 l 281 792 l 456 972 l 593 972 l 424 789 l 281 789 m 271 789 l 101 972 l 239 972 l 414 792 l 414 789 l 271 789 z "},"â":{"ha":714,"x_min":53,"x_max":643,"o":"m 518 0 l 513 121 l 513 363 q 495 490 513 439 q 442 568 478 542 q 349 594 407 594 q 255 572 294 594 q 189 503 215 550 l 72 547 q 135 631 97 594 q 225 690 172 668 q 349 711 278 711 q 513 672 447 711 q 610 560 578 633 q 642 378 643 486 l 640 0 l 518 0 m 314 -17 q 122 40 190 -17 q 53 196 53 96 q 124 359 53 303 q 324 415 196 415 l 517 415 l 517 311 l 360 311 q 225 281 264 311 q 186 199 186 251 q 223 123 186 150 q 325 96 260 96 q 424 120 382 96 q 489 189 465 144 q 513 290 513 233 l 558 290 q 498 66 558 149 q 314 -17 438 -17 m 457 806 l 272 983 l 272 989 l 424 989 l 593 806 l 457 806 m 101 806 l 271 989 l 422 989 l 422 983 l 236 806 l 101 806 z "},"ä":{"ha":714,"x_min":53,"x_max":643,"o":"m 518 0 l 513 121 l 513 363 q 495 490 513 439 q 442 568 478 542 q 349 594 407 594 q 255 572 294 594 q 189 503 215 550 l 72 547 q 135 631 97 594 q 225 690 172 668 q 349 711 278 711 q 513 672 447 711 q 610 560 578 633 q 642 378 643 486 l 640 0 l 518 0 m 314 -17 q 122 40 190 -17 q 53 196 53 96 q 124 359 53 303 q 324 415 196 415 l 517 415 l 517 311 l 360 311 q 225 281 264 311 q 186 199 186 251 q 223 123 186 150 q 325 96 260 96 q 424 120 382 96 q 489 189 465 144 q 513 290 513 233 l 558 290 q 498 66 558 149 q 314 -17 438 -17 m 524 851 q 471 874 493 851 q 449 925 449 896 q 471 978 449 956 q 524 1000 493 1000 q 576 978 554 1000 q 597 925 597 956 q 576 874 597 896 q 524 851 554 851 m 176 851 q 124 874 146 851 q 101 925 101 896 q 124 978 101 957 q 176 1000 146 1000 q 228 978 207 1000 q 250 925 250 957 q 228 874 250 896 q 176 851 207 851 z "},"à":{"ha":714,"x_min":53,"x_max":643,"o":"m 518 0 l 513 121 l 513 363 q 495 490 513 439 q 442 568 478 542 q 349 594 407 594 q 255 572 294 594 q 189 503 215 550 l 72 547 q 135 631 97 594 q 225 690 172 668 q 349 711 278 711 q 513 672 447 711 q 610 560 578 633 q 642 378 643 486 l 640 0 l 518 0 m 314 -17 q 122 40 190 -17 q 53 196 53 96 q 124 359 53 303 q 324 415 196 415 l 517 415 l 517 311 l 360 311 q 225 281 264 311 q 186 199 186 251 q 223 123 186 150 q 325 96 260 96 q 424 120 382 96 q 489 189 465 144 q 513 290 513 233 l 558 290 q 498 66 558 149 q 314 -17 438 -17 m 354 789 l 172 974 l 332 974 l 497 789 l 354 789 z "},"ā":{"ha":714,"x_min":53,"x_max":643,"o":"m 518 0 l 513 121 l 513 363 q 495 490 513 439 q 442 568 478 542 q 349 594 407 594 q 255 572 294 594 q 189 503 215 550 l 72 547 q 135 631 97 594 q 225 690 172 668 q 349 711 278 711 q 513 672 447 711 q 610 560 578 633 q 642 378 643 486 l 640 0 l 518 0 m 314 -17 q 122 40 190 -17 q 53 196 53 96 q 124 359 53 303 q 324 415 196 415 l 517 415 l 517 311 l 360 311 q 225 281 264 311 q 186 199 186 251 q 223 123 186 150 q 325 96 260 96 q 424 120 382 96 q 489 189 465 144 q 513 290 513 233 l 558 290 q 498 66 558 149 q 314 -17 438 -17 m 133 793 l 133 910 l 567 910 l 567 793 l 133 793 z "},"ą":{"ha":714,"x_min":53,"x_max":671,"o":"m 518 0 l 513 121 l 513 363 q 495 490 513 439 q 442 568 478 542 q 349 594 407 594 q 255 572 294 594 q 189 503 215 550 l 72 547 q 135 631 97 594 q 225 690 172 668 q 349 711 278 711 q 513 672 447 711 q 610 560 578 633 q 642 378 643 486 l 640 0 l 518 0 m 314 -17 q 122 40 190 -17 q 53 196 53 96 q 124 359 53 303 q 324 415 196 415 l 517 415 l 517 311 l 360 311 q 225 281 264 311 q 186 199 186 251 q 223 123 186 150 q 325 96 260 96 q 424 120 382 96 q 489 189 465 144 q 513 290 513 233 l 558 290 q 498 66 558 149 q 314 -17 438 -17 m 574 -294 q 485 -279 524 -294 q 426 -233 447 -264 q 406 -158 406 -203 q 444 -65 406 -108 q 533 13 483 -22 l 638 0 q 557 -71 593 -32 q 521 -153 521 -110 q 533 -183 521 -172 q 568 -193 546 -193 q 606 -188 589 -193 q 631 -179 624 -183 l 671 -268 q 627 -287 651 -281 q 574 -294 603 -294 z "},"å":{"ha":714,"x_min":53,"x_max":643,"o":"m 518 0 l 513 121 l 513 363 q 495 490 513 439 q 442 568 478 542 q 349 594 407 594 q 255 572 294 594 q 189 503 215 550 l 72 547 q 135 631 97 594 q 225 690 172 668 q 349 711 278 711 q 513 672 447 711 q 610 560 578 633 q 642 378 643 486 l 640 0 l 518 0 m 314 -17 q 122 40 190 -17 q 53 196 53 96 q 124 359 53 303 q 324 415 196 415 l 517 415 l 517 311 l 360 311 q 225 281 264 311 q 186 199 186 251 q 223 123 186 150 q 325 96 260 96 q 424 120 382 96 q 489 189 465 144 q 513 290 513 233 l 558 290 q 498 66 558 149 q 314 -17 438 -17 m 350 765 q 280 784 313 765 q 228 833 247 803 q 208 901 208 864 q 228 971 208 940 q 280 1020 247 1001 q 350 1039 313 1039 q 422 1020 389 1039 q 473 971 454 1001 q 492 901 492 940 q 473 833 492 864 q 422 784 454 803 q 350 765 389 765 m 350 850 q 400 901 400 850 q 350 954 400 954 q 300 901 300 954 q 350 850 300 850 z "},"ã":{"ha":714,"x_min":53,"x_max":643,"o":"m 518 0 l 513 121 l 513 363 q 495 490 513 439 q 442 568 478 542 q 349 594 407 594 q 255 572 294 594 q 189 503 215 550 l 72 547 q 135 631 97 594 q 225 690 172 668 q 349 711 278 711 q 513 672 447 711 q 610 560 578 633 q 642 378 643 486 l 640 0 l 518 0 m 314 -17 q 122 40 190 -17 q 53 196 53 96 q 124 359 53 303 q 324 415 196 415 l 517 415 l 517 311 l 360 311 q 225 281 264 311 q 186 199 186 251 q 223 123 186 150 q 325 96 260 96 q 424 120 382 96 q 489 189 465 144 q 513 290 513 233 l 558 290 q 498 66 558 149 q 314 -17 438 -17 m 463 779 q 395 794 421 779 q 354 829 369 810 q 325 864 339 849 q 292 879 311 879 q 259 868 271 879 q 240 828 247 857 l 142 828 q 165 903 146 869 q 215 957 183 938 q 290 976 247 976 q 356 961 331 976 q 397 926 381 946 q 428 892 414 907 q 463 876 443 876 q 497 891 486 876 q 511 931 507 906 l 610 931 q 565 824 601 868 q 463 779 529 779 z "},"æ":{"ha":1218,"x_min":53,"x_max":1179,"o":"m 519 242 l 510 363 q 488 492 503 440 q 438 572 472 544 q 339 599 403 599 q 242 576 282 599 q 175 508 201 554 l 58 551 q 174 671 104 631 q 340 711 244 711 q 551 626 481 711 q 622 378 622 540 l 622 242 l 519 242 m 311 -17 q 121 39 189 -17 q 53 196 53 94 q 121 356 53 300 q 311 411 189 411 l 556 411 l 556 315 l 346 315 q 222 285 261 315 q 183 197 183 254 q 221 117 183 146 q 324 88 258 88 q 459 151 410 88 q 508 318 508 214 l 617 325 q 536 76 617 168 q 311 -17 456 -17 m 861 -17 q 678 30 758 -17 q 553 158 599 76 q 507 347 507 240 q 552 536 507 454 q 676 665 597 618 q 856 711 754 711 q 1029 664 957 711 q 1140 529 1101 617 q 1179 322 1179 442 l 607 322 l 639 351 q 666 213 639 271 q 743 124 693 154 q 860 93 793 93 q 981 127 931 93 q 1056 215 1031 161 l 1168 165 q 1096 67 1142 107 q 990 5 1050 26 q 861 -17 931 -17 m 644 392 l 613 421 l 1076 421 l 1044 390 q 1019 507 1044 458 q 952 581 994 556 q 854 607 910 607 q 749 581 797 607 q 673 508 701 556 q 644 392 644 460 z "},"b":{"ha":818,"x_min":92,"x_max":765,"o":"m 92 0 l 92 972 l 224 972 l 224 129 l 217 0 l 92 0 m 451 -17 q 299 29 364 -17 q 200 157 235 75 q 165 347 165 239 q 200 538 165 457 q 299 665 235 619 q 451 711 364 711 q 615 665 544 711 q 726 538 686 619 q 765 347 765 457 q 726 157 765 239 q 615 29 686 75 q 451 -17 544 -17 m 419 103 q 529 134 482 103 q 603 220 576 165 q 631 347 631 275 q 604 474 631 419 q 531 560 578 529 q 421 592 483 592 q 319 560 364 592 q 249 474 274 529 q 224 347 224 418 q 249 220 224 275 q 318 134 274 165 q 419 103 363 103 z "},"c":{"ha":753,"x_min":53,"x_max":714,"o":"m 408 -17 q 224 30 304 -17 q 98 158 143 76 q 53 347 53 240 q 98 536 53 454 q 223 665 143 618 q 406 711 303 711 q 588 664 507 711 q 710 529 669 617 l 590 479 q 515 560 564 531 q 401 589 465 589 q 290 558 339 589 q 214 473 242 528 q 186 347 186 418 q 214 222 186 276 q 292 137 242 168 q 404 106 342 106 q 518 138 468 106 q 593 226 568 171 l 714 178 q 592 35 674 86 q 408 -17 511 -17 z "},"ć":{"ha":753,"x_min":53,"x_max":714,"o":"m 408 -17 q 224 30 304 -17 q 98 158 143 76 q 53 347 53 240 q 98 536 53 454 q 223 665 143 618 q 406 711 303 711 q 588 664 507 711 q 710 529 669 617 l 590 479 q 515 560 564 531 q 401 589 465 589 q 290 558 339 589 q 214 473 242 528 q 186 347 186 418 q 214 222 186 276 q 292 137 242 168 q 404 106 342 106 q 518 138 468 106 q 593 226 568 171 l 714 178 q 592 35 674 86 q 408 -17 511 -17 m 304 789 l 467 972 l 626 972 l 447 789 l 304 789 z "},"č":{"ha":753,"x_min":53,"x_max":714,"o":"m 408 -17 q 224 30 304 -17 q 98 158 143 76 q 53 347 53 240 q 98 536 53 454 q 223 665 143 618 q 406 711 303 711 q 588 664 507 711 q 710 529 669 617 l 590 479 q 515 560 564 531 q 401 589 465 589 q 290 558 339 589 q 214 473 242 528 q 186 347 186 418 q 214 222 186 276 q 292 137 242 168 q 404 106 342 106 q 518 138 468 106 q 593 226 568 171 l 714 178 q 592 35 674 86 q 408 -17 511 -17 m 336 789 l 336 792 l 511 972 l 649 972 l 479 789 l 336 789 m 326 789 l 157 972 l 294 972 l 469 792 l 469 789 l 326 789 z "},"ç":{"ha":753,"x_min":53,"x_max":714,"o":"m 408 -17 q 224 30 304 -17 q 98 158 143 76 q 53 347 53 240 q 98 536 53 454 q 223 665 143 618 q 406 711 303 711 q 588 664 507 711 q 710 529 669 617 l 590 479 q 515 560 564 531 q 401 589 465 589 q 290 558 339 589 q 214 473 242 528 q 186 347 186 418 q 214 222 186 276 q 292 137 242 168 q 404 106 342 106 q 518 138 468 106 q 593 226 568 171 l 714 178 q 592 35 674 86 q 408 -17 511 -17 m 360 -292 q 300 -284 332 -292 q 228 -254 268 -276 l 254 -181 q 299 -201 276 -192 q 340 -210 322 -210 q 385 -200 365 -210 q 404 -162 404 -190 q 379 -113 404 -129 q 303 -90 354 -97 l 343 8 l 426 -6 l 410 -43 q 483 -93 461 -61 q 504 -162 504 -125 q 469 -255 504 -218 q 360 -292 435 -292 z "},"ĉ":{"ha":753,"x_min":53,"x_max":714,"o":"m 408 -17 q 224 30 304 -17 q 98 158 143 76 q 53 347 53 240 q 98 536 53 454 q 223 665 143 618 q 406 711 303 711 q 588 664 507 711 q 710 529 669 617 l 590 479 q 515 560 564 531 q 401 589 465 589 q 290 558 339 589 q 214 473 242 528 q 186 347 186 418 q 214 222 186 276 q 292 137 242 168 q 404 106 342 106 q 518 138 468 106 q 593 226 568 171 l 714 178 q 592 35 674 86 q 408 -17 511 -17 m 514 806 l 329 983 l 329 989 l 481 989 l 650 806 l 514 806 m 158 806 l 328 989 l 479 989 l 479 983 l 293 806 l 158 806 z "},"ċ":{"ha":753,"x_min":53,"x_max":714,"o":"m 408 -17 q 224 30 304 -17 q 98 158 143 76 q 53 347 53 240 q 98 536 53 454 q 223 665 143 618 q 406 711 303 711 q 588 664 507 711 q 710 529 669 617 l 590 479 q 515 560 564 531 q 401 589 465 589 q 290 558 339 589 q 214 473 242 528 q 186 347 186 418 q 214 222 186 276 q 292 137 242 168 q 404 106 342 106 q 518 138 468 106 q 593 226 568 171 l 714 178 q 592 35 674 86 q 408 -17 511 -17 m 406 842 q 350 866 374 842 q 326 922 326 890 q 350 978 326 956 q 406 1001 374 1001 q 462 978 439 1001 q 485 922 485 956 q 462 866 485 890 q 406 842 439 842 z "},"d":{"ha":817,"x_min":53,"x_max":725,"o":"m 600 0 l 594 129 l 594 972 l 725 972 l 725 0 l 600 0 m 367 -17 q 202 29 272 -17 q 92 157 132 75 q 53 347 53 239 q 92 538 53 457 q 202 665 132 619 q 367 711 272 711 q 519 665 454 711 q 618 538 583 619 q 653 347 653 457 q 618 157 653 239 q 519 29 583 75 q 367 -17 454 -17 m 397 103 q 500 134 456 103 q 569 220 544 165 q 594 347 594 275 q 569 474 594 419 q 500 560 544 529 q 396 592 456 592 q 288 560 335 592 q 214 474 240 529 q 188 347 188 419 q 215 220 188 275 q 289 134 242 165 q 397 103 336 103 z "},"ď":{"ha":817,"x_min":53,"x_max":949,"o":"m 600 0 l 594 129 l 594 972 l 725 972 l 725 0 l 600 0 m 367 -17 q 202 29 272 -17 q 92 157 132 75 q 53 347 53 239 q 92 538 53 457 q 202 665 132 619 q 367 711 272 711 q 519 665 454 711 q 618 538 583 619 q 653 347 653 457 q 618 157 653 239 q 519 29 583 75 q 367 -17 454 -17 m 397 103 q 500 134 456 103 q 569 220 544 165 q 594 347 594 275 q 569 474 594 419 q 500 560 544 529 q 396 592 456 592 q 288 560 335 592 q 214 474 240 529 q 188 347 188 419 q 215 220 188 275 q 289 134 242 165 q 397 103 336 103 m 756 742 l 819 971 l 949 971 l 863 742 l 756 742 z "},"đ":{"ha":817,"x_min":53,"x_max":826,"o":"m 381 783 l 381 879 l 826 879 l 826 783 l 381 783 m 600 0 l 594 129 l 594 972 l 725 972 l 725 0 l 600 0 m 367 -17 q 202 29 272 -17 q 92 157 132 75 q 53 347 53 239 q 92 538 53 457 q 202 665 132 619 q 367 711 272 711 q 519 665 454 711 q 618 538 583 619 q 653 347 653 457 q 618 157 653 239 q 519 29 583 75 q 367 -17 454 -17 m 397 103 q 500 134 456 103 q 569 220 544 165 q 594 347 594 275 q 569 474 594 419 q 500 560 544 529 q 396 592 456 592 q 288 560 335 592 q 214 474 240 529 q 188 347 188 419 q 215 220 188 275 q 289 134 242 165 q 397 103 336 103 z "},"ð":{"ha":807,"x_min":53,"x_max":740,"o":"m 397 -17 q 219 28 297 -17 q 97 151 140 72 q 53 333 53 231 q 94 515 53 436 q 212 640 136 594 q 386 685 288 685 q 467 672 428 685 q 542 639 507 660 q 602 590 576 618 q 643 526 628 561 l 740 342 q 697 156 740 236 q 575 29 653 75 q 397 -17 497 -17 m 397 103 q 506 132 460 103 q 579 213 553 161 q 606 333 606 265 q 579 453 606 401 q 505 535 553 506 q 394 565 457 565 q 286 535 333 565 q 213 453 239 506 q 186 333 186 401 q 213 213 186 265 q 288 132 240 161 q 397 103 336 103 m 613 381 q 591 576 613 490 q 522 727 569 663 q 397 836 475 792 q 206 906 319 881 l 231 1021 q 430 957 344 1000 q 574 852 515 914 q 670 711 633 790 q 724 539 707 632 q 740 342 740 446 l 613 381 m 379 710 l 335 776 l 618 963 l 661 897 l 379 710 z "},"e":{"ha":761,"x_min":53,"x_max":722,"o":"m 399 -17 q 219 30 297 -17 q 97 158 142 76 q 53 347 53 240 q 97 536 53 454 q 220 665 142 618 q 400 711 299 711 q 568 663 496 711 q 681 527 640 615 q 722 319 722 439 l 161 319 l 186 340 q 215 213 186 267 q 294 130 244 158 q 408 101 344 101 q 524 134 478 101 q 597 217 571 167 l 711 164 q 639 69 683 110 q 534 6 594 28 q 399 -17 474 -17 m 194 403 l 168 424 l 607 424 l 582 403 q 557 508 582 464 q 490 574 532 551 q 397 597 449 597 q 301 574 347 597 q 224 508 254 551 q 194 403 194 465 z "},"é":{"ha":764,"x_min":53,"x_max":722,"o":"m 399 -17 q 219 30 297 -17 q 97 158 142 76 q 53 347 53 240 q 97 536 53 454 q 220 665 142 618 q 400 711 299 711 q 568 663 496 711 q 681 527 640 615 q 722 319 722 439 l 161 319 l 186 340 q 215 213 186 267 q 294 130 244 158 q 408 101 344 101 q 524 134 478 101 q 597 217 571 167 l 711 164 q 639 69 683 110 q 534 6 594 28 q 399 -17 474 -17 m 194 403 l 168 424 l 607 424 l 582 403 q 557 508 582 464 q 490 574 532 551 q 397 597 449 597 q 301 574 347 597 q 224 508 254 551 q 194 403 194 465 m 300 789 l 463 972 l 622 972 l 443 789 l 300 789 z "},"ě":{"ha":764,"x_min":53,"x_max":722,"o":"m 399 -17 q 219 30 297 -17 q 97 158 142 76 q 53 347 53 240 q 97 536 53 454 q 220 665 142 618 q 400 711 299 711 q 568 663 496 711 q 681 527 640 615 q 722 319 722 439 l 161 319 l 186 340 q 215 213 186 267 q 294 130 244 158 q 408 101 344 101 q 524 134 478 101 q 597 217 571 167 l 711 164 q 639 69 683 110 q 534 6 594 28 q 399 -17 474 -17 m 194 403 l 168 424 l 607 424 l 582 403 q 557 508 582 464 q 490 574 532 551 q 397 597 449 597 q 301 574 347 597 q 224 508 254 551 q 194 403 194 465 m 332 789 l 332 792 l 507 972 l 644 972 l 475 789 l 332 789 m 322 789 l 153 972 l 290 972 l 465 792 l 465 789 l 322 789 z "},"ê":{"ha":764,"x_min":53,"x_max":722,"o":"m 399 -17 q 219 30 297 -17 q 97 158 142 76 q 53 347 53 240 q 97 536 53 454 q 220 665 142 618 q 400 711 299 711 q 568 663 496 711 q 681 527 640 615 q 722 319 722 439 l 161 319 l 186 340 q 215 213 186 267 q 294 130 244 158 q 408 101 344 101 q 524 134 478 101 q 597 217 571 167 l 711 164 q 639 69 683 110 q 534 6 594 28 q 399 -17 474 -17 m 194 403 l 168 424 l 607 424 l 582 403 q 557 508 582 464 q 490 574 532 551 q 397 597 449 597 q 301 574 347 597 q 224 508 254 551 q 194 403 194 465 m 508 806 l 324 983 l 324 989 l 475 989 l 644 806 l 508 806 m 153 806 l 322 989 l 474 989 l 474 983 l 288 806 l 153 806 z "},"ë":{"ha":764,"x_min":53,"x_max":722,"o":"m 399 -17 q 219 30 297 -17 q 97 158 142 76 q 53 347 53 240 q 97 536 53 454 q 220 665 142 618 q 400 711 299 711 q 568 663 496 711 q 681 527 640 615 q 722 319 722 439 l 161 319 l 186 340 q 215 213 186 267 q 294 130 244 158 q 408 101 344 101 q 524 134 478 101 q 597 217 571 167 l 711 164 q 639 69 683 110 q 534 6 594 28 q 399 -17 474 -17 m 194 403 l 168 424 l 607 424 l 582 403 q 557 508 582 464 q 490 574 532 551 q 397 597 449 597 q 301 574 347 597 q 224 508 254 551 q 194 403 194 465 m 575 851 q 522 874 544 851 q 500 925 500 896 q 522 978 500 956 q 575 1000 544 1000 q 627 978 606 1000 q 649 925 649 956 q 627 874 649 896 q 575 851 606 851 m 228 851 q 175 874 197 851 q 153 925 153 896 q 175 978 153 957 q 228 1000 197 1000 q 280 978 258 1000 q 301 925 301 957 q 280 874 301 896 q 228 851 258 851 z "},"ė":{"ha":764,"x_min":53,"x_max":722,"o":"m 399 -17 q 219 30 297 -17 q 97 158 142 76 q 53 347 53 240 q 97 536 53 454 q 220 665 142 618 q 400 711 299 711 q 568 663 496 711 q 681 527 640 615 q 722 319 722 439 l 161 319 l 186 340 q 215 213 186 267 q 294 130 244 158 q 408 101 344 101 q 524 134 478 101 q 597 217 571 167 l 711 164 q 639 69 683 110 q 534 6 594 28 q 399 -17 474 -17 m 194 403 l 168 424 l 607 424 l 582 403 q 557 508 582 464 q 490 574 532 551 q 397 597 449 597 q 301 574 347 597 q 224 508 254 551 q 194 403 194 465 m 400 842 q 344 866 368 842 q 321 922 321 890 q 344 978 321 956 q 400 1001 368 1001 q 456 978 433 1001 q 479 922 479 956 q 456 866 479 890 q 400 842 433 842 z "},"è":{"ha":764,"x_min":53,"x_max":722,"o":"m 399 -17 q 219 30 297 -17 q 97 158 142 76 q 53 347 53 240 q 97 536 53 454 q 220 665 142 618 q 400 711 299 711 q 568 663 496 711 q 681 527 640 615 q 722 319 722 439 l 161 319 l 186 340 q 215 213 186 267 q 294 130 244 158 q 408 101 344 101 q 524 134 478 101 q 597 217 571 167 l 711 164 q 639 69 683 110 q 534 6 594 28 q 399 -17 474 -17 m 194 403 l 168 424 l 607 424 l 582 403 q 557 508 582 464 q 490 574 532 551 q 397 597 449 597 q 301 574 347 597 q 224 508 254 551 q 194 403 194 465 m 406 789 l 224 974 l 383 974 l 549 789 l 406 789 z "},"ē":{"ha":764,"x_min":53,"x_max":722,"o":"m 399 -17 q 219 30 297 -17 q 97 158 142 76 q 53 347 53 240 q 97 536 53 454 q 220 665 142 618 q 400 711 299 711 q 568 663 496 711 q 681 527 640 615 q 722 319 722 439 l 161 319 l 186 340 q 215 213 186 267 q 294 130 244 158 q 408 101 344 101 q 524 134 478 101 q 597 217 571 167 l 711 164 q 639 69 683 110 q 534 6 594 28 q 399 -17 474 -17 m 194 403 l 168 424 l 607 424 l 582 403 q 557 508 582 464 q 490 574 532 551 q 397 597 449 597 q 301 574 347 597 q 224 508 254 551 q 194 403 194 465 m 185 793 l 185 910 l 618 910 l 618 793 l 185 793 z "},"ę":{"ha":764,"x_min":53,"x_max":740,"o":"m 399 -17 q 219 30 297 -17 q 97 158 142 76 q 53 347 53 240 q 97 536 53 454 q 220 665 142 618 q 400 711 299 711 q 568 663 496 711 q 681 527 640 615 q 722 319 722 439 l 161 319 l 186 340 q 215 213 186 267 q 294 130 244 158 q 408 101 344 101 q 524 134 478 101 q 597 217 571 167 l 711 164 q 639 69 683 110 q 534 6 594 28 q 399 -17 474 -17 m 194 403 l 168 424 l 607 424 l 582 403 q 557 508 582 464 q 490 574 532 551 q 397 597 449 597 q 301 574 347 597 q 224 508 254 551 q 194 403 194 465 m 631 -278 q 533 -262 575 -278 q 467 -219 490 -247 q 443 -149 443 -190 q 465 -63 443 -103 q 528 11 488 -24 q 621 74 568 46 l 649 74 q 592 10 613 42 q 563 -53 571 -22 q 554 -114 554 -85 q 572 -160 554 -143 q 618 -178 589 -178 q 663 -174 642 -178 q 700 -164 683 -169 l 739 -251 q 688 -272 715 -265 q 631 -278 660 -278 z "},"f":{"ha":522,"x_min":38,"x_max":519,"o":"m 161 0 l 161 771 q 214 937 161 881 q 374 993 267 993 q 443 983 406 993 q 519 954 481 972 l 471 853 q 420 873 442 867 q 383 879 399 879 q 315 849 338 879 q 293 757 293 819 l 293 0 l 161 0 m 38 585 l 38 694 l 485 694 l 485 585 l 38 585 z "},"g":{"ha":821,"x_min":53,"x_max":729,"o":"m 379 -296 q 253 -283 310 -296 q 157 -253 196 -269 q 99 -224 118 -236 l 149 -117 q 200 -142 167 -128 q 278 -167 233 -157 q 376 -178 322 -178 q 490 -152 440 -178 q 569 -72 540 -126 q 597 67 597 -18 l 597 694 l 729 694 l 729 69 q 684 -131 729 -50 q 560 -254 639 -212 q 379 -296 482 -296 m 367 10 q 202 53 272 10 q 92 176 132 97 q 53 357 53 254 q 92 543 53 464 q 202 667 132 622 q 367 711 272 711 q 517 667 453 711 q 617 542 582 622 q 653 356 653 463 q 617 174 653 253 q 517 53 582 96 q 367 10 453 10 m 400 121 q 501 152 458 121 q 569 237 544 183 q 594 360 594 290 q 569 482 594 429 q 501 565 544 535 q 399 594 457 594 q 291 565 338 594 q 218 482 244 535 q 192 360 192 429 q 219 237 192 290 q 292 152 246 183 q 400 121 339 121 z "},"ğ":{"ha":821,"x_min":53,"x_max":729,"o":"m 379 -296 q 253 -283 310 -296 q 157 -253 196 -269 q 99 -224 118 -236 l 149 -117 q 200 -142 167 -128 q 278 -167 233 -157 q 376 -178 322 -178 q 490 -152 440 -178 q 569 -72 540 -126 q 597 67 597 -18 l 597 694 l 729 694 l 729 69 q 684 -131 729 -50 q 560 -254 639 -212 q 379 -296 482 -296 m 367 10 q 202 53 272 10 q 92 176 132 97 q 53 357 53 254 q 92 543 53 464 q 202 667 132 622 q 367 711 272 711 q 517 667 453 711 q 617 542 582 622 q 653 356 653 463 q 617 174 653 253 q 517 53 582 96 q 367 10 453 10 m 400 121 q 501 152 458 121 q 569 237 544 183 q 594 360 594 290 q 569 482 594 429 q 501 565 544 535 q 399 594 457 594 q 291 565 338 594 q 218 482 244 535 q 192 360 192 429 q 219 237 192 290 q 292 152 246 183 q 400 121 339 121 m 390 779 q 266 803 321 779 q 180 872 211 828 q 149 972 149 917 l 274 972 q 306 906 274 932 q 390 881 339 881 q 474 906 442 881 q 507 972 507 932 l 632 972 q 601 872 632 917 q 517 803 571 828 q 390 779 463 779 z "},"ĝ":{"ha":821,"x_min":53,"x_max":729,"o":"m 379 -296 q 253 -283 310 -296 q 157 -253 196 -269 q 99 -224 118 -236 l 149 -117 q 200 -142 167 -128 q 278 -167 233 -157 q 376 -178 322 -178 q 490 -152 440 -178 q 569 -72 540 -126 q 597 67 597 -18 l 597 694 l 729 694 l 729 69 q 684 -131 729 -50 q 560 -254 639 -212 q 379 -296 482 -296 m 367 10 q 202 53 272 10 q 92 176 132 97 q 53 357 53 254 q 92 543 53 464 q 202 667 132 622 q 367 711 272 711 q 517 667 453 711 q 617 542 582 622 q 653 356 653 463 q 617 174 653 253 q 517 53 582 96 q 367 10 453 10 m 400 121 q 501 152 458 121 q 569 237 544 183 q 594 360 594 290 q 569 482 594 429 q 501 565 544 535 q 399 594 457 594 q 291 565 338 594 q 218 482 244 535 q 192 360 192 429 q 219 237 192 290 q 292 152 246 183 q 400 121 339 121 m 497 806 l 313 983 l 313 989 l 464 989 l 633 806 l 497 806 m 142 806 l 311 989 l 463 989 l 463 983 l 276 806 l 142 806 z "},"ģ":{"ha":821,"x_min":53,"x_max":729,"o":"m 379 -296 q 253 -283 310 -296 q 157 -253 196 -269 q 99 -224 118 -236 l 149 -117 q 200 -142 167 -128 q 278 -167 233 -157 q 376 -178 322 -178 q 490 -152 440 -178 q 569 -72 540 -126 q 597 67 597 -18 l 597 694 l 729 694 l 729 69 q 684 -131 729 -50 q 560 -254 639 -212 q 379 -296 482 -296 m 367 10 q 202 53 272 10 q 92 176 132 97 q 53 357 53 254 q 92 543 53 464 q 202 667 132 622 q 367 711 272 711 q 517 667 453 711 q 617 542 582 622 q 653 356 653 463 q 617 174 653 253 q 517 53 582 96 q 367 10 453 10 m 400 121 q 501 152 458 121 q 569 237 544 183 q 594 360 594 290 q 569 482 594 429 q 501 565 544 535 q 399 594 457 594 q 291 565 338 594 q 218 482 244 535 q 192 360 192 429 q 219 237 192 290 q 292 152 246 183 q 400 121 339 121 m 539 990 l 458 803 l 317 803 l 432 990 l 539 990 z "},"ġ":{"ha":821,"x_min":53,"x_max":729,"o":"m 379 -296 q 253 -283 310 -296 q 157 -253 196 -269 q 99 -224 118 -236 l 149 -117 q 200 -142 167 -128 q 278 -167 233 -157 q 376 -178 322 -178 q 490 -152 440 -178 q 569 -72 540 -126 q 597 67 597 -18 l 597 694 l 729 694 l 729 69 q 684 -131 729 -50 q 560 -254 639 -212 q 379 -296 482 -296 m 367 10 q 202 53 272 10 q 92 176 132 97 q 53 357 53 254 q 92 543 53 464 q 202 667 132 622 q 367 711 272 711 q 517 667 453 711 q 617 542 582 622 q 653 356 653 463 q 617 174 653 253 q 517 53 582 96 q 367 10 453 10 m 400 121 q 501 152 458 121 q 569 237 544 183 q 594 360 594 290 q 569 482 594 429 q 501 565 544 535 q 399 594 457 594 q 291 565 338 594 q 218 482 244 535 q 192 360 192 429 q 219 237 192 290 q 292 152 246 183 q 400 121 339 121 m 390 842 q 335 866 358 842 q 311 922 311 890 q 335 978 311 956 q 390 1001 358 1001 q 447 978 424 1001 q 469 922 469 956 q 447 866 469 890 q 390 842 424 842 z "},"h":{"ha":779,"x_min":93,"x_max":706,"o":"m 93 0 l 93 972 l 224 972 l 224 0 l 93 0 m 574 0 l 574 356 l 704 356 l 704 0 l 574 0 m 574 356 q 551 499 574 450 q 491 568 529 549 q 404 589 453 588 q 271 529 318 589 q 224 361 224 469 l 168 361 q 201 549 168 471 q 294 669 233 628 q 438 711 354 711 q 579 678 519 711 q 672 574 639 644 q 704 390 706 504 l 704 356 l 574 356 z "},"ħ":{"ha":779,"x_min":0,"x_max":706,"o":"m 0 783 l 0 879 l 446 879 l 446 783 l 0 783 m 93 0 l 93 972 l 224 972 l 224 0 l 93 0 m 574 0 l 574 356 l 704 356 l 704 0 l 574 0 m 574 356 q 551 499 574 450 q 491 568 529 549 q 404 589 453 588 q 271 529 318 589 q 224 361 224 469 l 168 361 q 201 549 168 471 q 294 669 233 628 q 438 711 354 711 q 579 678 519 711 q 672 574 639 644 q 704 390 706 504 l 704 356 l 574 356 z "},"ĥ":{"ha":779,"x_min":-90,"x_max":706,"o":"m 93 0 l 93 972 l 224 972 l 224 0 l 93 0 m 574 0 l 574 356 l 704 356 l 704 0 l 574 0 m 574 356 q 551 499 574 450 q 491 568 529 549 q 404 589 453 588 q 271 529 318 589 q 224 361 224 469 l 168 361 q 201 549 168 471 q 294 669 233 628 q 438 711 354 711 q 579 678 519 711 q 672 574 639 644 q 704 390 706 504 l 704 356 l 574 356 m 265 1083 l 81 1261 l 81 1267 l 232 1267 l 401 1083 l 265 1083 m -90 1083 l 79 1267 l 231 1267 l 231 1261 l 44 1083 l -90 1083 z "},"i":{"ha":333,"x_min":88,"x_max":246,"o":"m 100 0 l 100 694 l 232 694 l 232 0 l 100 0 m 167 842 q 111 866 135 842 q 88 922 88 890 q 111 978 88 956 q 167 1001 135 1001 q 223 978 200 1001 q 246 922 246 956 q 223 866 246 890 q 167 842 200 842 z "},"ı":{"ha":333,"x_min":100,"x_max":232,"o":"m 100 0 l 100 694 l 232 694 l 232 0 l 100 0 z "},"í":{"ha":333,"x_min":65,"x_max":388,"o":"m 100 0 l 100 694 l 232 694 l 232 0 l 100 0 m 65 789 l 228 972 l 388 972 l 208 789 l 65 789 z "},"î":{"ha":333,"x_min":-82,"x_max":410,"o":"m 100 0 l 100 694 l 232 694 l 232 0 l 100 0 m 274 806 l 89 983 l 89 989 l 240 989 l 410 806 l 274 806 m -82 806 l 88 989 l 239 989 l 239 983 l 53 806 l -82 806 z "},"ï":{"ha":333,"x_min":-7,"x_max":342,"o":"m 267 851 q 215 874 238 851 q 192 925 192 896 q 215 978 192 956 q 267 1000 238 1000 q 319 978 297 1000 q 342 925 342 956 q 319 874 342 896 q 267 851 297 851 m 68 851 q 15 874 38 851 q -7 925 -7 896 q 15 978 -7 957 q 68 1000 38 1000 q 120 978 99 1000 q 142 925 142 957 q 120 874 142 896 q 68 851 99 851 m 100 0 l 100 694 l 232 694 l 232 0 l 100 0 z "},"ì":{"ha":333,"x_min":-11,"x_max":314,"o":"m 100 0 l 100 694 l 232 694 l 232 0 l 100 0 m 171 789 l -11 974 l 149 974 l 314 789 l 171 789 z "},"ī":{"ha":333,"x_min":-17,"x_max":350,"o":"m 100 0 l 100 694 l 232 694 l 232 0 l 100 0 m -17 793 l -17 910 l 350 910 l 350 793 l -17 793 z "},"į":{"ha":333,"x_min":-1,"x_max":264,"o":"m 100 0 l 100 694 l 232 694 l 232 0 l 100 0 m 167 842 q 111 866 135 842 q 88 922 88 890 q 111 978 88 956 q 167 1001 135 1001 q 223 978 200 1001 q 246 922 246 956 q 223 866 246 890 q 167 842 200 842 m 167 -294 q 78 -279 117 -294 q 19 -233 40 -264 q -1 -158 -1 -203 q 38 -65 -1 -108 q 126 13 76 -22 l 231 0 q 150 -71 186 -32 q 114 -153 114 -110 q 126 -183 114 -172 q 161 -193 139 -193 q 199 -188 182 -193 q 224 -179 217 -183 l 264 -268 q 220 -287 244 -281 q 167 -294 196 -294 z "},"ĳ":{"ha":715,"x_min":88,"x_max":628,"o":"m 100 0 l 100 694 l 232 694 l 232 0 l 100 0 m 167 842 q 111 866 135 842 q 88 922 88 890 q 111 978 88 956 q 167 1001 135 1001 q 223 978 200 1001 q 246 922 246 956 q 223 866 246 890 q 167 842 200 842 m 547 842 q 490 866 514 842 q 467 922 467 890 q 490 979 467 956 q 547 1003 514 1003 q 604 979 581 1003 q 628 922 628 956 q 604 866 628 890 q 547 842 581 842 m 393 -299 q 256 -261 333 -299 l 307 -151 q 358 -171 336 -164 q 394 -178 381 -178 q 482 -65 482 -178 l 482 694 l 613 694 l 613 -71 q 557 -240 613 -182 q 393 -299 501 -299 z "},"j":{"ha":382,"x_min":-78,"x_max":294,"o":"m 214 842 q 157 866 181 842 q 133 922 133 890 q 157 979 133 956 q 214 1003 181 1003 q 271 979 247 1003 q 294 922 294 956 q 271 866 294 890 q 214 842 247 842 m 60 -299 q -78 -261 0 -299 l -26 -151 q 25 -171 3 -164 q 61 -178 47 -178 q 149 -65 149 -178 l 149 694 l 279 694 l 279 -71 q 224 -240 279 -182 q 60 -299 168 -299 z "},"ȷ":{"ha":367,"x_min":-78,"x_max":279,"o":"m 60 -299 q -78 -261 0 -299 l -26 -151 q 25 -171 3 -164 q 61 -178 47 -178 q 149 -65 149 -178 l 149 694 l 279 694 l 279 -71 q 224 -240 279 -182 q 60 -299 168 -299 z "},"ĵ":{"ha":367,"x_min":-78,"x_max":457,"o":"m 60 -299 q -78 -261 0 -299 l -26 -151 q 25 -171 3 -164 q 61 -178 47 -178 q 149 -65 149 -178 l 149 694 l 279 694 l 279 -71 q 224 -240 279 -182 q 60 -299 168 -299 m 321 806 l 136 983 l 136 989 l 288 989 l 457 806 l 321 806 m -35 806 l 135 989 l 286 989 l 286 983 l 100 806 l -35 806 z "},"k":{"ha":694,"x_min":92,"x_max":690,"o":"m 219 210 l 138 300 l 503 694 l 664 694 l 219 210 m 92 0 l 92 972 l 224 972 l 224 0 l 92 0 m 532 0 l 276 381 l 363 472 l 690 0 l 532 0 z "},"ķ":{"ha":694,"x_min":92,"x_max":690,"o":"m 219 210 l 138 300 l 503 694 l 664 694 l 219 210 m 92 0 l 92 972 l 224 972 l 224 0 l 92 0 m 532 0 l 276 381 l 363 472 l 690 0 l 532 0 m 229 -278 l 293 -79 l 431 -79 l 336 -278 l 229 -278 z "},"l":{"ha":315,"x_min":92,"x_max":224,"o":"m 92 0 l 92 972 l 224 972 l 224 0 l 92 0 z "},"ĺ":{"ha":315,"x_min":57,"x_max":379,"o":"m 92 0 l 92 972 l 224 972 l 224 0 l 92 0 m 57 1038 l 219 1221 l 379 1221 l 200 1038 l 57 1038 z "},"ľ":{"ha":315,"x_min":92,"x_max":449,"o":"m 92 0 l 92 972 l 224 972 l 224 0 l 92 0 m 256 742 l 319 971 l 449 971 l 363 742 l 256 742 z "},"ļ":{"ha":315,"x_min":35,"x_max":235,"o":"m 92 0 l 92 972 l 224 972 l 224 0 l 92 0 m 35 -278 l 99 -79 l 236 -79 l 142 -278 l 35 -278 z "},"ł":{"ha":393,"x_min":19,"x_max":374,"o":"m 19 347 l 19 460 l 374 635 l 374 524 l 19 347 m 131 0 l 131 972 l 261 972 l 261 0 l 131 0 z "},"m":{"ha":1190,"x_min":92,"x_max":1115,"o":"m 92 0 l 92 694 l 215 694 l 221 599 q 304 683 254 654 q 419 711 354 711 q 561 673 503 711 q 646 557 619 635 q 732 672 676 632 q 864 711 788 711 q 1049 634 982 711 q 1114 397 1115 557 l 1114 0 l 983 0 l 983 356 q 963 499 983 450 q 910 568 943 549 q 832 589 876 588 q 712 529 754 589 q 669 361 669 469 l 669 0 l 538 0 l 538 356 q 518 499 538 450 q 465 568 499 549 q 386 589 431 588 q 266 529 308 589 q 224 361 224 469 l 224 0 l 92 0 z "},"n":{"ha":779,"x_min":92,"x_max":704,"o":"m 92 0 l 92 694 l 215 694 l 224 567 l 224 0 l 92 0 m 572 0 l 572 356 l 704 356 l 704 0 l 572 0 m 572 356 q 551 499 572 450 q 491 568 529 549 q 403 589 453 588 q 271 529 318 589 q 224 361 224 469 l 167 361 q 199 549 167 471 q 292 669 232 628 q 436 711 353 711 q 578 678 518 711 q 672 574 639 644 q 704 390 704 504 l 704 356 l 572 356 z "},"ń":{"ha":779,"x_min":92,"x_max":704,"o":"m 92 0 l 92 694 l 215 694 l 224 567 l 224 0 l 92 0 m 572 0 l 572 356 l 704 356 l 704 0 l 572 0 m 572 356 q 551 499 572 450 q 491 568 529 549 q 403 589 453 588 q 271 529 318 589 q 224 361 224 469 l 167 361 q 199 549 167 471 q 292 669 232 628 q 436 711 353 711 q 578 678 518 711 q 672 574 639 644 q 704 390 704 504 l 704 356 l 572 356 m 286 789 l 449 972 l 608 972 l 429 789 l 286 789 z "},"ň":{"ha":779,"x_min":92,"x_max":704,"o":"m 92 0 l 92 694 l 215 694 l 224 567 l 224 0 l 92 0 m 572 0 l 572 356 l 704 356 l 704 0 l 572 0 m 572 356 q 551 499 572 450 q 491 568 529 549 q 403 589 453 588 q 271 529 318 589 q 224 361 224 469 l 167 361 q 199 549 167 471 q 292 669 232 628 q 436 711 353 711 q 578 678 518 711 q 672 574 639 644 q 704 390 704 504 l 704 356 l 572 356 m 318 789 l 318 792 l 493 972 l 631 972 l 461 789 l 318 789 m 308 789 l 139 972 l 276 972 l 451 792 l 451 789 l 308 789 z "},"ņ":{"ha":779,"x_min":92,"x_max":704,"o":"m 92 0 l 92 694 l 215 694 l 224 567 l 224 0 l 92 0 m 572 0 l 572 356 l 704 356 l 704 0 l 572 0 m 572 356 q 551 499 572 450 q 491 568 529 549 q 403 589 453 588 q 271 529 318 589 q 224 361 224 469 l 167 361 q 199 549 167 471 q 292 669 232 628 q 436 711 353 711 q 578 678 518 711 q 672 574 639 644 q 704 390 704 504 l 704 356 l 572 356 m 264 -278 l 328 -79 l 465 -79 l 371 -278 l 264 -278 z "},"ñ":{"ha":779,"x_min":92,"x_max":704,"o":"m 92 0 l 92 694 l 215 694 l 224 567 l 224 0 l 92 0 m 572 0 l 572 356 l 704 356 l 704 0 l 572 0 m 572 356 q 551 499 572 450 q 491 568 529 549 q 403 589 453 588 q 271 529 318 589 q 224 361 224 469 l 167 361 q 199 549 167 471 q 292 669 232 628 q 436 711 353 711 q 578 678 518 711 q 672 574 639 644 q 704 390 704 504 l 704 356 l 572 356 m 500 779 q 433 794 458 779 q 392 829 407 810 q 363 864 376 849 q 329 879 349 879 q 297 868 308 879 q 278 828 285 857 l 179 828 q 202 903 183 869 q 253 957 221 938 q 328 976 285 976 q 393 961 368 976 q 435 926 418 946 q 466 892 451 907 q 500 876 481 876 q 534 891 524 876 q 549 931 544 906 l 647 931 q 603 824 639 868 q 500 779 567 779 z "},"ŋ":{"ha":779,"x_min":92,"x_max":704,"o":"m 483 -299 q 347 -261 425 -299 l 399 -151 q 450 -171 428 -164 q 486 -178 472 -178 q 572 -65 572 -178 l 572 0 l 704 0 l 704 -71 q 648 -240 704 -182 q 483 -299 592 -299 m 92 0 l 92 694 l 215 694 l 224 567 l 224 0 l 92 0 m 572 0 l 572 356 l 704 356 l 704 0 l 572 0 m 572 356 q 551 499 572 450 q 491 568 529 549 q 403 589 453 588 q 271 529 318 589 q 224 361 224 469 l 167 361 q 199 549 167 471 q 292 669 232 628 q 436 711 353 711 q 578 678 518 711 q 672 574 639 644 q 704 390 704 504 l 704 356 l 572 356 z "},"o":{"ha":806,"x_min":53,"x_max":753,"o":"m 406 -17 q 222 30 301 -17 q 98 158 143 76 q 53 347 53 240 q 97 536 53 454 q 221 665 142 618 q 403 711 300 711 q 585 665 506 711 q 708 536 664 618 q 753 347 753 454 q 708 158 753 240 q 585 30 664 76 q 406 -17 507 -17 m 406 104 q 517 135 468 104 q 592 221 565 167 q 619 347 619 275 q 592 474 619 419 q 515 559 565 528 q 403 590 465 590 q 290 559 339 590 q 214 474 242 528 q 186 347 186 419 q 214 221 186 275 q 292 135 242 167 q 406 104 342 104 z "},"ó":{"ha":806,"x_min":53,"x_max":753,"o":"m 406 -17 q 222 30 301 -17 q 98 158 143 76 q 53 347 53 240 q 97 536 53 454 q 221 665 142 618 q 403 711 300 711 q 585 665 506 711 q 708 536 664 618 q 753 347 753 454 q 708 158 753 240 q 585 30 664 76 q 406 -17 507 -17 m 406 104 q 517 135 468 104 q 592 221 565 167 q 619 347 619 275 q 592 474 619 419 q 515 559 565 528 q 403 590 465 590 q 290 559 339 590 q 214 474 242 528 q 186 347 186 419 q 214 221 186 275 q 292 135 242 167 q 406 104 342 104 m 300 789 l 463 972 l 622 972 l 443 789 l 300 789 z "},"ô":{"ha":806,"x_min":53,"x_max":753,"o":"m 406 -17 q 222 30 301 -17 q 98 158 143 76 q 53 347 53 240 q 97 536 53 454 q 221 665 142 618 q 403 711 300 711 q 585 665 506 711 q 708 536 664 618 q 753 347 753 454 q 708 158 753 240 q 585 30 664 76 q 406 -17 507 -17 m 406 104 q 517 135 468 104 q 592 221 565 167 q 619 347 619 275 q 592 474 619 419 q 515 559 565 528 q 403 590 465 590 q 290 559 339 590 q 214 474 242 528 q 186 347 186 419 q 214 221 186 275 q 292 135 242 167 q 406 104 342 104 m 508 806 l 324 983 l 324 989 l 475 989 l 644 806 l 508 806 m 153 806 l 322 989 l 474 989 l 474 983 l 288 806 l 153 806 z "},"ö":{"ha":806,"x_min":53,"x_max":753,"o":"m 406 -17 q 222 30 301 -17 q 98 158 143 76 q 53 347 53 240 q 97 536 53 454 q 221 665 142 618 q 403 711 300 711 q 585 665 506 711 q 708 536 664 618 q 753 347 753 454 q 708 158 753 240 q 585 30 664 76 q 406 -17 507 -17 m 406 104 q 517 135 468 104 q 592 221 565 167 q 619 347 619 275 q 592 474 619 419 q 515 559 565 528 q 403 590 465 590 q 290 559 339 590 q 214 474 242 528 q 186 347 186 419 q 214 221 186 275 q 292 135 242 167 q 406 104 342 104 m 575 851 q 522 874 544 851 q 500 925 500 896 q 522 978 500 956 q 575 1000 544 1000 q 627 978 606 1000 q 649 925 649 956 q 627 874 649 896 q 575 851 606 851 m 228 851 q 175 874 197 851 q 153 925 153 896 q 175 978 153 957 q 228 1000 197 1000 q 280 978 258 1000 q 301 925 301 957 q 280 874 301 896 q 228 851 258 851 z "},"ò":{"ha":806,"x_min":53,"x_max":753,"o":"m 406 -17 q 222 30 301 -17 q 98 158 143 76 q 53 347 53 240 q 97 536 53 454 q 221 665 142 618 q 403 711 300 711 q 585 665 506 711 q 708 536 664 618 q 753 347 753 454 q 708 158 753 240 q 585 30 664 76 q 406 -17 507 -17 m 406 104 q 517 135 468 104 q 592 221 565 167 q 619 347 619 275 q 592 474 619 419 q 515 559 565 528 q 403 590 465 590 q 290 559 339 590 q 214 474 242 528 q 186 347 186 419 q 214 221 186 275 q 292 135 242 167 q 406 104 342 104 m 406 789 l 224 974 l 383 974 l 549 789 l 406 789 z "},"ő":{"ha":806,"x_min":53,"x_max":753,"o":"m 406 -17 q 222 30 301 -17 q 98 158 143 76 q 53 347 53 240 q 97 536 53 454 q 221 665 142 618 q 403 711 300 711 q 585 665 506 711 q 708 536 664 618 q 753 347 753 454 q 708 158 753 240 q 585 30 664 76 q 406 -17 507 -17 m 406 104 q 517 135 468 104 q 592 221 565 167 q 619 347 619 275 q 592 474 619 419 q 515 559 565 528 q 403 590 465 590 q 290 559 339 590 q 214 474 242 528 q 186 347 186 419 q 214 221 186 275 q 292 135 242 167 q 406 104 342 104 m 446 789 l 585 972 l 740 972 l 585 789 l 446 789 m 186 789 l 322 972 l 479 972 l 324 789 l 186 789 z "},"ō":{"ha":806,"x_min":53,"x_max":753,"o":"m 406 -17 q 222 30 301 -17 q 98 158 143 76 q 53 347 53 240 q 97 536 53 454 q 221 665 142 618 q 403 711 300 711 q 585 665 506 711 q 708 536 664 618 q 753 347 753 454 q 708 158 753 240 q 585 30 664 76 q 406 -17 507 -17 m 406 104 q 517 135 468 104 q 592 221 565 167 q 619 347 619 275 q 592 474 619 419 q 515 559 565 528 q 403 590 465 590 q 290 559 339 590 q 214 474 242 528 q 186 347 186 419 q 214 221 186 275 q 292 135 242 167 q 406 104 342 104 m 185 793 l 185 910 l 618 910 l 618 793 l 185 793 z "},"ø":{"ha":804,"x_min":35,"x_max":769,"o":"m 35 0 l 638 694 l 769 694 l 165 0 l 35 0 m 401 -17 q 219 30 299 -17 q 95 158 140 76 q 50 347 50 240 q 94 536 50 454 q 218 665 139 618 q 399 711 297 711 q 582 665 503 711 q 706 536 661 618 q 750 347 750 454 q 706 158 750 240 q 583 30 661 76 q 401 -17 504 -17 m 401 104 q 514 135 465 104 q 590 221 563 167 q 617 347 617 275 q 589 474 617 419 q 512 559 561 528 q 400 590 463 590 q 287 559 336 590 q 210 474 238 528 q 183 347 183 419 q 211 221 183 275 q 289 135 239 167 q 401 104 339 104 z "},"õ":{"ha":806,"x_min":53,"x_max":753,"o":"m 406 -17 q 222 30 301 -17 q 98 158 143 76 q 53 347 53 240 q 97 536 53 454 q 221 665 142 618 q 403 711 300 711 q 585 665 506 711 q 708 536 664 618 q 753 347 753 454 q 708 158 753 240 q 585 30 664 76 q 406 -17 507 -17 m 406 104 q 517 135 468 104 q 592 221 565 167 q 619 347 619 275 q 592 474 619 419 q 515 559 565 528 q 403 590 465 590 q 290 559 339 590 q 214 474 242 528 q 186 347 186 419 q 214 221 186 275 q 292 135 242 167 q 406 104 342 104 m 514 779 q 447 794 472 779 q 406 829 421 810 q 376 864 390 849 q 343 879 363 879 q 310 868 322 879 q 292 828 299 857 l 193 828 q 216 903 197 869 q 267 957 235 938 q 342 976 299 976 q 407 961 382 976 q 449 926 432 946 q 480 892 465 907 q 514 876 494 876 q 548 891 538 876 q 563 931 558 906 l 661 931 q 617 824 653 868 q 514 779 581 779 z "},"œ":{"ha":1374,"x_min":53,"x_max":1333,"o":"m 406 -17 q 222 30 301 -17 q 98 158 143 76 q 53 347 53 240 q 97 536 53 454 q 221 665 142 618 q 403 711 300 711 q 585 665 506 711 q 708 536 664 618 q 753 347 753 454 q 708 158 753 240 q 585 30 664 76 q 406 -17 507 -17 m 406 104 q 517 135 468 104 q 592 221 565 167 q 619 347 619 275 q 592 474 619 419 q 515 559 565 528 q 403 590 465 590 q 290 559 339 590 q 214 474 242 528 q 186 347 186 419 q 214 221 186 275 q 292 135 242 167 q 406 104 342 104 m 1010 -17 q 831 30 908 -17 q 708 158 753 76 q 664 347 664 240 q 708 536 664 454 q 831 665 753 618 q 1011 711 910 711 q 1179 663 1107 711 q 1292 527 1251 615 q 1333 319 1333 439 l 772 319 l 797 340 q 826 213 797 267 q 906 130 856 158 q 1019 101 956 101 q 1135 134 1089 101 q 1208 217 1182 167 l 1322 164 q 1250 69 1294 110 q 1145 6 1206 28 q 1010 -17 1085 -17 m 806 403 l 779 424 l 1218 424 l 1193 403 q 1168 508 1193 464 q 1101 574 1143 551 q 1008 597 1060 597 q 912 574 958 597 q 835 508 865 551 q 806 403 806 465 z "},"p":{"ha":825,"x_min":99,"x_max":772,"o":"m 99 -278 l 99 694 l 222 694 l 231 567 l 231 -278 l 99 -278 m 458 -17 q 306 29 371 -17 q 207 157 242 75 q 172 347 172 239 q 207 538 172 457 q 306 665 242 619 q 458 711 371 711 q 622 665 551 711 q 733 538 693 619 q 772 347 772 457 q 733 157 772 239 q 622 29 693 75 q 458 -17 551 -17 m 426 103 q 536 134 489 103 q 610 220 583 165 q 638 347 638 275 q 611 474 638 419 q 538 560 585 529 q 428 592 490 592 q 326 560 371 592 q 256 474 281 529 q 231 347 231 418 q 256 220 231 275 q 325 134 281 165 q 426 103 369 103 z "},"þ":{"ha":818,"x_min":92,"x_max":765,"o":"m 92 -278 l 92 972 l 224 972 l 224 -278 l 92 -278 m 451 -17 q 299 29 364 -17 q 200 157 235 75 q 165 347 165 239 q 200 538 165 457 q 299 665 235 619 q 451 711 364 711 q 615 665 544 711 q 726 538 686 619 q 765 347 765 457 q 726 157 765 239 q 615 29 686 75 q 451 -17 544 -17 m 419 103 q 529 134 482 103 q 603 220 576 165 q 631 347 631 275 q 604 474 631 419 q 531 560 578 529 q 421 592 483 592 q 319 560 364 592 q 249 474 274 529 q 224 347 224 418 q 249 220 224 275 q 318 134 274 165 q 419 103 363 103 z "},"q":{"ha":807,"x_min":53,"x_max":725,"o":"m 594 -278 l 594 565 l 601 694 l 725 694 l 725 -278 l 594 -278 m 367 -17 q 202 29 272 -17 q 92 157 132 75 q 53 347 53 239 q 92 538 53 457 q 202 665 132 619 q 367 711 272 711 q 519 665 454 711 q 618 538 583 619 q 653 347 653 457 q 618 157 653 239 q 519 29 583 75 q 367 -17 454 -17 m 397 103 q 500 134 456 103 q 569 220 544 165 q 594 347 594 275 q 569 474 594 419 q 500 560 544 529 q 396 592 456 592 q 288 560 335 592 q 214 474 240 529 q 188 347 188 419 q 215 220 188 275 q 289 134 242 165 q 397 103 336 103 z "},"r":{"ha":485,"x_min":92,"x_max":469,"o":"m 172 374 q 215 557 172 486 q 326 663 258 628 q 469 697 394 697 l 469 572 q 351 553 407 572 q 259 492 294 535 q 224 378 224 450 l 172 374 m 92 0 l 92 694 l 224 694 l 224 0 l 92 0 z "},"ŕ":{"ha":485,"x_min":92,"x_max":469,"o":"m 172 374 q 215 557 172 486 q 326 663 258 628 q 469 697 394 697 l 469 572 q 351 553 407 572 q 259 492 294 535 q 224 378 224 450 l 172 374 m 92 0 l 92 694 l 224 694 l 224 0 l 92 0 m 128 789 l 290 972 l 450 972 l 271 789 l 128 789 z "},"ř":{"ha":485,"x_min":-19,"x_max":471,"o":"m 172 374 q 215 557 172 486 q 326 663 258 628 q 469 697 394 697 l 469 572 q 351 553 407 572 q 259 492 294 535 q 224 378 224 450 l 172 374 m 92 0 l 92 694 l 224 694 l 224 0 l 92 0 m 160 789 l 160 792 l 335 972 l 472 972 l 303 789 l 160 789 m 150 789 l -19 972 l 118 972 l 293 792 l 293 789 l 150 789 z "},"ŗ":{"ha":485,"x_min":68,"x_max":469,"o":"m 172 374 q 215 557 172 486 q 326 663 258 628 q 469 697 394 697 l 469 572 q 351 553 407 572 q 259 492 294 535 q 224 378 224 450 l 172 374 m 92 0 l 92 694 l 224 694 l 224 0 l 92 0 m 68 -278 l 132 -79 l 269 -79 l 175 -278 l 68 -278 z "},"s":{"ha":647,"x_min":53,"x_max":601,"o":"m 340 -17 q 209 6 267 -17 q 112 65 151 28 q 53 150 72 103 l 167 200 q 233 129 189 157 q 332 101 278 101 q 431 124 392 101 q 469 186 469 146 q 440 247 469 225 q 356 283 411 269 l 290 300 q 140 379 193 326 q 86 499 86 432 q 151 656 86 600 q 344 711 217 711 q 459 693 407 711 q 548 642 511 675 q 600 563 585 608 l 489 513 q 432 574 472 554 q 338 594 392 594 q 250 570 282 594 q 218 503 218 546 q 245 458 218 479 q 325 422 272 436 l 400 404 q 513 353 468 388 q 579 277 557 319 q 601 189 601 235 q 567 80 601 126 q 474 8 533 33 q 340 -17 415 -17 z "},"ś":{"ha":657,"x_min":53,"x_max":601,"o":"m 340 -17 q 209 6 267 -17 q 112 65 151 28 q 53 150 72 103 l 167 200 q 233 129 189 157 q 332 101 278 101 q 431 124 392 101 q 469 186 469 146 q 440 247 469 225 q 356 283 411 269 l 290 300 q 140 379 193 326 q 86 499 86 432 q 151 656 86 600 q 344 711 217 711 q 459 693 407 711 q 548 642 511 675 q 600 563 585 608 l 489 513 q 432 574 472 554 q 338 594 392 594 q 250 570 282 594 q 218 503 218 546 q 245 458 218 479 q 325 422 272 436 l 400 404 q 513 353 468 388 q 579 277 557 319 q 601 189 601 235 q 567 80 601 126 q 474 8 533 33 q 340 -17 415 -17 m 243 789 l 406 972 l 565 972 l 386 789 l 243 789 z "},"š":{"ha":657,"x_min":53,"x_max":601,"o":"m 340 -17 q 209 6 267 -17 q 112 65 151 28 q 53 150 72 103 l 167 200 q 233 129 189 157 q 332 101 278 101 q 431 124 392 101 q 469 186 469 146 q 440 247 469 225 q 356 283 411 269 l 290 300 q 140 379 193 326 q 86 499 86 432 q 151 656 86 600 q 344 711 217 711 q 459 693 407 711 q 548 642 511 675 q 600 563 585 608 l 489 513 q 432 574 472 554 q 338 594 392 594 q 250 570 282 594 q 218 503 218 546 q 245 458 218 479 q 325 422 272 436 l 400 404 q 513 353 468 388 q 579 277 557 319 q 601 189 601 235 q 567 80 601 126 q 474 8 533 33 q 340 -17 415 -17 m 275 789 l 275 792 l 450 972 l 588 972 l 418 789 l 275 789 m 265 789 l 96 972 l 233 972 l 408 792 l 408 789 l 265 789 z "},"ş":{"ha":657,"x_min":53,"x_max":601,"o":"m 340 -17 q 209 6 267 -17 q 112 65 151 28 q 53 150 72 103 l 167 200 q 233 129 189 157 q 332 101 278 101 q 431 124 392 101 q 469 186 469 146 q 440 247 469 225 q 356 283 411 269 l 290 300 q 140 379 193 326 q 86 499 86 432 q 151 656 86 600 q 344 711 217 711 q 459 693 407 711 q 548 642 511 675 q 600 563 585 608 l 489 513 q 432 574 472 554 q 338 594 392 594 q 250 570 282 594 q 218 503 218 546 q 245 458 218 479 q 325 422 272 436 l 400 404 q 513 353 468 388 q 579 277 557 319 q 601 189 601 235 q 567 80 601 126 q 474 8 533 33 q 340 -17 415 -17 m 292 -292 q 232 -284 264 -292 q 160 -254 200 -276 l 186 -181 q 231 -201 208 -192 q 272 -210 254 -210 q 317 -200 297 -210 q 336 -162 336 -190 q 311 -113 336 -129 q 235 -90 286 -97 l 275 8 l 358 -6 l 342 -43 q 415 -93 393 -61 q 436 -162 436 -125 q 401 -255 436 -218 q 292 -292 367 -292 z "},"ŝ":{"ha":657,"x_min":53,"x_max":601,"o":"m 340 -17 q 209 6 267 -17 q 112 65 151 28 q 53 150 72 103 l 167 200 q 233 129 189 157 q 332 101 278 101 q 431 124 392 101 q 469 186 469 146 q 440 247 469 225 q 356 283 411 269 l 290 300 q 140 379 193 326 q 86 499 86 432 q 151 656 86 600 q 344 711 217 711 q 459 693 407 711 q 548 642 511 675 q 600 563 585 608 l 489 513 q 432 574 472 554 q 338 594 392 594 q 250 570 282 594 q 218 503 218 546 q 245 458 218 479 q 325 422 272 436 l 400 404 q 513 353 468 388 q 579 277 557 319 q 601 189 601 235 q 567 80 601 126 q 474 8 533 33 q 340 -17 415 -17 m 451 806 l 267 983 l 267 989 l 418 989 l 588 806 l 451 806 m 96 806 l 265 989 l 417 989 l 417 983 l 231 806 l 96 806 z "},"ș":{"ha":657,"x_min":53,"x_max":601,"o":"m 340 -17 q 209 6 267 -17 q 112 65 151 28 q 53 150 72 103 l 167 200 q 233 129 189 157 q 332 101 278 101 q 431 124 392 101 q 469 186 469 146 q 440 247 469 225 q 356 283 411 269 l 290 300 q 140 379 193 326 q 86 499 86 432 q 151 656 86 600 q 344 711 217 711 q 459 693 407 711 q 548 642 511 675 q 600 563 585 608 l 489 513 q 432 574 472 554 q 338 594 392 594 q 250 570 282 594 q 218 503 218 546 q 245 458 218 479 q 325 422 272 436 l 400 404 q 513 353 468 388 q 579 277 557 319 q 601 189 601 235 q 567 80 601 126 q 474 8 533 33 q 340 -17 415 -17 m 217 -278 l 281 -79 l 418 -79 l 324 -278 l 217 -278 z "},"ß":{"ha":792,"x_min":92,"x_max":733,"o":"m 92 0 l 92 704 q 131 857 92 793 q 240 955 171 921 q 400 989 310 989 q 558 956 489 989 q 665 861 626 922 q 703 715 703 800 q 683 606 703 656 q 626 521 663 557 q 535 465 589 485 q 415 444 482 444 l 358 444 l 358 558 l 368 558 q 488 578 443 558 q 551 632 532 597 q 569 717 569 667 q 522 828 569 786 q 400 871 474 871 q 276 825 324 871 q 228 704 228 779 l 228 0 l 92 0 m 354 0 l 354 124 l 415 124 q 550 163 501 124 q 599 269 599 203 q 550 384 599 343 q 418 425 501 425 l 358 425 l 358 536 l 379 536 q 573 505 494 536 q 692 413 651 474 q 733 261 733 353 q 696 120 733 178 q 589 31 658 63 q 425 0 519 0 l 354 0 z "},"t":{"ha":533,"x_min":24,"x_max":494,"o":"m 360 -17 q 199 37 256 -17 q 142 190 142 90 l 142 911 l 274 911 l 274 210 q 299 131 274 158 q 374 104 325 104 q 404 110 388 104 q 444 132 421 115 l 494 29 q 426 -6 458 6 q 360 -17 393 -17 m 24 581 l 24 694 l 471 694 l 471 581 l 24 581 z "},"ť":{"ha":554,"x_min":24,"x_max":538,"o":"m 344 779 l 408 997 l 538 997 l 451 779 l 344 779 m 360 -17 q 199 37 256 -17 q 142 190 142 90 l 142 911 l 274 911 l 274 210 q 299 131 274 158 q 374 104 325 104 q 404 110 388 104 q 444 132 421 115 l 494 29 q 426 -6 458 6 q 360 -17 393 -17 m 24 581 l 24 694 l 471 694 l 471 581 l 24 581 z "},"ț":{"ha":533,"x_min":24,"x_max":494,"o":"m 360 -17 q 199 37 256 -17 q 142 190 142 90 l 142 911 l 274 911 l 274 210 q 299 131 274 158 q 374 104 325 104 q 404 110 388 104 q 444 132 421 115 l 494 29 q 426 -6 458 6 q 360 -17 393 -17 m 24 581 l 24 694 l 471 694 l 471 581 l 24 581 m 172 -278 l 236 -79 l 374 -79 l 279 -278 l 172 -278 z "},"u":{"ha":779,"x_min":75,"x_max":686,"o":"m 564 0 l 556 128 l 556 694 l 686 694 l 686 0 l 564 0 m 75 339 l 75 694 l 207 694 l 207 339 l 75 339 m 207 339 q 228 196 207 246 q 289 126 250 146 q 376 106 328 107 q 508 165 461 106 q 556 333 556 225 l 613 333 q 580 145 613 224 q 488 25 547 67 q 342 -17 428 -17 q 201 17 261 -17 q 108 121 140 50 q 75 304 75 192 l 75 339 l 207 339 z "},"ú":{"ha":779,"x_min":75,"x_max":686,"o":"m 564 0 l 556 128 l 556 694 l 686 694 l 686 0 l 564 0 m 75 339 l 75 694 l 207 694 l 207 339 l 75 339 m 207 339 q 228 196 207 246 q 289 126 250 146 q 376 106 328 107 q 508 165 461 106 q 556 333 556 225 l 613 333 q 580 145 613 224 q 488 25 547 67 q 342 -17 428 -17 q 201 17 261 -17 q 108 121 140 50 q 75 304 75 192 l 75 339 l 207 339 m 288 789 l 450 972 l 610 972 l 431 789 l 288 789 z "},"ŭ":{"ha":779,"x_min":75,"x_max":686,"o":"m 564 0 l 556 128 l 556 694 l 686 694 l 686 0 l 564 0 m 75 339 l 75 694 l 207 694 l 207 339 l 75 339 m 207 339 q 228 196 207 246 q 289 126 250 146 q 376 106 328 107 q 508 165 461 106 q 556 333 556 225 l 613 333 q 580 145 613 224 q 488 25 547 67 q 342 -17 428 -17 q 201 17 261 -17 q 108 121 140 50 q 75 304 75 192 l 75 339 l 207 339 m 388 779 q 263 803 318 779 q 177 872 208 828 q 146 972 146 917 l 271 972 q 303 906 271 932 q 388 881 336 881 q 472 906 439 881 q 504 972 504 932 l 629 972 q 599 872 629 917 q 514 803 568 828 q 388 779 460 779 z "},"û":{"ha":779,"x_min":75,"x_max":686,"o":"m 564 0 l 556 128 l 556 694 l 686 694 l 686 0 l 564 0 m 75 339 l 75 694 l 207 694 l 207 339 l 75 339 m 207 339 q 228 196 207 246 q 289 126 250 146 q 376 106 328 107 q 508 165 461 106 q 556 333 556 225 l 613 333 q 580 145 613 224 q 488 25 547 67 q 342 -17 428 -17 q 201 17 261 -17 q 108 121 140 50 q 75 304 75 192 l 75 339 l 207 339 m 496 806 l 311 983 l 311 989 l 463 989 l 632 806 l 496 806 m 140 806 l 310 989 l 461 989 l 461 983 l 275 806 l 140 806 z "},"ü":{"ha":779,"x_min":75,"x_max":686,"o":"m 564 0 l 556 128 l 556 694 l 686 694 l 686 0 l 564 0 m 75 339 l 75 694 l 207 694 l 207 339 l 75 339 m 207 339 q 228 196 207 246 q 289 126 250 146 q 376 106 328 107 q 508 165 461 106 q 556 333 556 225 l 613 333 q 580 145 613 224 q 488 25 547 67 q 342 -17 428 -17 q 201 17 261 -17 q 108 121 140 50 q 75 304 75 192 l 75 339 l 207 339 m 563 851 q 510 874 532 851 q 488 925 488 896 q 510 978 488 956 q 563 1000 532 1000 q 615 978 593 1000 q 636 925 636 956 q 615 874 636 896 q 563 851 593 851 m 215 851 q 163 874 185 851 q 140 925 140 896 q 163 978 140 957 q 215 1000 185 1000 q 267 978 246 1000 q 289 925 289 957 q 267 874 289 896 q 215 851 246 851 z "},"ù":{"ha":779,"x_min":75,"x_max":686,"o":"m 564 0 l 556 128 l 556 694 l 686 694 l 686 0 l 564 0 m 75 339 l 75 694 l 207 694 l 207 339 l 75 339 m 207 339 q 228 196 207 246 q 289 126 250 146 q 376 106 328 107 q 508 165 461 106 q 556 333 556 225 l 613 333 q 580 145 613 224 q 488 25 547 67 q 342 -17 428 -17 q 201 17 261 -17 q 108 121 140 50 q 75 304 75 192 l 75 339 l 207 339 m 393 789 l 211 974 l 371 974 l 536 789 l 393 789 z "},"ű":{"ha":779,"x_min":75,"x_max":728,"o":"m 564 0 l 556 128 l 556 694 l 686 694 l 686 0 l 564 0 m 75 339 l 75 694 l 207 694 l 207 339 l 75 339 m 207 339 q 228 196 207 246 q 289 126 250 146 q 376 106 328 107 q 508 165 461 106 q 556 333 556 225 l 613 333 q 580 145 613 224 q 488 25 547 67 q 342 -17 428 -17 q 201 17 261 -17 q 108 121 140 50 q 75 304 75 192 l 75 339 l 207 339 m 433 789 l 572 972 l 728 972 l 572 789 l 433 789 m 174 789 l 310 972 l 467 972 l 311 789 l 174 789 z "},"ū":{"ha":779,"x_min":75,"x_max":686,"o":"m 564 0 l 556 128 l 556 694 l 686 694 l 686 0 l 564 0 m 75 339 l 75 694 l 207 694 l 207 339 l 75 339 m 207 339 q 228 196 207 246 q 289 126 250 146 q 376 106 328 107 q 508 165 461 106 q 556 333 556 225 l 613 333 q 580 145 613 224 q 488 25 547 67 q 342 -17 428 -17 q 201 17 261 -17 q 108 121 140 50 q 75 304 75 192 l 75 339 l 207 339 m 172 793 l 172 910 l 606 910 l 606 793 l 172 793 z "},"ų":{"ha":779,"x_min":75,"x_max":719,"o":"m 564 0 l 556 128 l 556 694 l 686 694 l 686 0 l 564 0 m 75 339 l 75 694 l 207 694 l 207 339 l 75 339 m 207 339 q 228 196 207 246 q 289 126 250 146 q 376 106 328 107 q 508 165 461 106 q 556 333 556 225 l 613 333 q 580 145 613 224 q 488 25 547 67 q 342 -17 428 -17 q 201 17 261 -17 q 108 121 140 50 q 75 304 75 192 l 75 339 l 207 339 m 622 -294 q 534 -279 572 -294 q 475 -233 496 -264 q 454 -158 454 -203 q 493 -65 454 -108 q 582 13 532 -22 l 686 0 q 606 -71 642 -32 q 569 -153 569 -110 q 582 -183 569 -172 q 617 -193 594 -193 q 655 -188 638 -193 q 679 -179 672 -183 l 719 -268 q 676 -287 700 -281 q 622 -294 651 -294 z "},"ů":{"ha":779,"x_min":75,"x_max":686,"o":"m 564 0 l 556 128 l 556 694 l 686 694 l 686 0 l 564 0 m 75 339 l 75 694 l 207 694 l 207 339 l 75 339 m 207 339 q 228 196 207 246 q 289 126 250 146 q 376 106 328 107 q 508 165 461 106 q 556 333 556 225 l 613 333 q 580 145 613 224 q 488 25 547 67 q 342 -17 428 -17 q 201 17 261 -17 q 108 121 140 50 q 75 304 75 192 l 75 339 l 207 339 m 388 765 q 317 784 350 765 q 265 833 285 803 q 246 901 246 864 q 265 971 246 940 q 317 1020 285 1001 q 388 1039 350 1039 q 459 1020 426 1039 q 510 971 492 1001 q 529 901 529 940 q 510 833 529 864 q 459 784 492 803 q 388 765 426 765 m 388 850 q 438 901 438 850 q 388 954 438 954 q 338 901 338 954 q 388 850 338 850 z "},"v":{"ha":736,"x_min":13,"x_max":725,"o":"m 310 0 l 588 694 l 725 694 l 435 0 l 310 0 m 301 0 l 13 694 l 147 694 l 425 0 l 301 0 z "},"w":{"ha":1108,"x_min":14,"x_max":1094,"o":"m 728 0 l 963 694 l 1094 694 l 858 0 l 728 0 m 260 0 l 490 694 l 610 694 l 382 0 l 260 0 m 250 0 l 14 694 l 147 694 l 376 0 l 250 0 m 728 0 l 500 694 l 621 694 l 850 0 l 728 0 z "},"ẃ":{"ha":1108,"x_min":14,"x_max":1094,"o":"m 728 0 l 963 694 l 1094 694 l 858 0 l 728 0 m 260 0 l 490 694 l 610 694 l 382 0 l 260 0 m 250 0 l 14 694 l 147 694 l 376 0 l 250 0 m 728 0 l 500 694 l 621 694 l 850 0 l 728 0 m 454 789 l 617 972 l 776 972 l 597 789 l 454 789 z "},"ŵ":{"ha":1108,"x_min":14,"x_max":1094,"o":"m 728 0 l 963 694 l 1094 694 l 858 0 l 728 0 m 260 0 l 490 694 l 610 694 l 382 0 l 260 0 m 250 0 l 14 694 l 147 694 l 376 0 l 250 0 m 728 0 l 500 694 l 621 694 l 850 0 l 728 0 m 663 806 l 478 983 l 478 989 l 629 989 l 799 806 l 663 806 m 307 806 l 476 989 l 628 989 l 628 983 l 442 806 l 307 806 z "},"ẅ":{"ha":1108,"x_min":14,"x_max":1094,"o":"m 728 0 l 963 694 l 1094 694 l 858 0 l 728 0 m 260 0 l 490 694 l 610 694 l 382 0 l 260 0 m 250 0 l 14 694 l 147 694 l 376 0 l 250 0 m 728 0 l 500 694 l 621 694 l 850 0 l 728 0 m 729 851 q 676 874 699 851 q 654 925 654 896 q 676 978 654 956 q 729 1000 699 1000 q 781 978 760 1000 q 803 925 803 956 q 781 874 803 896 q 729 851 760 851 m 382 851 q 329 874 351 851 q 307 925 307 896 q 329 978 307 957 q 382 1000 351 1000 q 434 978 413 1000 q 456 925 456 957 q 434 874 456 896 q 382 851 413 851 z "},"ẁ":{"ha":1108,"x_min":14,"x_max":1094,"o":"m 728 0 l 963 694 l 1094 694 l 858 0 l 728 0 m 260 0 l 490 694 l 610 694 l 382 0 l 260 0 m 250 0 l 14 694 l 147 694 l 376 0 l 250 0 m 728 0 l 500 694 l 621 694 l 850 0 l 728 0 m 560 789 l 378 974 l 538 974 l 703 789 l 560 789 z "},"x":{"ha":683,"x_min":14,"x_max":669,"o":"m 14 0 l 299 399 l 497 694 l 653 694 l 385 315 l 172 0 l 14 0 m 513 0 l 303 315 l 32 694 l 188 694 l 388 399 l 669 0 l 513 0 z "},"y":{"ha":750,"x_min":11,"x_max":740,"o":"m 176 -294 q 109 -283 146 -294 q 33 -254 72 -272 l 82 -146 q 135 -167 113 -160 q 172 -174 158 -174 q 231 -154 207 -174 q 271 -100 256 -135 l 351 90 l 599 694 l 740 694 l 411 -86 q 356 -197 385 -150 q 284 -269 326 -244 q 176 -294 242 -294 m 315 0 l 11 694 l 151 694 l 403 92 l 443 0 l 315 0 z "},"ý":{"ha":750,"x_min":11,"x_max":740,"o":"m 176 -294 q 109 -283 146 -294 q 33 -254 72 -272 l 82 -146 q 135 -167 113 -160 q 172 -174 158 -174 q 231 -154 207 -174 q 271 -100 256 -135 l 351 90 l 599 694 l 740 694 l 411 -86 q 356 -197 385 -150 q 284 -269 326 -244 q 176 -294 242 -294 m 315 0 l 11 694 l 151 694 l 403 92 l 443 0 l 315 0 m 274 789 l 436 972 l 596 972 l 417 789 l 274 789 z "},"ŷ":{"ha":750,"x_min":11,"x_max":740,"o":"m 176 -294 q 109 -283 146 -294 q 33 -254 72 -272 l 82 -146 q 135 -167 113 -160 q 172 -174 158 -174 q 231 -154 207 -174 q 271 -100 256 -135 l 351 90 l 599 694 l 740 694 l 411 -86 q 356 -197 385 -150 q 284 -269 326 -244 q 176 -294 242 -294 m 315 0 l 11 694 l 151 694 l 403 92 l 443 0 l 315 0 m 482 806 l 297 983 l 297 989 l 449 989 l 618 806 l 482 806 m 126 806 l 296 989 l 447 989 l 447 983 l 261 806 l 126 806 z "},"ÿ":{"ha":750,"x_min":11,"x_max":740,"o":"m 176 -294 q 109 -283 146 -294 q 33 -254 72 -272 l 82 -146 q 135 -167 113 -160 q 172 -174 158 -174 q 231 -154 207 -174 q 271 -100 256 -135 l 351 90 l 599 694 l 740 694 l 411 -86 q 356 -197 385 -150 q 284 -269 326 -244 q 176 -294 242 -294 m 315 0 l 11 694 l 151 694 l 403 92 l 443 0 l 315 0 m 549 851 q 496 874 518 851 q 474 925 474 896 q 496 978 474 956 q 549 1000 518 1000 q 601 978 579 1000 q 622 925 622 956 q 601 874 622 896 q 549 851 579 851 m 201 851 q 149 874 171 851 q 126 925 126 896 q 149 978 126 957 q 201 1000 171 1000 q 253 978 232 1000 q 275 925 275 957 q 253 874 275 896 q 201 851 232 851 z "},"ỳ":{"ha":750,"x_min":11,"x_max":740,"o":"m 176 -294 q 109 -283 146 -294 q 33 -254 72 -272 l 82 -146 q 135 -167 113 -160 q 172 -174 158 -174 q 231 -154 207 -174 q 271 -100 256 -135 l 351 90 l 599 694 l 740 694 l 411 -86 q 356 -197 385 -150 q 284 -269 326 -244 q 176 -294 242 -294 m 315 0 l 11 694 l 151 694 l 403 92 l 443 0 l 315 0 m 379 789 l 197 974 l 357 974 l 522 789 l 379 789 z "},"z":{"ha":678,"x_min":57,"x_max":619,"o":"m 57 0 l 57 101 l 449 582 l 57 582 l 57 694 l 617 694 l 617 596 l 224 113 l 619 113 l 619 0 l 57 0 z "},"ź":{"ha":678,"x_min":57,"x_max":619,"o":"m 57 0 l 57 101 l 449 582 l 57 582 l 57 694 l 617 694 l 617 596 l 224 113 l 619 113 l 619 0 l 57 0 m 236 789 l 399 972 l 558 972 l 379 789 l 236 789 z "},"ž":{"ha":678,"x_min":57,"x_max":619,"o":"m 57 0 l 57 101 l 449 582 l 57 582 l 57 694 l 617 694 l 617 596 l 224 113 l 619 113 l 619 0 l 57 0 m 268 789 l 268 792 l 443 972 l 581 972 l 411 789 l 268 789 m 258 789 l 89 972 l 226 972 l 401 792 l 401 789 l 258 789 z "},"ż":{"ha":678,"x_min":57,"x_max":619,"o":"m 57 0 l 57 101 l 449 582 l 57 582 l 57 694 l 617 694 l 617 596 l 224 113 l 619 113 l 619 0 l 57 0 m 336 842 q 281 866 304 842 q 257 922 257 890 q 281 978 257 956 q 336 1001 304 1001 q 392 978 369 1001 q 415 922 415 956 q 392 866 415 890 q 336 842 369 842 z "},"ª":{"ha":463,"x_min":36,"x_max":410,"o":"m 311 556 l 306 768 q 297 836 304 808 q 272 878 290 864 q 215 893 253 893 q 167 882 186 893 q 133 849 149 871 l 39 881 q 111 956 67 929 q 217 982 156 982 q 360 930 311 982 q 410 785 410 878 l 410 556 l 311 556 m 192 546 q 77 579 118 546 q 36 674 36 613 q 77 769 36 736 q 192 801 118 801 l 328 801 l 328 733 l 226 733 q 143 675 143 733 q 161 638 143 651 q 210 625 179 625 q 278 653 253 625 q 304 725 304 681 l 347 733 q 306 596 347 646 q 192 546 265 546 z "},"º":{"ha":506,"x_min":36,"x_max":469,"o":"m 254 546 q 141 574 190 546 q 64 651 92 601 q 36 764 36 700 q 64 877 36 828 q 141 954 92 926 q 253 982 190 982 q 409 921 349 982 q 469 764 469 860 q 442 651 469 700 q 365 574 414 601 q 254 546 317 546 m 254 644 q 331 678 301 644 q 360 764 360 711 q 330 850 360 817 q 253 883 300 883 q 176 850 206 883 q 146 764 146 817 q 176 678 146 711 q 254 644 207 644 z "},"⁄":{"ha":304,"x_min":-242,"x_max":546,"o":"m -242 0 l 426 972 l 546 972 l -122 0 l -242 0 z "},"½":{"ha":1199,"x_min":54,"x_max":1144,"o":"m 178 389 l 178 914 l 189 972 l 285 972 l 285 389 l 178 389 m 54 790 l 54 890 q 121 914 83 889 q 189 972 158 939 l 260 903 q 158 817 208 849 q 54 790 108 786 m 149 0 l 817 972 l 936 972 l 268 0 l 149 0 m 853 68 l 743 82 q 758 135 743 107 q 800 194 774 164 q 861 247 826 224 l 951 313 q 1001 359 978 332 q 1024 413 1024 386 q 999 469 1024 447 q 931 492 975 492 q 867 469 892 492 q 835 418 843 447 l 721 438 q 758 515 729 479 q 830 572 786 550 q 929 593 874 593 q 1081 543 1025 593 q 1136 414 1136 493 q 1107 319 1136 360 q 1026 240 1078 278 l 939 176 q 899 143 918 163 q 868 104 881 124 q 853 68 856 85 m 743 0 l 743 82 l 826 99 l 1144 99 l 1144 0 l 743 0 z "},"¼":{"ha":1154,"x_min":54,"x_max":1125,"o":"m 178 389 l 178 914 l 189 972 l 285 972 l 285 389 l 178 389 m 54 790 l 54 890 q 121 914 83 889 q 189 972 158 939 l 260 903 q 158 817 208 849 q 54 790 108 786 m 149 0 l 817 972 l 936 972 l 268 0 l 149 0 m 726 161 l 646 206 l 904 583 l 971 522 l 726 161 m 646 115 l 646 206 l 708 211 l 1125 211 l 1125 115 l 646 115 m 917 0 l 917 522 l 904 583 l 1022 583 l 1022 0 l 917 0 z "},"¾":{"ha":1256,"x_min":53,"x_max":1226,"o":"m 251 379 q 121 414 174 379 q 53 504 68 449 l 154 535 q 187 494 167 513 q 244 475 207 475 q 313 499 288 475 q 338 561 338 524 q 324 606 338 586 q 283 636 311 625 q 210 647 256 647 l 175 647 l 175 722 l 206 722 q 328 701 272 722 q 416 642 383 681 q 449 549 449 603 q 422 457 449 494 q 349 399 394 419 q 251 379 304 379 m 175 667 l 175 739 l 210 739 q 297 758 267 739 q 326 814 326 778 q 304 865 326 843 q 244 886 282 886 q 194 873 218 886 q 157 829 171 860 l 57 858 q 98 926 69 899 q 165 968 126 954 q 247 982 204 982 q 344 962 301 982 q 413 906 388 942 q 438 824 438 871 q 405 737 438 772 q 319 684 372 701 q 206 667 265 667 l 175 667 m 250 0 l 918 972 l 1038 972 l 369 0 l 250 0 m 828 161 l 747 206 l 1006 583 l 1072 522 l 828 161 m 747 115 l 747 206 l 810 211 l 1226 211 l 1226 115 l 747 115 m 1018 0 l 1018 522 l 1006 583 l 1124 583 l 1124 0 l 1018 0 z "},"⅛":{"ha":1233,"x_min":54,"x_max":1183,"o":"m 178 389 l 178 914 l 189 972 l 285 972 l 285 389 l 178 389 m 54 790 l 54 890 q 121 914 83 889 q 189 972 158 939 l 260 903 q 158 817 208 849 q 54 790 108 786 m 149 0 l 817 972 l 936 972 l 268 0 l 149 0 m 964 -8 q 802 36 860 -8 q 744 153 744 81 q 801 279 744 231 q 964 328 858 328 q 1126 279 1068 328 q 1183 153 1183 231 q 1126 36 1183 81 q 964 -8 1068 -8 m 964 83 q 1040 107 1010 83 q 1069 167 1069 131 q 1040 232 1069 207 q 964 257 1010 257 q 888 232 917 257 q 858 167 858 207 q 888 107 858 131 q 964 83 917 83 m 964 346 q 1030 368 1004 346 q 1056 424 1056 390 q 1030 483 1056 460 q 964 506 1004 506 q 898 483 924 506 q 872 424 872 460 q 898 368 872 390 q 964 346 924 346 m 964 282 q 817 325 869 282 q 764 436 764 368 q 817 550 764 506 q 964 594 869 594 q 1111 550 1058 594 q 1164 436 1164 506 q 1110 325 1164 368 q 964 282 1057 282 z "},"⅜":{"ha":1335,"x_min":53,"x_max":1285,"o":"m 251 379 q 121 414 174 379 q 53 504 68 449 l 154 535 q 187 494 167 513 q 244 475 207 475 q 313 499 288 475 q 338 561 338 524 q 324 606 338 586 q 283 636 311 625 q 210 647 256 647 l 175 647 l 175 722 l 206 722 q 328 701 272 722 q 416 642 383 681 q 449 549 449 603 q 422 457 449 494 q 349 399 394 419 q 251 379 304 379 m 175 667 l 175 739 l 210 739 q 297 758 267 739 q 326 814 326 778 q 304 865 326 843 q 244 886 282 886 q 194 873 218 886 q 157 829 171 860 l 57 858 q 98 926 69 899 q 165 968 126 954 q 247 982 204 982 q 344 962 301 982 q 413 906 388 942 q 438 824 438 871 q 405 737 438 772 q 319 684 372 701 q 206 667 265 667 l 175 667 m 250 0 l 918 972 l 1038 972 l 369 0 l 250 0 m 1065 -8 q 903 36 961 -8 q 846 153 846 81 q 903 279 846 231 q 1065 328 960 328 q 1227 279 1169 328 q 1285 153 1285 231 q 1227 36 1285 81 q 1065 -8 1169 -8 m 1065 83 q 1141 107 1111 83 q 1171 167 1171 131 q 1141 232 1171 207 q 1065 257 1111 257 q 989 232 1018 257 q 960 167 960 207 q 989 107 960 131 q 1065 83 1018 83 m 1065 346 q 1131 368 1106 346 q 1157 424 1157 390 q 1131 483 1157 460 q 1065 506 1106 506 q 999 483 1025 506 q 974 424 974 460 q 999 368 974 390 q 1065 346 1025 346 m 1065 282 q 918 325 971 282 q 865 436 865 368 q 918 550 865 506 q 1065 594 971 594 q 1213 550 1160 594 q 1265 436 1265 506 q 1212 325 1265 368 q 1065 282 1158 282 z "},"⅝":{"ha":1354,"x_min":54,"x_max":1304,"o":"m 260 379 q 179 392 221 379 q 104 432 138 406 q 54 496 71 458 l 156 528 q 199 488 174 500 q 254 475 225 475 q 326 502 299 475 q 354 572 354 529 q 327 644 354 615 q 256 672 300 672 q 208 661 231 672 q 174 632 186 650 l 74 654 l 108 972 l 436 972 l 436 871 l 124 871 l 108 968 l 218 968 l 174 644 l 113 654 q 149 698 124 674 q 210 740 174 722 q 294 757 247 757 q 418 707 368 757 q 468 579 468 657 q 410 435 468 490 q 260 379 351 379 m 269 0 l 938 972 l 1057 972 l 389 0 l 269 0 m 1085 -8 q 923 36 981 -8 q 865 153 865 81 q 922 279 865 231 q 1085 328 979 328 q 1247 279 1189 328 q 1304 153 1304 231 q 1247 36 1304 81 q 1085 -8 1189 -8 m 1085 83 q 1160 107 1131 83 q 1190 167 1190 131 q 1160 232 1190 207 q 1085 257 1131 257 q 1008 232 1038 257 q 979 167 979 207 q 1008 107 979 131 q 1085 83 1038 83 m 1085 346 q 1151 368 1125 346 q 1176 424 1176 390 q 1151 483 1176 460 q 1085 506 1125 506 q 1019 483 1044 506 q 993 424 993 460 q 1019 368 993 390 q 1085 346 1044 346 m 1085 282 q 938 325 990 282 q 885 436 885 368 q 938 550 885 506 q 1085 594 990 594 q 1232 550 1179 594 q 1285 436 1285 506 q 1231 325 1285 368 q 1085 282 1178 282 z "},"⅞":{"ha":1272,"x_min":38,"x_max":1222,"o":"m 88 389 l 329 883 l 447 890 l 210 389 l 88 389 m 38 871 l 38 972 l 447 972 l 447 890 l 336 871 l 38 871 m 188 0 l 856 972 l 975 972 l 307 0 l 188 0 m 1003 -8 q 841 36 899 -8 q 783 153 783 81 q 840 279 783 231 q 1003 328 897 328 q 1165 279 1107 328 q 1222 153 1222 231 q 1165 36 1222 81 q 1003 -8 1107 -8 m 1003 83 q 1078 107 1049 83 q 1108 167 1108 131 q 1078 232 1108 207 q 1003 257 1049 257 q 926 232 956 257 q 897 167 897 207 q 926 107 897 131 q 1003 83 956 83 m 1003 346 q 1069 368 1043 346 q 1094 424 1094 390 q 1069 483 1094 460 q 1003 506 1043 506 q 937 483 963 506 q 911 424 911 460 q 937 368 911 390 q 1003 346 963 346 m 1003 282 q 856 325 908 282 q 803 436 803 368 q 856 550 803 506 q 1003 594 908 594 q 1150 550 1097 594 q 1203 436 1203 506 q 1149 325 1203 368 q 1003 282 1096 282 z "},"₀":{"ha":564,"x_min":42,"x_max":522,"o":"m 283 -147 q 158 -109 213 -147 q 73 -3 104 -71 q 42 154 42 65 q 72 312 42 244 q 157 417 103 379 q 282 456 211 456 q 406 417 353 456 q 491 312 460 379 q 522 154 522 244 q 492 -3 522 65 q 407 -109 461 -71 q 283 -147 353 -147 m 283 -46 q 378 10 342 -46 q 414 154 414 67 q 377 300 414 243 q 282 357 340 357 q 190 300 226 357 q 154 154 154 243 q 191 10 154 67 q 283 -46 228 -46 z "},"₁":{"ha":390,"x_min":54,"x_max":285,"o":"m 178 -139 l 178 386 l 189 444 l 285 444 l 285 -139 l 178 -139 m 54 263 l 54 363 q 121 386 83 361 q 189 444 158 411 l 260 375 q 158 290 208 321 q 54 263 108 258 z "},"₂":{"ha":504,"x_min":26,"x_max":450,"o":"m 158 -71 l 49 -57 q 64 -3 49 -32 q 106 55 79 25 q 167 108 132 85 l 257 174 q 306 220 283 193 q 329 274 329 247 q 305 331 329 308 q 236 353 281 353 q 173 331 197 353 q 140 279 149 308 l 26 299 q 63 376 35 340 q 135 433 92 411 q 235 454 179 454 q 386 404 331 454 q 442 275 442 354 q 413 180 442 221 q 332 101 383 139 l 244 38 q 205 4 224 24 q 174 -35 186 -15 q 158 -71 161 -54 m 49 -139 l 49 -57 l 132 -40 l 450 -40 l 450 -139 l 49 -139 z "},"₃":{"ha":492,"x_min":53,"x_max":449,"o":"m 251 -147 q 121 -112 174 -147 q 53 -22 68 -78 l 154 8 q 187 -33 167 -14 q 244 -51 207 -51 q 313 -27 288 -51 q 338 35 338 -3 q 324 79 338 60 q 283 110 311 99 q 210 121 256 121 l 175 121 l 175 196 l 206 196 q 328 175 272 196 q 416 115 383 154 q 449 22 449 76 q 422 -69 449 -32 q 349 -127 394 -107 q 251 -147 304 -147 m 175 140 l 175 213 l 210 213 q 297 232 267 213 q 326 288 326 251 q 304 338 326 317 q 244 360 282 360 q 194 347 218 360 q 157 303 171 333 l 57 332 q 98 400 69 372 q 165 442 126 428 q 247 456 204 456 q 344 435 301 456 q 413 380 388 415 q 438 297 438 344 q 405 210 438 246 q 319 158 372 175 q 206 140 265 140 l 175 140 z "},"₄":{"ha":546,"x_min":38,"x_max":517,"o":"m 118 22 l 38 67 l 296 444 l 363 383 l 118 22 m 38 -24 l 38 67 l 100 72 l 517 72 l 517 -24 l 38 -24 m 308 -139 l 308 383 l 296 444 l 414 444 l 414 -139 l 308 -139 z "},"₅":{"ha":511,"x_min":54,"x_max":468,"o":"m 260 -147 q 179 -134 221 -147 q 104 -94 138 -121 q 54 -31 71 -68 l 156 1 q 199 -39 174 -26 q 254 -51 225 -51 q 326 -24 299 -51 q 354 46 354 3 q 327 117 354 89 q 256 146 300 146 q 208 135 231 146 q 174 106 186 124 l 74 128 l 108 446 l 436 446 l 436 344 l 124 344 l 108 442 l 218 442 l 174 118 l 113 128 q 149 172 124 147 q 210 213 174 196 q 294 231 247 231 q 418 181 368 231 q 468 53 468 131 q 410 -92 468 -36 q 260 -147 351 -147 z "},"₆":{"ha":497,"x_min":42,"x_max":468,"o":"m 258 -147 q 133 -110 181 -147 q 63 -11 85 -74 q 42 128 42 51 q 56 255 42 196 q 99 360 69 314 q 173 431 128 406 q 279 456 218 456 q 369 442 324 456 q 449 404 414 429 l 393 324 q 336 350 367 342 q 282 358 306 358 q 179 301 217 358 q 144 119 142 243 l 122 135 q 183 208 142 181 q 278 236 224 236 q 376 210 333 236 q 444 140 419 183 q 468 40 468 96 q 410 -94 468 -40 q 258 -147 353 -147 m 260 -53 q 330 -25 301 -53 q 358 46 358 3 q 330 117 358 89 q 260 146 301 146 q 189 117 217 146 q 161 46 161 89 q 189 -26 161 1 q 260 -53 217 -53 z "},"₇":{"ha":476,"x_min":38,"x_max":447,"o":"m 88 -139 l 329 356 l 447 363 l 210 -139 l 88 -139 m 38 343 l 38 444 l 447 444 l 447 363 l 336 343 l 38 343 z "},"₈":{"ha":539,"x_min":50,"x_max":489,"o":"m 269 -147 q 108 -103 165 -147 q 50 14 50 -58 q 107 140 50 92 q 269 189 164 189 q 431 140 374 189 q 489 14 489 92 q 431 -103 489 -58 q 269 -147 374 -147 m 269 -56 q 345 -32 315 -56 q 375 28 375 -8 q 345 93 375 68 q 269 118 315 118 q 193 93 222 118 q 164 28 164 68 q 193 -32 164 -8 q 269 -56 222 -56 m 269 207 q 335 229 310 207 q 361 285 361 251 q 335 344 361 321 q 269 367 310 367 q 203 344 229 367 q 178 285 178 321 q 203 229 178 251 q 269 207 229 207 m 269 143 q 122 186 175 143 q 69 297 69 229 q 122 411 69 367 q 269 456 175 456 q 417 411 364 456 q 469 297 469 367 q 416 186 469 229 q 269 143 363 143 z "},"₉":{"ha":497,"x_min":29,"x_max":454,"o":"m 218 -147 q 129 -134 174 -147 q 49 -96 85 -121 l 104 -15 q 161 -42 131 -33 q 214 -50 192 -50 q 317 7 281 -50 q 353 189 354 64 l 375 174 q 315 100 356 128 q 219 72 275 72 q 121 98 164 72 q 53 168 78 124 q 29 268 29 213 q 86 402 29 349 q 239 456 143 456 q 364 418 317 456 q 433 319 411 381 q 454 181 454 257 q 441 55 454 114 q 399 -50 428 -4 q 325 -122 369 -96 q 218 -147 281 -147 m 238 163 q 308 192 281 163 q 336 263 336 221 q 308 333 336 306 q 238 361 281 361 q 167 333 194 361 q 139 263 139 306 q 167 191 139 219 q 238 163 196 163 z "},"⁰":{"ha":564,"x_min":42,"x_max":522,"o":"m 283 518 q 158 556 213 518 q 73 663 104 594 q 42 819 42 731 q 72 977 42 910 q 157 1083 103 1044 q 282 1121 211 1121 q 406 1083 353 1121 q 491 977 460 1044 q 522 819 522 910 q 492 663 522 731 q 407 556 461 594 q 283 518 353 518 m 283 619 q 378 676 342 619 q 414 819 414 732 q 377 965 414 908 q 282 1022 340 1022 q 190 965 226 1022 q 154 819 154 908 q 191 676 154 732 q 283 619 228 619 z "},"¹":{"ha":390,"x_min":54,"x_max":285,"o":"m 178 528 l 178 1053 l 189 1111 l 285 1111 l 285 528 l 178 528 m 54 929 l 54 1029 q 121 1053 83 1028 q 189 1111 158 1078 l 260 1042 q 158 956 208 988 q 54 929 108 925 z "},"²":{"ha":504,"x_min":26,"x_max":450,"o":"m 158 596 l 49 610 q 64 663 49 635 q 106 722 79 692 q 167 775 132 751 l 257 840 q 306 887 283 860 q 329 940 329 914 q 305 997 329 975 q 236 1019 281 1019 q 173 997 197 1019 q 140 946 149 975 l 26 965 q 63 1042 35 1007 q 135 1099 92 1078 q 235 1121 179 1121 q 386 1071 331 1121 q 442 942 442 1021 q 413 847 442 888 q 332 768 383 806 l 244 704 q 205 671 224 690 q 174 632 186 651 q 158 596 161 613 m 49 528 l 49 610 l 132 626 l 450 626 l 450 528 l 49 528 z "},"³":{"ha":492,"x_min":53,"x_max":449,"o":"m 251 518 q 121 553 174 518 q 53 643 68 588 l 154 674 q 187 633 167 651 q 244 614 207 614 q 313 638 288 614 q 338 700 338 663 q 324 744 338 725 q 283 775 311 764 q 210 786 256 786 l 175 786 l 175 861 l 206 861 q 328 840 272 861 q 416 781 383 819 q 449 688 449 742 q 422 596 449 633 q 349 538 394 558 q 251 518 304 518 m 175 806 l 175 878 l 210 878 q 297 897 267 878 q 326 953 326 917 q 304 1003 326 982 q 244 1025 282 1025 q 194 1012 218 1025 q 157 968 171 999 l 57 997 q 98 1065 69 1038 q 165 1107 126 1093 q 247 1121 204 1121 q 344 1101 301 1121 q 413 1045 388 1081 q 438 963 438 1010 q 405 876 438 911 q 319 823 372 840 q 206 806 265 806 l 175 806 z "},"⁴":{"ha":546,"x_min":38,"x_max":517,"o":"m 118 689 l 38 733 l 296 1111 l 363 1050 l 118 689 m 38 643 l 38 733 l 100 739 l 517 739 l 517 643 l 38 643 m 308 528 l 308 1050 l 296 1111 l 414 1111 l 414 528 l 308 528 z "},"⁵":{"ha":511,"x_min":54,"x_max":468,"o":"m 260 518 q 179 531 221 518 q 104 571 138 544 q 54 635 71 597 l 156 667 q 199 626 174 639 q 254 614 225 614 q 326 641 299 614 q 354 711 354 668 q 327 783 354 754 q 256 811 300 811 q 208 800 231 811 q 174 771 186 789 l 74 793 l 108 1111 l 436 1111 l 436 1010 l 124 1010 l 108 1107 l 218 1107 l 174 783 l 113 793 q 149 837 124 813 q 210 878 174 861 q 294 896 247 896 q 418 846 368 896 q 468 718 468 796 q 410 574 468 629 q 260 518 351 518 z "},"⁶":{"ha":497,"x_min":42,"x_max":468,"o":"m 258 518 q 133 555 181 518 q 63 654 85 592 q 42 793 42 717 q 56 920 42 861 q 99 1025 69 979 q 173 1096 128 1071 q 279 1121 218 1121 q 369 1108 324 1121 q 449 1069 414 1094 l 393 989 q 336 1015 367 1007 q 282 1024 306 1024 q 179 966 217 1024 q 144 785 142 908 l 122 800 q 183 874 142 846 q 278 901 224 901 q 376 875 333 901 q 444 805 419 849 q 468 706 468 761 q 410 572 468 625 q 258 518 353 518 m 260 613 q 330 640 301 613 q 358 711 358 668 q 330 783 358 754 q 260 811 301 811 q 189 783 217 811 q 161 711 161 754 q 189 640 161 667 q 260 613 217 613 z "},"⁷":{"ha":476,"x_min":38,"x_max":447,"o":"m 88 528 l 329 1022 l 447 1029 l 210 528 l 88 528 m 38 1010 l 38 1111 l 447 1111 l 447 1029 l 336 1010 l 38 1010 z "},"⁸":{"ha":539,"x_min":50,"x_max":489,"o":"m 269 518 q 108 563 165 518 q 50 679 50 607 q 107 806 50 757 q 269 854 164 854 q 431 806 374 854 q 489 679 489 757 q 431 563 489 607 q 269 518 374 518 m 269 610 q 345 633 315 610 q 375 693 375 657 q 345 758 375 733 q 269 783 315 783 q 193 758 222 783 q 164 693 164 733 q 193 633 164 657 q 269 610 222 610 m 269 872 q 335 894 310 872 q 361 950 361 917 q 335 1009 361 986 q 269 1032 310 1032 q 203 1009 229 1032 q 178 950 178 986 q 203 894 178 917 q 269 872 229 872 m 269 808 q 122 851 175 808 q 69 963 69 894 q 122 1076 69 1032 q 269 1121 175 1121 q 417 1076 364 1121 q 469 963 469 1032 q 416 851 469 894 q 269 808 363 808 z "},"⁹":{"ha":497,"x_min":29,"x_max":454,"o":"m 218 518 q 129 531 174 518 q 49 569 85 544 l 104 650 q 161 624 131 632 q 214 615 192 615 q 317 672 281 615 q 353 854 354 729 l 375 839 q 315 765 356 793 q 219 738 275 738 q 121 763 164 738 q 53 833 78 789 q 29 933 29 878 q 86 1067 29 1014 q 239 1121 143 1121 q 364 1083 317 1121 q 433 984 411 1046 q 454 846 454 922 q 441 720 454 779 q 399 615 428 661 q 325 544 369 569 q 218 518 281 518 m 238 828 q 308 857 281 828 q 336 928 336 886 q 308 999 336 971 q 238 1026 281 1026 q 167 999 194 1026 q 139 928 139 971 q 167 856 139 885 q 238 828 196 828 z "}," ":{"ha":339,"x_min":0,"x_max":0,"o":""}," ":{"ha":339,"x_min":0,"x_max":0,"o":""},"\r":{"ha":833,"x_min":0,"x_max":0,"o":""},".":{"ha":304,"x_min":65,"x_max":239,"o":"m 151 -19 q 91 6 117 -19 q 65 67 65 31 q 91 128 65 103 q 151 153 117 153 q 213 128 188 153 q 239 67 239 103 q 213 6 239 31 q 151 -19 188 -19 z "},",":{"ha":326,"x_min":51,"x_max":275,"o":"m 51 -160 l 132 143 l 275 143 l 158 -160 l 51 -160 z "},":":{"ha":369,"x_min":97,"x_max":272,"o":"m 183 524 q 123 549 149 524 q 97 610 97 574 q 123 671 97 646 q 183 696 149 696 q 245 671 219 696 q 271 610 271 646 q 245 549 271 574 q 183 524 219 524 m 186 -3 q 124 23 150 -3 q 99 85 99 49 q 124 145 99 119 q 186 171 150 171 q 247 145 221 171 q 272 85 272 119 q 247 23 272 49 q 186 -3 221 -3 z "},";":{"ha":376,"x_min":56,"x_max":279,"o":"m 181 522 q 119 547 144 522 q 93 608 93 572 q 119 669 93 644 q 181 694 144 694 q 241 669 215 694 q 267 608 267 644 q 241 547 267 572 q 181 522 215 522 m 56 -160 l 136 143 l 279 143 l 163 -160 l 56 -160 z "},"…":{"ha":889,"x_min":65,"x_max":824,"o":"m 151 -19 q 91 6 117 -19 q 65 67 65 31 q 91 128 65 103 q 151 153 117 153 q 213 128 188 153 q 239 67 239 103 q 213 6 239 31 q 151 -19 188 -19 m 443 -19 q 383 6 408 -19 q 357 67 357 31 q 383 128 357 103 q 443 153 408 153 q 505 128 479 153 q 531 67 531 103 q 505 6 531 31 q 443 -19 479 -19 m 736 -19 q 676 6 701 -19 q 650 67 650 31 q 676 128 650 103 q 736 153 701 153 q 798 128 772 153 q 824 67 824 103 q 798 6 824 31 q 736 -19 772 -19 z "},"!":{"ha":419,"x_min":124,"x_max":296,"o":"m 144 292 l 138 972 l 281 972 l 275 292 l 144 292 m 210 -21 q 149 5 174 -21 q 124 67 124 31 q 149 127 124 101 q 210 153 174 153 q 270 127 244 153 q 296 67 296 101 q 270 5 296 31 q 210 -21 244 -21 z "},"¡":{"ha":411,"x_min":124,"x_max":296,"o":"m 275 400 l 281 -282 l 138 -282 l 144 400 l 275 400 m 210 711 q 270 685 244 711 q 296 625 296 660 q 270 563 296 589 q 210 538 244 538 q 149 563 174 538 q 124 625 124 589 q 149 685 124 660 q 210 711 174 711 z "},"?":{"ha":703,"x_min":40,"x_max":643,"o":"m 239 267 l 236 513 l 317 517 q 458 565 403 518 q 513 696 513 613 q 461 819 513 771 q 326 868 410 868 q 223 840 268 868 q 163 769 178 811 l 40 806 q 143 938 68 888 q 326 989 218 989 q 491 951 419 989 q 603 848 563 914 q 643 696 643 782 q 609 558 643 618 q 513 461 575 497 q 369 417 451 425 l 369 267 l 239 267 m 304 -19 q 242 6 267 -19 q 217 67 217 31 q 242 128 217 103 q 304 153 267 153 q 365 128 340 153 q 390 67 390 103 q 365 6 390 31 q 304 -19 340 -19 z "},"¿":{"ha":646,"x_min":19,"x_max":622,"o":"m 425 426 l 428 179 l 347 176 q 206 127 261 175 q 150 -3 150 79 q 203 -127 150 -79 q 336 -175 256 -175 q 440 -147 396 -175 q 501 -76 485 -119 l 622 -114 q 520 -247 596 -196 q 336 -297 444 -297 q 172 -259 243 -297 q 60 -155 101 -221 q 19 -3 19 -89 q 53 135 19 75 q 149 231 88 194 q 293 275 211 268 l 294 426 l 425 426 m 360 713 q 421 688 396 713 q 446 625 446 663 q 421 564 446 589 q 360 539 396 539 q 299 564 324 539 q 274 625 274 589 q 299 688 274 663 q 360 713 324 713 z "},"·":{"ha":356,"x_min":92,"x_max":264,"o":"m 178 371 q 117 396 143 371 q 92 457 92 421 q 117 518 92 493 q 178 543 143 543 q 240 518 214 543 q 265 457 265 493 q 240 396 265 421 q 178 371 214 371 z "},"•":{"ha":671,"x_min":185,"x_max":486,"o":"m 335 243 q 259 264 293 243 q 205 319 225 285 q 185 394 185 353 q 205 470 185 436 q 259 524 225 504 q 335 543 293 543 q 411 524 376 543 q 466 470 446 504 q 486 394 486 436 q 466 319 486 353 q 411 264 446 285 q 335 243 376 243 z "},"*":{"ha":671,"x_min":85,"x_max":585,"o":"m 439 522 l 307 729 l 372 776 l 526 585 l 439 522 m 235 519 l 149 582 l 304 772 l 368 725 l 235 519 m 322 713 l 85 775 l 119 878 l 347 788 l 322 713 m 296 749 l 282 994 l 389 994 l 375 749 l 296 749 m 347 711 l 324 788 l 553 875 l 585 774 l 347 711 z "},"#":{"ha":874,"x_min":14,"x_max":860,"o":"m 465 0 l 618 972 l 721 972 l 568 0 l 465 0 m 14 265 l 26 357 l 807 357 l 794 265 l 14 265 m 156 0 l 308 972 l 411 972 l 258 0 l 156 0 m 65 603 l 79 694 l 860 694 l 846 603 l 65 603 z "},"/":{"ha":557,"x_min":21,"x_max":536,"o":"m 21 -117 l 404 1038 l 536 1038 l 156 -117 l 21 -117 z "},"\\":{"ha":557,"x_min":21,"x_max":536,"o":"m 536 -117 l 401 -117 l 21 1038 l 153 1038 l 536 -117 z "},"-":{"ha":575,"x_min":79,"x_max":496,"o":"m 79 356 l 79 471 l 496 471 l 496 356 l 79 356 z "},"–":{"ha":764,"x_min":0,"x_max":764,"o":"m 0 356 l 0 471 l 764 471 l 764 356 l 0 356 z "},"—":{"ha":1528,"x_min":0,"x_max":1528,"o":"m 0 356 l 0 471 l 1528 471 l 1528 356 l 0 356 z "},"_":{"ha":607,"x_min":26,"x_max":582,"o":"m 26 -117 l 26 0 l 582 0 l 582 -117 l 26 -117 z "},"(":{"ha":500,"x_min":75,"x_max":439,"o":"m 306 -139 q 189 45 242 -54 q 106 256 136 144 q 75 486 75 367 q 106 717 75 607 q 189 927 136 828 q 306 1111 242 1026 l 439 1111 q 322 921 375 1022 q 239 710 269 819 q 208 486 208 601 q 239 263 208 372 q 322 52 269 153 q 439 -139 375 -49 l 306 -139 z "},")":{"ha":500,"x_min":61,"x_max":425,"o":"m 194 -139 l 61 -139 q 178 52 126 -49 q 261 263 231 153 q 292 486 292 372 q 261 710 292 601 q 178 921 231 819 q 61 1111 126 1022 l 194 1111 q 312 927 260 1026 q 394 717 364 828 q 425 486 425 607 q 394 256 425 367 q 312 45 364 144 q 194 -139 260 -54 z "},"{":{"ha":539,"x_min":79,"x_max":460,"o":"m 79 471 l 79 536 q 163 551 133 536 q 203 604 192 567 q 214 711 214 642 q 225 908 214 831 q 263 1031 236 986 q 338 1093 290 1075 q 460 1111 385 1111 l 460 999 q 385 973 411 997 q 348 888 358 949 q 338 713 338 826 q 316 564 338 617 q 239 491 294 511 q 79 471 183 471 m 460 -139 q 338 -121 385 -139 q 263 -58 290 -103 q 225 64 236 -14 q 214 261 214 142 q 203 368 214 331 q 163 421 192 406 q 79 436 133 436 l 79 501 q 239 481 183 501 q 316 409 294 461 q 338 260 338 357 q 348 85 338 147 q 385 -1 358 24 q 460 -26 411 -25 l 460 -139 z "},"}":{"ha":539,"x_min":79,"x_max":460,"o":"m 460 471 q 301 491 357 471 q 223 564 244 511 q 201 713 201 617 q 192 888 201 826 q 155 973 182 949 q 79 999 128 997 l 79 1111 q 201 1093 153 1111 q 276 1031 249 1075 q 313 908 303 986 q 324 711 324 831 q 335 604 324 642 q 376 551 347 567 q 460 536 406 536 l 460 471 m 79 -139 l 79 -26 q 154 -1 128 -25 q 191 85 181 24 q 201 260 201 147 q 222 409 201 357 q 300 481 243 461 q 460 501 357 501 l 460 436 q 376 421 406 436 q 335 368 347 406 q 324 261 324 331 q 313 64 324 142 q 276 -58 303 -14 q 201 -121 249 -103 q 79 -139 153 -139 z "},"[":{"ha":457,"x_min":124,"x_max":363,"o":"m 124 -139 l 124 1111 l 363 1111 l 363 990 l 246 990 l 246 -18 l 363 -18 l 363 -139 l 124 -139 z "},"]":{"ha":457,"x_min":96,"x_max":335,"o":"m 335 -139 l 96 -139 l 96 -18 l 211 -18 l 211 990 l 96 990 l 96 1111 l 335 1111 l 335 -139 z "},"‚":{"ha":310,"x_min":51,"x_max":275,"o":"m 51 -160 l 132 143 l 275 143 l 158 -160 l 51 -160 z "},"„":{"ha":471,"x_min":19,"x_max":468,"o":"m 244 -160 l 325 143 l 468 143 l 351 -160 l 244 -160 m 19 -160 l 100 143 l 243 143 l 126 -160 l 19 -160 z "},"“":{"ha":490,"x_min":19,"x_max":468,"o":"m 243 972 l 163 669 l 19 669 l 135 972 l 243 972 m 468 972 l 386 669 l 244 669 l 360 972 l 468 972 z "},"”":{"ha":490,"x_min":24,"x_max":471,"o":"m 247 669 l 328 972 l 471 972 l 354 669 l 247 669 m 22 669 l 103 972 l 246 972 l 129 669 l 22 669 z "},"‘":{"ha":265,"x_min":19,"x_max":243,"o":"m 243 972 l 163 669 l 19 669 l 135 972 l 243 972 z "},"’":{"ha":265,"x_min":24,"x_max":246,"o":"m 22 669 l 103 972 l 246 972 l 129 669 l 22 669 z "},"«":{"ha":796,"x_min":68,"x_max":719,"o":"m 353 414 l 564 694 l 719 694 l 511 414 l 353 414 m 564 133 l 353 414 l 511 414 l 719 133 l 564 133 m 68 414 l 279 694 l 435 694 l 226 414 l 68 414 m 279 133 l 68 414 l 226 414 l 435 133 l 279 133 z "},"»":{"ha":796,"x_min":78,"x_max":729,"o":"m 444 414 l 286 414 l 78 694 l 233 694 l 444 414 m 233 133 l 78 133 l 286 414 l 444 414 l 233 133 m 729 414 l 569 414 l 361 694 l 517 694 l 729 414 m 517 133 l 361 133 l 569 414 l 729 414 l 517 133 z "},"‹":{"ha":514,"x_min":68,"x_max":435,"o":"m 68 414 l 279 694 l 435 694 l 226 414 l 68 414 m 279 133 l 68 414 l 226 414 l 435 133 l 279 133 z "},"›":{"ha":514,"x_min":79,"x_max":447,"o":"m 447 414 l 288 414 l 79 694 l 235 694 l 447 414 m 235 133 l 79 133 l 288 414 l 447 414 l 235 133 z "},"\"":{"ha":479,"x_min":83,"x_max":396,"o":"m 96 661 l 83 994 l 211 994 l 199 661 l 96 661 m 281 661 l 268 994 l 396 994 l 383 661 l 281 661 z "},"'":{"ha":294,"x_min":83,"x_max":211,"o":"m 96 661 l 83 994 l 211 994 l 199 661 l 96 661 z "},"@":{"ha":1375,"x_min":60,"x_max":1315,"o":"m 715 -294 q 451 -247 571 -294 q 243 -113 331 -200 q 108 91 156 -26 q 60 350 60 208 q 108 609 60 492 q 243 813 156 726 q 451 946 331 899 q 715 993 571 993 q 957 946 847 993 q 1147 813 1067 899 q 1272 609 1228 726 q 1315 350 1315 492 l 1204 350 q 1168 567 1204 468 q 1067 738 1132 665 q 912 849 1001 810 q 715 888 822 888 q 496 849 596 888 q 323 738 396 810 q 210 567 250 665 q 171 350 171 468 q 210 133 171 232 q 323 -37 250 35 q 496 -149 396 -110 q 715 -189 596 -189 q 830 -174 768 -189 q 933 -137 892 -160 l 989 -222 q 853 -274 931 -254 q 715 -294 776 -294 m 640 21 q 483 63 551 21 q 375 181 414 106 q 336 351 336 256 q 375 522 336 449 q 483 638 414 596 q 640 681 551 681 q 795 638 728 681 q 901 522 863 596 q 940 351 940 449 q 901 181 940 256 q 795 63 863 106 q 640 21 728 21 m 674 135 q 779 163 733 135 q 851 240 825 190 q 876 351 876 289 q 850 463 876 415 q 777 538 824 510 q 671 565 731 565 q 564 538 610 565 q 492 463 518 511 q 465 351 465 415 q 492 240 465 289 q 566 163 519 190 q 674 135 613 135 m 1044 -21 q 955 -1 993 -21 q 897 58 917 19 q 876 147 876 96 l 993 151 q 1010 98 993 117 q 1053 79 1026 79 q 1131 114 1097 79 q 1185 210 1165 149 q 1204 350 1204 271 l 1315 350 q 1281 158 1315 242 q 1185 27 1246 75 q 1044 -21 1124 -21 m 876 147 l 872 665 l 993 665 l 993 151 l 876 147 z "},"&":{"ha":896,"x_min":71,"x_max":886,"o":"m 358 -19 q 210 13 275 -19 q 108 104 146 46 q 71 236 71 163 q 94 343 71 296 q 155 430 117 390 q 239 501 193 469 l 381 599 q 444 645 413 621 q 499 701 476 669 q 522 771 522 732 q 487 850 522 821 q 397 879 451 879 q 317 849 350 879 q 283 772 283 818 q 308 702 283 733 q 367 628 332 671 l 542 418 l 886 0 l 725 0 l 438 346 l 263 557 q 204 635 229 600 q 166 703 179 669 q 153 774 153 738 q 185 885 153 836 q 272 963 217 935 q 393 992 326 992 q 525 964 467 992 q 617 886 583 936 q 650 769 650 836 q 621 666 650 714 q 540 574 592 618 q 422 483 489 529 l 321 413 q 266 369 292 393 q 224 314 240 344 q 208 239 208 283 q 251 137 208 176 q 364 97 294 97 q 493 120 432 97 q 601 185 554 143 q 674 289 647 228 q 700 425 700 350 l 828 425 q 767 195 828 296 q 601 38 707 94 q 358 -19 496 -19 z "},"¶":{"ha":774,"x_min":32,"x_max":650,"o":"m 335 347 q 178 388 246 347 q 71 499 110 428 q 32 660 32 569 q 71 823 32 753 q 178 933 110 893 q 335 972 246 972 l 410 972 l 410 347 l 335 347 m 363 -117 l 363 972 l 474 972 l 474 -117 l 363 -117 m 540 -117 l 540 972 l 650 972 l 650 -117 l 540 -117 m 468 847 l 468 972 l 554 972 l 554 847 l 468 847 z "},"§":{"ha":775,"x_min":111,"x_max":661,"o":"m 396 -125 q 258 -101 318 -125 q 161 -39 199 -78 q 111 43 124 0 l 222 81 q 281 7 238 38 q 385 -25 324 -24 q 501 5 458 -25 q 543 85 543 35 q 507 158 543 129 q 410 201 471 188 l 319 224 q 189 294 242 244 q 136 426 136 344 q 204 587 136 529 q 397 644 272 644 q 517 622 467 644 q 601 560 568 599 q 650 476 635 522 l 551 443 q 485 515 533 488 q 382 543 438 543 q 288 513 322 543 q 253 431 253 482 q 282 363 253 388 q 358 326 311 339 l 449 304 q 606 220 550 279 q 661 90 661 161 q 594 -64 661 -3 q 396 -125 526 -125 m 393 219 q 271 244 324 219 q 185 310 218 269 q 140 394 151 350 l 218 425 q 256 375 229 399 q 318 338 282 351 q 393 324 354 324 q 499 353 460 324 q 539 429 539 382 q 503 502 539 474 q 406 546 467 531 l 317 569 q 185 640 238 590 q 132 771 132 689 q 200 931 132 874 q 393 989 268 989 q 519 967 465 989 q 607 907 572 944 q 657 824 642 869 l 547 788 q 490 860 531 832 q 386 888 449 888 q 285 858 322 888 q 249 775 249 828 q 278 708 249 732 q 356 672 308 683 l 444 650 q 603 565 547 625 q 658 435 658 506 q 590 281 658 342 q 393 219 522 219 z "},"©":{"ha":1124,"x_min":60,"x_max":1064,"o":"m 563 -15 q 365 23 457 -15 q 205 130 274 61 q 98 290 136 199 q 60 486 60 381 q 98 683 60 592 q 205 844 136 775 q 365 951 274 913 q 563 989 457 989 q 759 951 668 989 q 919 844 850 913 q 1026 683 988 775 q 1064 486 1064 592 q 1026 290 1064 381 q 919 130 988 199 q 759 23 850 61 q 563 -15 668 -15 m 561 211 q 426 246 485 211 q 335 342 368 281 q 303 486 303 404 q 335 630 303 568 q 426 726 368 692 q 560 761 483 761 q 687 726 626 761 q 778 631 747 690 l 796 594 l 703 558 l 685 588 q 632 640 667 619 q 560 660 597 660 q 449 612 492 660 q 407 486 407 564 q 450 361 407 410 q 561 313 493 313 q 634 336 599 313 q 690 396 669 360 l 703 421 l 800 386 l 783 353 q 690 250 751 289 q 561 211 629 211 m 563 83 q 767 135 678 83 q 906 278 856 186 q 957 486 957 369 q 906 696 957 604 q 765 839 854 788 q 563 890 676 890 q 359 839 449 890 q 218 696 269 788 q 167 486 167 604 q 218 278 167 369 q 359 135 269 186 q 563 83 449 83 z "},"®":{"ha":863,"x_min":53,"x_max":810,"o":"m 431 232 q 284 261 353 232 q 163 342 215 290 q 82 463 111 394 q 53 610 53 532 q 82 758 53 689 q 163 878 111 826 q 284 959 215 929 q 431 989 353 989 q 578 959 510 989 q 699 878 647 929 q 780 758 750 826 q 810 610 810 689 q 780 463 810 532 q 699 342 750 394 q 578 261 647 290 q 431 232 510 232 m 431 314 q 584 351 518 314 q 688 456 650 389 q 725 610 725 524 q 688 765 725 699 q 584 869 650 832 q 431 907 518 907 q 278 869 344 907 q 175 765 213 832 q 138 610 138 699 q 175 456 138 524 q 278 351 213 389 q 431 314 344 314 m 289 414 l 289 819 l 438 819 q 542 783 501 819 q 582 689 582 747 q 561 619 582 650 q 504 572 540 589 l 599 414 l 511 414 l 429 558 l 365 558 l 365 414 l 289 414 m 365 631 l 439 631 q 485 647 467 631 q 503 689 503 663 q 484 733 503 717 q 435 749 465 749 l 365 749 l 365 631 z "},"™":{"ha":1199,"x_min":11,"x_max":1133,"o":"m 842 531 l 660 796 l 660 389 l 549 389 l 549 972 l 669 972 l 843 718 l 1014 972 l 1133 972 l 1133 389 l 1024 389 l 1024 797 l 842 531 m 188 389 l 188 871 l 11 871 l 11 972 l 474 972 l 474 871 l 297 871 l 297 389 l 188 389 z "},"°":{"ha":515,"x_min":61,"x_max":454,"o":"m 257 607 q 160 633 204 607 q 88 705 115 660 q 61 803 61 750 q 88 899 61 856 q 160 967 115 942 q 257 993 204 993 q 355 968 310 993 q 427 899 400 943 q 454 803 454 856 q 427 705 454 750 q 356 633 400 660 q 257 607 311 607 m 257 704 q 321 734 294 704 q 347 803 347 764 q 321 869 347 842 q 257 896 294 896 q 195 869 222 896 q 168 803 168 842 q 195 734 168 764 q 257 704 222 704 z "},"|":{"ha":357,"x_min":124,"x_max":235,"o":"m 124 -306 l 124 1097 l 235 1097 l 235 -306 l 124 -306 z "},"¦":{"ha":389,"x_min":139,"x_max":250,"o":"m 139 486 l 139 1097 l 250 1097 l 250 486 l 139 486 m 139 -306 l 139 306 l 250 306 l 250 -306 l 139 -306 z "},"†":{"ha":671,"x_min":36,"x_max":632,"o":"m 268 0 l 292 639 l 272 972 l 399 972 l 379 639 l 401 0 l 268 0 m 36 579 l 36 701 l 335 682 l 632 701 l 632 579 l 335 599 l 36 579 z "},"‡":{"ha":671,"x_min":36,"x_max":633,"o":"m 267 -278 l 290 51 l 275 347 l 290 639 l 271 972 l 397 972 l 378 639 l 393 347 l 378 51 l 401 -278 l 267 -278 m 39 -6 l 39 113 l 338 94 l 633 113 l 633 -6 l 338 11 l 39 -6 m 36 582 l 36 699 l 333 682 l 631 699 l 631 582 l 333 599 l 36 582 z "},"¢":{"ha":746,"x_min":53,"x_max":714,"o":"m 357 0 l 357 972 l 444 972 l 444 0 l 357 0 m 408 136 q 224 183 304 136 q 98 311 143 229 q 53 500 53 393 q 98 689 53 607 q 223 817 143 771 q 406 864 303 864 q 588 817 507 864 q 710 682 669 769 l 590 632 q 515 713 564 683 q 401 742 465 742 q 290 711 339 742 q 214 626 242 681 q 186 500 186 571 q 214 375 186 429 q 292 290 242 321 q 404 258 342 258 q 518 291 468 258 q 593 379 568 324 l 714 331 q 592 188 674 239 q 408 136 511 136 z "},"¤":{"ha":788,"x_min":103,"x_max":683,"o":"m 397 239 q 269 273 326 239 q 180 363 213 307 q 147 486 147 418 q 180 608 147 553 q 269 695 213 663 q 396 728 326 728 q 524 695 468 728 q 614 608 581 663 q 647 486 647 553 q 614 363 647 418 q 524 273 581 307 q 397 239 468 239 m 181 197 l 104 274 l 231 401 l 311 326 l 181 197 m 397 353 q 490 389 456 353 q 524 486 524 425 q 489 580 524 544 q 396 615 454 615 q 306 580 340 615 q 271 486 271 544 q 306 389 271 425 q 397 353 340 353 m 238 568 l 103 699 l 181 778 l 317 644 l 238 568 m 606 197 l 489 315 l 568 392 l 683 274 l 606 197 m 557 578 l 476 653 l 606 778 l 683 699 l 557 578 z "},"$":{"ha":779,"x_min":67,"x_max":713,"o":"m 401 32 q 238 60 308 32 q 125 133 168 88 q 67 231 82 179 l 188 269 q 258 184 207 221 q 386 147 310 147 q 527 183 475 146 q 579 278 579 219 q 533 367 579 332 q 414 421 488 403 l 314 446 q 203 494 253 463 q 126 572 154 525 q 99 685 99 619 q 177 872 99 804 q 403 940 256 940 q 550 913 488 940 q 653 842 613 886 q 710 746 693 797 l 588 704 q 517 791 568 757 q 393 825 465 825 q 273 789 317 825 q 229 692 229 753 q 264 607 229 636 q 354 564 299 578 l 457 539 q 646 439 579 510 q 713 285 713 368 q 676 156 713 213 q 572 65 640 99 q 401 32 503 32 m 346 -143 l 346 1083 l 461 1083 l 461 -143 l 346 -143 z "},"€":{"ha":932,"x_min":24,"x_max":886,"o":"m 536 -17 q 326 48 418 -17 q 183 226 235 113 q 132 486 132 339 q 183 747 132 633 q 326 924 235 860 q 533 989 417 989 q 678 957 610 989 q 800 868 747 925 q 882 736 853 811 l 764 681 q 707 777 743 736 q 626 841 671 818 q 533 864 582 864 q 398 815 457 864 q 305 682 339 767 q 271 486 271 597 q 305 290 271 375 q 399 156 339 204 q 538 108 458 108 q 632 133 588 108 q 711 202 676 158 q 767 303 746 246 l 886 249 q 803 110 857 171 q 681 17 750 50 q 536 -17 613 -17 m 24 357 l 24 440 l 638 440 l 638 357 l 24 357 m 24 532 l 24 615 l 638 615 l 638 532 l 24 532 z "},"£":{"ha":808,"x_min":65,"x_max":746,"o":"m 169 211 l 169 704 q 206 857 169 793 q 309 955 243 921 q 461 989 375 989 q 608 956 544 989 q 709 859 672 922 q 746 703 746 796 l 613 717 q 569 829 613 788 q 460 871 526 871 q 348 825 392 871 q 304 704 304 779 l 304 229 l 169 211 m 104 35 l 99 125 q 149 150 128 125 q 169 211 169 175 l 304 229 q 278 127 304 171 q 206 59 251 83 q 104 35 160 35 m 65 0 l 65 125 l 746 125 l 746 0 l 65 0 m 65 397 l 65 511 l 585 511 l 585 397 l 65 397 z "},"¥":{"ha":775,"x_min":13,"x_max":763,"o":"m 453 407 l 335 451 l 608 985 l 763 985 l 453 407 m 319 0 l 319 467 l 456 467 l 456 0 l 319 0 m 124 257 l 124 346 l 650 346 l 650 257 l 124 257 m 124 407 l 124 494 l 650 494 l 650 407 l 124 407 m 321 407 l 13 985 l 165 985 l 440 451 l 321 407 z "},"∕":{"ha":869,"x_min":46,"x_max":824,"o":"m 46 0 l 715 972 l 824 972 l 154 0 l 46 0 z "},"+":{"ha":869,"x_min":118,"x_max":751,"o":"m 379 97 l 379 731 l 492 731 l 492 97 l 379 97 m 118 357 l 118 469 l 751 469 l 751 357 l 118 357 z "},"−":{"ha":869,"x_min":168,"x_max":700,"o":"m 168 357 l 168 471 l 700 471 l 700 357 l 168 357 z "},"×":{"ha":869,"x_min":160,"x_max":708,"o":"m 631 139 l 160 610 l 238 689 l 708 217 l 631 139 m 238 139 l 160 217 l 631 689 l 708 610 l 238 139 z "},"÷":{"ha":869,"x_min":161,"x_max":708,"o":"m 161 357 l 161 471 l 708 471 l 708 357 l 161 357 m 435 128 q 387 149 407 128 q 367 197 367 169 q 387 245 367 225 q 435 265 407 265 q 483 245 463 265 q 503 197 503 225 q 483 149 503 169 q 435 128 463 128 m 435 561 q 386 582 407 561 q 365 629 365 603 q 386 678 365 658 q 435 699 407 699 q 483 678 463 699 q 503 629 503 658 q 483 582 503 603 q 435 561 463 561 z "},"=":{"ha":869,"x_min":157,"x_max":713,"o":"m 157 496 l 157 608 l 713 608 l 713 496 l 157 496 m 157 218 l 157 331 l 713 331 l 713 218 l 157 218 z "},"≠":{"ha":869,"x_min":157,"x_max":713,"o":"m 211 99 l 560 810 l 675 810 l 328 99 l 211 99 m 157 539 l 157 651 l 713 651 l 713 539 l 157 539 m 157 261 l 157 374 l 713 374 l 713 261 l 157 261 z "},">":{"ha":869,"x_min":196,"x_max":683,"o":"m 196 131 l 196 254 l 683 474 l 683 354 l 196 131 m 683 357 l 196 574 l 196 697 l 683 476 l 683 357 z "},"<":{"ha":869,"x_min":185,"x_max":672,"o":"m 672 699 l 672 575 l 185 356 l 185 474 l 672 699 m 185 472 l 672 256 l 672 131 l 185 353 l 185 472 z "},"≥":{"ha":869,"x_min":196,"x_max":683,"o":"m 196 0 l 196 99 l 683 99 l 683 0 l 196 0 m 196 163 l 196 281 l 683 494 l 683 381 l 196 163 m 683 383 l 196 593 l 196 713 l 683 497 l 683 383 z "},"≤":{"ha":869,"x_min":185,"x_max":672,"o":"m 672 0 l 185 0 l 185 99 l 672 99 l 672 0 m 672 163 l 185 381 l 185 494 l 672 281 l 672 163 m 185 383 l 185 497 l 672 713 l 672 593 l 185 383 z "},"±":{"ha":869,"x_min":118,"x_max":751,"o":"m 118 442 l 118 550 l 751 550 l 751 442 l 118 442 m 118 13 l 118 110 l 751 110 l 751 13 l 118 13 m 379 208 l 379 783 l 492 783 l 492 208 l 379 208 z "},"¬":{"ha":869,"x_min":181,"x_max":685,"o":"m 181 401 l 181 515 l 685 515 l 685 401 l 181 401 m 571 253 l 571 515 l 685 515 l 685 253 l 571 253 z "},"~":{"ha":826,"x_min":79,"x_max":747,"o":"m 551 293 q 476 306 508 293 q 419 340 443 318 q 375 388 394 361 q 324 442 346 422 q 276 461 301 461 q 218 433 239 461 q 189 360 197 406 l 79 360 q 107 475 82 424 q 176 556 132 526 q 275 586 219 586 q 381 562 335 586 q 457 490 426 538 q 499 443 475 468 q 550 418 524 418 q 608 445 588 418 q 636 519 629 472 l 747 519 q 717 404 743 456 q 650 323 692 353 q 551 293 608 293 z "},"^":{"ha":776,"x_min":107,"x_max":669,"o":"m 547 518 l 322 972 l 451 972 l 669 518 l 547 518 m 107 518 l 322 972 l 450 972 l 231 518 l 107 518 z "},"µ":{"ha":779,"x_min":75,"x_max":686,"o":"m 368 -17 q 201 61 264 -17 q 140 297 139 139 l 207 339 q 228 196 207 246 q 289 126 250 146 q 376 106 328 107 q 508 165 461 106 q 556 333 556 225 l 613 333 q 550 76 613 168 q 368 -17 488 -17 m 75 -278 l 75 694 l 207 694 l 207 113 l 199 111 l 199 -278 l 75 -278 m 564 0 l 556 128 l 556 694 l 686 694 l 686 0 l 564 0 z "},"%":{"ha":1101,"x_min":64,"x_max":1038,"o":"m 132 0 l 822 972 l 967 972 l 272 0 l 132 0 m 819 -22 q 706 8 756 -22 q 628 92 656 39 q 600 211 600 144 q 628 333 600 281 q 706 415 656 385 q 819 444 756 444 q 933 415 883 444 q 1010 333 982 385 q 1038 211 1038 281 q 1010 92 1038 144 q 933 8 982 39 q 819 -22 883 -22 m 819 76 q 901 115 869 76 q 932 211 932 153 q 901 308 932 269 q 819 347 869 347 q 738 308 769 347 q 706 211 706 269 q 738 115 706 153 q 819 76 769 76 m 282 528 q 169 558 218 528 q 92 641 119 588 q 64 761 64 694 q 92 883 64 831 q 169 965 119 935 q 282 994 218 994 q 397 965 347 994 q 474 883 446 935 q 501 761 501 831 q 474 641 501 694 q 397 558 446 588 q 282 528 347 528 m 282 626 q 364 665 332 626 q 396 761 396 703 q 364 858 396 819 q 282 896 332 896 q 201 858 233 896 q 169 761 169 819 q 201 665 169 703 q 282 626 233 626 z "},"↑":{"ha":985,"x_min":125,"x_max":860,"o":"m 554 875 l 211 500 l 125 576 l 494 989 l 554 875 m 551 0 l 435 0 l 435 893 l 551 893 l 551 0 m 860 574 l 774 499 l 432 875 l 494 989 l 860 574 z "},"↗":{"ha":967,"x_min":124,"x_max":844,"o":"m 204 251 l 124 333 l 735 944 l 817 863 l 204 251 m 294 854 l 294 972 l 844 972 l 801 856 l 294 854 m 726 422 l 728 931 l 844 972 l 844 422 l 726 422 z "},"→":{"ha":1035,"x_min":93,"x_max":954,"o":"m 840 353 l 465 696 l 542 782 l 954 413 l 840 353 m 93 356 l 93 471 l 857 471 l 857 356 l 93 356 m 539 47 l 463 133 l 840 475 l 954 413 l 539 47 z "},"↘":{"ha":967,"x_min":124,"x_max":844,"o":"m 124 632 l 204 714 l 817 101 l 735 19 l 124 632 m 726 543 l 844 543 l 844 -8 l 726 35 l 726 543 m 293 110 l 803 108 l 844 -8 l 293 -8 l 293 110 z "},"↓":{"ha":985,"x_min":125,"x_max":860,"o":"m 554 97 l 494 -17 l 125 396 l 211 472 l 554 97 m 551 972 l 551 79 l 435 79 l 435 972 l 551 972 m 860 399 l 494 -17 l 432 97 l 774 474 l 860 399 z "},"↙":{"ha":967,"x_min":124,"x_max":844,"o":"m 763 721 l 844 639 l 233 28 l 151 110 l 763 721 m 674 118 l 674 0 l 124 0 l 165 117 l 674 118 m 240 550 l 240 42 l 124 0 l 124 550 l 240 550 z "},"←":{"ha":1035,"x_min":82,"x_max":942,"o":"m 194 354 l 82 414 l 493 782 l 571 697 l 194 354 m 942 357 l 178 357 l 178 472 l 942 472 l 942 357 m 496 47 l 82 414 l 194 475 l 572 133 l 496 47 z "},"↖":{"ha":967,"x_min":124,"x_max":844,"o":"m 844 353 l 763 271 l 150 882 l 232 964 l 844 353 m 240 442 l 124 442 l 124 992 l 240 950 l 240 442 m 674 875 l 164 875 l 124 992 l 674 992 l 674 875 z "},"̈":{"ha":0,"x_min":-3,"x_max":493,"o":"m 419 851 q 367 874 389 851 q 344 925 344 896 q 367 978 344 956 q 419 1000 389 1000 q 472 978 450 1000 q 493 925 493 956 q 472 874 493 896 q 419 851 450 851 m 72 851 q 19 874 42 851 q -3 925 -3 896 q 19 978 -3 957 q 72 1000 42 1000 q 124 978 103 1000 q 146 925 146 957 q 124 874 146 896 q 72 851 103 851 z "},"̇":{"ha":0,"x_min":0,"x_max":158,"o":"m 79 842 q 24 866 47 842 q 0 922 0 890 q 24 978 0 956 q 79 1001 47 1001 q 135 978 113 1001 q 158 922 158 956 q 135 866 158 890 q 79 842 113 842 z "},"̀":{"ha":0,"x_min":160,"x_max":485,"o":"m 342 789 l 160 974 l 319 974 l 485 789 l 342 789 z "},"́":{"ha":0,"x_min":324,"x_max":646,"o":"m 324 789 l 486 972 l 646 972 l 467 789 l 324 789 z "},"̋":{"ha":0,"x_min":1,"x_max":556,"o":"m 261 789 l 400 972 l 556 972 l 400 789 l 261 789 m 1 789 l 138 972 l 294 972 l 139 789 l 1 789 z "},"̂":{"ha":0,"x_min":4,"x_max":496,"o":"m 360 806 l 175 983 l 175 989 l 326 989 l 496 806 l 360 806 m 4 806 l 174 989 l 325 989 l 325 983 l 139 806 l 4 806 z "},"̌":{"ha":0,"x_min":0,"x_max":492,"o":"m 179 789 l 179 792 l 354 972 l 492 972 l 322 789 l 179 789 m 169 789 l 0 972 l 138 972 l 313 792 l 313 789 l 169 789 z "},"̆":{"ha":0,"x_min":0,"x_max":483,"o":"m 242 779 q 117 803 172 779 q 31 872 63 828 q 0 972 0 917 l 125 972 q 158 906 125 932 q 242 881 190 881 q 326 906 293 881 q 358 972 358 932 l 483 972 q 453 872 483 917 q 368 803 422 828 q 242 779 314 779 z "},"̊":{"ha":0,"x_min":65,"x_max":349,"o":"m 207 765 q 137 784 169 765 q 85 833 104 803 q 65 901 65 864 q 85 971 65 940 q 137 1020 104 1001 q 207 1039 169 1039 q 278 1020 246 1039 q 330 971 311 1001 q 349 901 349 940 q 330 833 349 864 q 278 784 311 803 q 207 765 246 765 m 207 850 q 257 901 257 850 q 207 954 257 954 q 157 901 157 954 q 207 850 157 850 z "},"̃":{"ha":0,"x_min":144,"x_max":613,"o":"m 465 779 q 398 794 424 779 q 357 829 372 810 q 328 864 342 849 q 294 879 314 879 q 262 868 274 879 q 243 828 250 857 l 144 828 q 167 903 149 869 q 218 957 186 938 q 293 976 250 976 q 358 961 333 976 q 400 926 383 946 q 431 892 417 907 q 465 876 446 876 q 499 891 489 876 q 514 931 510 906 l 613 931 q 568 824 604 868 q 465 779 532 779 z "},"̄":{"ha":0,"x_min":-8,"x_max":425,"o":"m -8 793 l -8 910 l 425 910 l 425 793 l -8 793 z "},"̒":{"ha":0,"x_min":0,"x_max":222,"o":"m 222 990 l 142 803 l 0 803 l 115 990 l 222 990 z "},"̦":{"ha":0,"x_min":19,"x_max":221,"o":"m 19 -278 l 83 -79 l 221 -79 l 126 -278 l 19 -278 z "},"̧":{"ha":0,"x_min":238,"x_max":514,"o":"m 369 -292 q 310 -284 342 -292 q 238 -254 278 -276 l 264 -181 q 309 -201 286 -192 q 350 -210 332 -210 q 394 -200 375 -210 q 414 -162 414 -190 q 389 -113 414 -129 q 313 -90 364 -97 l 353 8 l 436 -6 l 419 -43 q 492 -93 471 -61 q 514 -162 514 -125 q 479 -255 514 -218 q 369 -292 444 -292 z "},"̨":{"ha":0,"x_min":47,"x_max":313,"o":"m 215 -294 q 127 -279 165 -294 q 68 -233 89 -264 q 47 -158 47 -203 q 86 -65 47 -108 q 175 13 125 -22 l 279 0 q 199 -71 235 -32 q 163 -153 163 -110 q 175 -183 163 -172 q 210 -193 188 -193 q 248 -188 231 -193 q 272 -179 265 -183 l 313 -268 q 269 -287 293 -281 q 215 -294 244 -294 z "},"¨":{"ha":628,"x_min":65,"x_max":563,"o":"m 488 851 q 435 874 457 851 q 413 925 413 896 q 435 978 413 956 q 488 1000 457 1000 q 540 978 518 1000 q 561 925 561 956 q 540 874 561 896 q 488 851 518 851 m 140 851 q 88 874 110 851 q 65 925 65 896 q 88 978 65 957 q 140 1000 110 1000 q 192 978 171 1000 q 214 925 214 957 q 192 874 214 896 q 140 851 171 851 z "},"˙":{"ha":158,"x_min":0,"x_max":158,"o":"m 79 842 q 24 866 47 842 q 0 922 0 890 q 24 978 0 956 q 79 1001 47 1001 q 135 978 113 1001 q 158 922 158 956 q 135 866 158 890 q 79 842 113 842 z "},"`":{"ha":324,"x_min":0,"x_max":325,"o":"m 182 789 l 0 974 l 160 974 l 325 789 l 182 789 z "},"´":{"ha":324,"x_min":1,"x_max":324,"o":"m 1 789 l 164 972 l 324 972 l 144 789 l 1 789 z "},"˝":{"ha":574,"x_min":15,"x_max":569,"o":"m 275 789 l 414 972 l 569 972 l 414 789 l 275 789 m 15 789 l 151 972 l 308 972 l 153 789 l 15 789 z "},"ˆ":{"ha":519,"x_min":14,"x_max":506,"o":"m 369 806 l 185 983 l 185 989 l 336 989 l 506 806 l 369 806 m 14 806 l 183 989 l 335 989 l 335 983 l 149 806 l 14 806 z "},"ˇ":{"ha":519,"x_min":10,"x_max":501,"o":"m 189 789 l 189 792 l 364 972 l 501 972 l 332 789 l 189 789 m 179 789 l 10 972 l 147 972 l 322 792 l 322 789 l 179 789 z "},"˘":{"ha":483,"x_min":0,"x_max":483,"o":"m 242 779 q 117 803 172 779 q 31 872 63 828 q 0 972 0 917 l 125 972 q 158 906 125 932 q 242 881 190 881 q 326 906 293 881 q 358 972 358 932 l 483 972 q 453 872 483 917 q 368 803 422 828 q 242 779 314 779 z "},"˚":{"ha":511,"x_min":126,"x_max":410,"o":"m 269 765 q 198 784 231 765 q 146 833 165 803 q 126 901 126 864 q 146 971 126 940 q 198 1020 165 1001 q 269 1039 231 1039 q 340 1020 307 1039 q 391 971 372 1001 q 410 901 410 940 q 391 833 410 864 q 340 784 372 803 q 269 765 307 765 m 269 850 q 318 901 318 850 q 269 954 318 954 q 218 901 218 954 q 269 850 218 850 z "},"˜":{"ha":496,"x_min":14,"x_max":482,"o":"m 335 779 q 267 794 293 779 q 226 829 242 810 q 197 864 211 849 q 164 879 183 879 q 131 868 143 879 q 113 828 119 857 l 14 828 q 37 903 18 869 q 88 957 56 938 q 163 976 119 976 q 228 961 203 976 q 269 926 253 946 q 301 892 286 907 q 335 876 315 876 q 369 891 358 876 q 383 931 379 906 l 482 931 q 438 824 474 868 q 335 779 401 779 z "},"¯":{"ha":417,"x_min":-8,"x_max":425,"o":"m -8 793 l -8 910 l 425 910 l 425 793 l -8 793 z "},"¸":{"ha":306,"x_min":14,"x_max":292,"o":"m 146 -292 q 86 -284 118 -292 q 14 -254 54 -276 l 40 -181 q 85 -201 63 -192 q 126 -210 108 -210 q 171 -200 151 -210 q 190 -162 190 -190 q 165 -113 190 -129 q 89 -90 140 -97 l 129 8 l 213 -6 l 196 -43 q 269 -93 247 -61 q 290 -162 290 -125 q 256 -255 290 -218 q 146 -292 221 -292 z "},"˛":{"ha":343,"x_min":47,"x_max":313,"o":"m 215 -294 q 127 -279 165 -294 q 68 -233 89 -264 q 47 -158 47 -203 q 86 -65 47 -108 q 175 13 125 -22 l 279 0 q 199 -71 235 -32 q 163 -153 163 -110 q 175 -183 163 -172 q 210 -193 188 -193 q 248 -188 231 -193 q 272 -179 265 -183 l 313 -268 q 269 -287 293 -281 q 215 -294 244 -294 z "}}}
